<svg width="25" height="29" viewBox="0 0 25 29" fill="none" xmlns="http://www.w3.org/2000/svg"><mask id="a" fill="#fff"><path d="M12.2727 3.96605C12.4835 3.96605 12.6543 3.79523 12.6543 3.58453V0.381528C12.6543 0.170821 12.4835 0 12.2727 0C12.062 0 11.8912 0.170821 11.8912 0.381528V3.58453C11.8912 3.79528 12.062 3.96605 12.2727 3.96605Z"/></mask><path d="M12.2727 3.96605C12.4835 3.96605 12.6543 3.79523 12.6543 3.58453V0.381528C12.6543 0.170821 12.4835 0 12.2727 0C12.062 0 11.8912 0.170821 11.8912 0.381528V3.58453C11.8912 3.79528 12.062 3.96605 12.2727 3.96605Z" fill="#FFB600"/><path d="M12.6543 0.381528L11.6543 0.38129V0.381528H12.6543ZM12.2727 4.96605C13.0359 4.96605 13.6543 4.34744 13.6543 3.58453H11.6543C11.6543 3.24303 11.9311 2.96605 12.2727 2.96605V4.96605ZM13.6543 3.58453V0.381528H11.6543V3.58453H13.6543ZM13.6543 0.381765C13.6544 -0.38155 13.0356 -1 12.2727 -1V1C11.9313 1 11.6542 0.723191 11.6543 0.38129L13.6543 0.381765ZM12.2727 -1C11.5096 -1 10.8912 -0.381382 10.8912 0.381528H12.8912C12.8912 0.723024 12.6143 1 12.2727 1V-1ZM10.8912 0.381528V3.58453H12.8912V0.381528H10.8912ZM10.8912 3.58453C10.8912 4.34757 11.5097 4.96605 12.2727 4.96605V2.96605C12.6143 2.96605 12.8912 3.24299 12.8912 3.58453H10.8912Z" fill="#FFB600" mask="url(#a)"/><mask id="b" fill="#fff"><path d="M3.9661 12.2726C3.9661 12.0619 3.79528 11.8911 3.58457 11.8911H0.381528C0.17077 11.8911 0 12.0619 0 12.2726C0 12.4834 0.17082 12.6542 0.381528 12.6542H3.58457C3.79528 12.6542 3.9661 12.4834 3.9661 12.2726Z"/></mask><path d="M3.9661 12.2726C3.9661 12.0619 3.79528 11.8911 3.58457 11.8911H0.381528C0.17077 11.8911 0 12.0619 0 12.2726C0 12.4834 0.17082 12.6542 0.381528 12.6542H3.58457C3.79528 12.6542 3.9661 12.4834 3.9661 12.2726Z" fill="#FFB600"/><path d="M3.58457 12.6542L3.58481 11.6542H3.58457V12.6542ZM4.9661 12.2726C4.9661 11.5095 4.34748 10.8911 3.58457 10.8911V12.8911C3.24308 12.8911 2.9661 12.6143 2.9661 12.2726H4.9661ZM3.58457 10.8911H0.381528V12.8911H3.58457V10.8911ZM0.381528 10.8911C-0.381599 10.8911 -1 11.5097 -1 12.2726H1C1 12.6141 0.723139 12.8911 0.381528 12.8911V10.8911ZM-1 12.2726C-1 13.0358 -0.381377 13.6542 0.381528 13.6542V11.6542C0.723018 11.6542 1 11.931 1 12.2726H-1ZM0.381528 13.6542H3.58457V11.6542H0.381528V13.6542ZM3.58434 13.6542C4.34764 13.6543 4.9661 13.0356 4.9661 12.2726H2.9661C2.9661 11.9312 3.24292 11.6541 3.58481 11.6542L3.58434 13.6542Z" fill="#FFB600" mask="url(#b)"/><mask id="c" fill="#fff"><path d="M5.85941 6.3986C5.93392 6.47306 6.03158 6.51034 6.12924 6.51034C6.22691 6.51034 6.32452 6.47306 6.39908 6.3986C6.54805 6.24957 6.54805 6.008 6.39908 5.85898L4.13417 3.59411C3.98515 3.44519 3.74357 3.44519 3.59455 3.59411C3.44558 3.74314 3.44558 3.98471 3.59455 4.13373L5.85941 6.3986Z"/></mask><path d="M5.85941 6.3986C5.93392 6.47306 6.03158 6.51034 6.12924 6.51034C6.22691 6.51034 6.32452 6.47306 6.39908 6.3986C6.54805 6.24957 6.54805 6.008 6.39908 5.85898L4.13417 3.59411C3.98515 3.44519 3.74357 3.44519 3.59455 3.59411C3.44558 3.74314 3.44558 3.98471 3.59455 4.13373L5.85941 6.3986Z" fill="#FFB600"/><path d="M5.85941 6.3986L5.1523 7.1057L5.15254 7.10594L5.85941 6.3986ZM6.39908 6.3986L7.10571 7.10618L7.10631 7.10558L6.39908 6.3986ZM6.39908 5.85898L7.10631 5.15199L7.10618 5.15186L6.39908 5.85898ZM4.13417 3.59411L4.84127 2.887L4.84104 2.88677L4.13417 3.59411ZM3.59455 3.59411L2.88768 2.88677L2.88732 2.88713L3.59455 3.59411ZM3.59455 4.13373L2.88732 4.84072L2.88744 4.84084L3.59455 4.13373ZM5.15254 7.10594C5.42194 7.37516 5.77709 7.51034 6.12924 7.51034V5.51034C6.28608 5.51034 6.4459 5.57096 6.56628 5.69125L5.15254 7.10594ZM6.12924 7.51034C6.4816 7.51034 6.83649 7.37503 7.10571 7.10618L5.69245 5.69102C5.81254 5.57108 5.97221 5.51034 6.12924 5.51034V7.51034ZM7.10631 7.10558C7.64564 6.56606 7.64564 5.69151 7.10631 5.15199L5.69185 6.56596C5.45046 6.32449 5.45046 5.93308 5.69185 5.69161L7.10631 7.10558ZM7.10618 5.15186L4.84127 2.887L3.42707 4.30123L5.69198 6.56609L7.10618 5.15186ZM4.84104 2.88677C4.30154 2.34764 3.42717 2.34764 2.88768 2.88677L4.30142 4.30146C4.05997 4.54274 3.66875 4.54274 3.4273 4.30146L4.84104 2.88677ZM2.88732 2.88713C2.34798 3.42665 2.34798 4.3012 2.88732 4.84072L4.30177 3.42675C4.54317 3.66822 4.54317 4.05963 4.30177 4.3011L2.88732 2.88713ZM2.88744 4.84084L5.1523 7.1057L6.56652 5.69149L4.30166 3.42663L2.88744 4.84084Z" fill="#FFB600" mask="url(#c)"/><mask id="d" fill="#fff"><path d="M24.164 11.8911H20.9609C20.7501 11.8911 20.5794 12.0619 20.5794 12.2726C20.5794 12.4834 20.7502 12.6542 20.9609 12.6542H24.164C24.3747 12.6542 24.5455 12.4833 24.5455 12.2726C24.5454 12.0619 24.3747 11.8911 24.164 11.8911Z"/></mask><path d="M24.164 11.8911H20.9609C20.7501 11.8911 20.5794 12.0619 20.5794 12.2726C20.5794 12.4834 20.7502 12.6542 20.9609 12.6542H24.164C24.3747 12.6542 24.5455 12.4833 24.5455 12.2726C24.5454 12.0619 24.3747 11.8911 24.164 11.8911Z" fill="#FFB600"/><path d="M24.5455 12.2726H25.5455V12.2724L24.5455 12.2726ZM24.164 10.8911H20.9609V12.8911H24.164V10.8911ZM20.9609 10.8911C20.1978 10.8911 19.5794 11.5097 19.5794 12.2726H21.5794C21.5794 12.6141 21.3025 12.8911 20.9609 12.8911V10.8911ZM19.5794 12.2726C19.5794 13.0358 20.198 13.6542 20.9609 13.6542V11.6542C21.3024 11.6542 21.5794 11.931 21.5794 12.2726H19.5794ZM20.9609 13.6542H24.164V11.6542H20.9609V13.6542ZM24.164 13.6542C24.9271 13.6542 25.5455 13.0356 25.5455 12.2726H23.5455C23.5455 11.9311 23.8223 11.6542 24.164 11.6542V13.6542ZM25.5455 12.2724C25.5453 11.5098 24.9272 10.8911 24.164 10.8911V12.8911C23.8222 12.8911 23.5456 12.6141 23.5455 12.2729L25.5455 12.2724Z" fill="#FFB600" mask="url(#d)"/><mask id="e" fill="#fff"><path d="M18.4162 6.51034C18.5138 6.51034 18.6114 6.47306 18.686 6.3986L20.9509 4.13373C21.0999 3.98471 21.0999 3.74314 20.9509 3.59411C20.8019 3.44524 20.5604 3.44514 20.4113 3.59411L18.1464 5.85898C17.9974 6.008 17.9974 6.24957 18.1464 6.3986C18.2209 6.47311 18.3185 6.51034 18.4162 6.51034Z"/></mask><path d="M18.4162 6.51034C18.5138 6.51034 18.6114 6.47306 18.686 6.3986L20.9509 4.13373C21.0999 3.98471 21.0999 3.74314 20.9509 3.59411C20.8019 3.44524 20.5604 3.44514 20.4113 3.59411L18.1464 5.85898C17.9974 6.008 17.9974 6.24957 18.1464 6.3986C18.2209 6.47311 18.3185 6.51034 18.4162 6.51034Z" fill="#FFB600"/><path d="M18.686 6.3986L19.3926 7.10618L19.3931 7.10571L18.686 6.3986ZM20.9509 4.13373L21.658 4.84085L21.6581 4.84072L20.9509 4.13373ZM20.9509 3.59411L21.6581 2.88713L21.6578 2.88677L20.9509 3.59411ZM20.4113 3.59411L19.7044 2.88677L19.7042 2.887L20.4113 3.59411ZM18.1464 5.85898L17.4393 5.15186L17.4391 5.15199L18.1464 5.85898ZM18.1464 6.3986L17.4391 7.10558L17.4393 7.1057L18.1464 6.3986ZM18.4162 7.51034C18.7684 7.51034 19.1234 7.37508 19.3926 7.10618L17.9794 5.69102C18.0995 5.57104 18.2591 5.51034 18.4162 5.51034V7.51034ZM19.3931 7.10571L21.658 4.84085L20.2438 3.42662L17.9789 5.69148L19.3931 7.10571ZM21.6581 4.84072C22.1975 4.3012 22.1975 3.42665 21.6581 2.88713L20.2437 4.3011C20.0023 4.05963 20.0023 3.66822 20.2437 3.42675L21.6581 4.84072ZM21.6578 2.88677C21.1185 2.34786 20.2441 2.34742 19.7044 2.88677L21.1181 4.30146C20.8766 4.54286 20.4854 4.54262 20.244 4.30146L21.6578 2.88677ZM19.7042 2.887L17.4393 5.15186L18.8535 6.56609L21.1184 4.30123L19.7042 2.887ZM17.4391 5.15199C16.8998 5.69151 16.8998 6.56606 17.4391 7.10558L18.8536 5.69161C19.095 5.93308 19.095 6.32449 18.8536 6.56596L17.4391 5.15199ZM17.4393 7.1057C17.7089 7.37536 18.0643 7.51034 18.4162 7.51034V5.51034C18.5728 5.51034 18.7328 5.57086 18.8535 5.69149L17.4393 7.1057Z" fill="#FFB600" mask="url(#e)"/><path d="M10.289 27.1291H3.3406C2.82402 27.1291 2.40524 27.5479 2.40524 28.0644V28.0644C2.40524 28.581 2.82402 28.9998 3.3406 28.9998H21.647C22.1636 28.9998 22.5824 28.581 22.5824 28.0644V27.7972C22.5824 27.4282 22.2833 27.1291 21.9143 27.1291V27.1291C21.5453 27.1291 21.2461 26.83 21.2461 26.461V25.6363C21.2461 25.3943 21.15 25.1622 20.9789 24.9911V24.9911C20.8078 24.82 20.5757 24.7239 20.3337 24.7239H19.509C19.509 24.7239 18.3064 13.0986 17.9056 12.2969C17.5047 11.4951 16.9702 10.9686 16.4357 10.9606C15.9012 10.9526 9.48729 10.9606 8.81917 10.9606C8.15105 10.9606 7.31865 11.8968 7.21569 12.2969C7.15528 12.5316 6.61385 16.7682 6.1766 20.2302C5.87516 22.6168 7.73665 24.7239 10.1423 24.7239H10.427C11.5316 24.7239 12.427 23.8284 12.427 22.7239V19.6462L11.9367 19.9233C10.7827 20.5756 9.35366 19.7418 9.35366 18.4162V17.8149C9.35366 16.6704 10.6403 15.9981 11.5799 16.6516L11.6594 16.7069C12.1169 17.0252 12.7275 17.012 13.1708 16.6742V16.6742C14.0161 16.0302 15.2331 16.633 15.2331 17.6956V20.5815" stroke="#FFB600" stroke-width="1.2"/></svg>
