<svg width="26" height="26" viewBox="0 0 26 26" fill="none" xmlns="http://www.w3.org/2000/svg"><path d="M13 25.6562C19.9899 25.6562 25.6562 19.9899 25.6562 13C25.6562 6.01015 19.9899 0.34375 13 0.34375C6.01015 0.34375 0.34375 6.01015 0.34375 13C0.34375 19.9899 6.01015 25.6562 13 25.6562Z" fill="#0071B6"/><path d="M13 23.1183C18.5881 23.1183 23.1182 18.5882 23.1182 13.0001C23.1182 7.41193 18.5881 2.88184 13 2.88184C7.41181 2.88184 2.88171 7.41193 2.88171 13.0001C2.88171 18.5882 7.41181 23.1183 13 23.1183Z" fill="#fff"/><path d="M13 13.4921C13.0677 13.4922 13.1348 13.4782 13.1969 13.451L19.1911 10.8413C19.3108 10.7891 19.4049 10.6915 19.4526 10.5699C19.5003 10.4484 19.4977 10.3128 19.4455 10.1931C19.3933 10.0735 19.2957 9.97943 19.1741 9.93172C19.0526 9.88401 18.9171 9.88654 18.7974 9.93876L13.1299 12.4064L8.22885 6.92207C8.14188 6.82473 8.0198 6.76592 7.88947 6.75859C7.75914 6.75126 7.63123 6.796 7.53389 6.88298C7.43654 6.96995 7.37774 7.09203 7.37041 7.22236C7.36308 7.3527 7.40782 7.4806 7.49479 7.57794L12.6344 13.3278C12.6804 13.3793 12.7367 13.4205 12.7997 13.4488C12.8627 13.4771 12.9309 13.4919 13 13.4921Z" fill="#FF4800"/><path d="M13.4922 4.54571V2.88184C13.4922 2.7513 13.4403 2.62611 13.348 2.53381C13.2557 2.4415 13.1305 2.38965 13 2.38965C12.8695 2.38965 12.7443 2.4415 12.652 2.53381C12.5597 2.62611 12.5078 2.7513 12.5078 2.88184V4.54571C12.5078 4.67625 12.5597 4.80144 12.652 4.89374C12.7443 4.98604 12.8695 5.0379 13 5.0379C13.1305 5.0379 13.2557 4.98604 13.348 4.89374C13.4403 4.80144 13.4922 4.67625 13.4922 4.54571Z" fill="#FF4800"/><path d="M13.4922 23.1185V21.4546C13.4922 21.3241 13.4403 21.1989 13.348 21.1066C13.2557 21.0143 13.1305 20.9624 13 20.9624C12.8695 20.9624 12.7443 21.0143 12.652 21.1066C12.5597 21.1989 12.5078 21.3241 12.5078 21.4546V23.1185C12.5078 23.249 12.5597 23.3742 12.652 23.4665C12.7443 23.5588 12.8695 23.6107 13 23.6107C13.1305 23.6107 13.2557 23.5588 13.348 23.4665C13.4403 23.3742 13.4922 23.249 13.4922 23.1185Z" fill="#FF4800"/><path d="M23.1182 13.4922C23.2488 13.4922 23.3739 13.4403 23.4662 13.348C23.5585 13.2557 23.6104 13.1305 23.6104 13C23.6104 12.8695 23.5585 12.7443 23.4662 12.652C23.3739 12.5597 23.2488 12.5078 23.1182 12.5078H21.4543C21.3238 12.5078 21.1986 12.5597 21.1063 12.652C21.014 12.7443 20.9622 12.8695 20.9622 13C20.9622 13.1305 21.014 13.2557 21.1063 13.348C21.1986 13.4403 21.3238 13.4922 21.4543 13.4922H23.1182Z" fill="#FF4800"/><path d="M4.54559 13.4922C4.67612 13.4922 4.80131 13.4403 4.89362 13.348C4.98592 13.2557 5.03777 13.1305 5.03777 13C5.03777 12.8695 4.98592 12.7443 4.89362 12.652C4.80131 12.5597 4.67612 12.5078 4.54559 12.5078H2.88171C2.75118 12.5078 2.62599 12.5597 2.53368 12.652C2.44138 12.7443 2.38953 12.8695 2.38953 13C2.38953 13.1305 2.44138 13.2557 2.53368 13.348C2.62599 13.4403 2.75118 13.4922 2.88171 13.4922H4.54559Z" fill="#FF4800"/></svg>
