<svg width="24" height="24" viewBox="0 0 24 24" fill="none" xmlns="http://www.w3.org/2000/svg"><path transform="rotate(-44.763 5.18 7.816)" fill="#0e0e2c" d="M5.181 7.816H7.333V23.541H5.181z"/><path transform="rotate(-134.753 6.696 18.8)" fill="#0e0e2c" d="M6.696 18.8H8.847999999999999V34.525H6.696z"/><path d="M5.00024 17.3587C5.00024 17.797 5.17105 18.2091 5.48099 18.5193C5.79093 18.8294 6.20322 19 6.64152 19C7.08016 19 7.49222 18.8294 7.80146 18.5193L11.5 14.8208L15.1977 18.5186C15.5075 18.8287 15.9196 18.9994 16.3582 18.9994C16.7969 18.9994 17.2093 18.8287 17.5184 18.5186C17.8282 18.2085 17.9992 17.7964 17.9992 17.3581C17.9992 16.9198 17.8282 16.5077 17.5184 16.1975L13.8209 12.4999L17.5191 8.80162C17.8289 8.49168 17.9999 8.07957 17.9999 7.64127C17.9999 7.20298 17.8289 6.79069 17.5191 6.48074C17.2093 6.1708 16.7973 6 16.3586 6C15.9203 6 15.5082 6.1708 15.1984 6.4808L11.5004 10.1794L7.80187 6.4808C7.49228 6.1708 7.08016 6 6.64187 6C6.20322 6 5.79093 6.1708 5.48134 6.4808C5.1714 6.79074 5.00054 7.20304 5.00054 7.64133C5.00054 8.07963 5.17134 8.49168 5.48134 8.80168L9.17989 12.4999L5.48099 16.1982C5.17105 16.5083 5.00024 16.9204 5.00024 17.3587ZM5.99398 16.7115L9.94888 12.7563C10.017 12.6884 10.0551 12.5963 10.0551 12.5002C10.0551 12.404 10.017 12.3116 9.94888 12.2438L5.99398 8.28893C5.8207 8.11583 5.7256 7.88589 5.7256 7.64127C5.7256 7.39648 5.821 7.16631 5.99398 6.99338C6.16726 6.82046 6.39672 6.72501 6.64187 6.72501C6.88649 6.72501 7.11678 6.82046 7.28923 6.99338L11.2441 10.9481C11.38 11.0841 11.6208 11.0841 11.7567 10.9481L15.711 6.99338C16.0569 6.64712 16.6605 6.64783 17.0064 6.99338C17.1796 7.16666 17.2748 7.39642 17.2748 7.64127C17.2748 7.88589 17.1796 8.11624 17.0064 8.28893L13.052 12.2435C12.9103 12.3852 12.9103 12.6143 13.052 12.7562L17.0058 16.7097C17.1789 16.8829 17.2738 17.113 17.2738 17.3576C17.2738 17.6022 17.1789 17.8324 17.0054 18.0054C16.6605 18.3513 16.0566 18.3517 15.7104 18.0054L11.7567 14.052C11.6149 13.91 11.3859 13.91 11.2441 14.052L7.28888 18.0069C6.94421 18.3527 6.34024 18.3531 5.99404 18.0069C5.82076 17.8337 5.72566 17.6036 5.72566 17.359C5.72566 17.1145 5.8207 16.8844 5.99398 16.7115Z" fill="#0e0e2c"/></svg>
