<svg width="119" height="120" viewBox="0 0 119 120" fill="none" xmlns="http://www.w3.org/2000/svg"><g clip-path="url(#a)"><path d="M113.701 81.4851C101.679 109.586 69.9431 121.656 45.0778 119.598C38.289 119.036 24.6287 117.905 13.963 107.819C-6.5201 88.4494 -3.36522 47.9603 16.2423 24.1228C18.768 21.0531 36.2462 0.485804 63.4833 0.761038C83.4245 0.962733 97.4215 12.2271 99.1232 13.6304C101.273 15.4035 106.015 19.6163 110.289 26.2993C120.329 42.0027 121.213 63.9247 113.701 81.4851Z" fill="#BFDBED"/><path d="M0.243772 29.0306C0.0773406 28.5735 0.70178 28.1826 1.14689 28.463C5.653 31.3099 16.7166 40.1239 16.3235 57.8644C15.8307 80.1235 22.0592 87.4856 29.211 91.5805C29.211 91.5805 19.911 90.3596 13.2697 82.927C-3.03669 64.6769 3.19825 37.1565 0.243772 29.0306Z" fill="#BFDBED"/><path d="M4.18394 35.4974C4.98728 37.8739 5.73558 40.2641 6.38109 42.6793C7.04051 45.0893 7.61392 47.5165 8.10131 49.961C8.57438 52.4062 8.99798 54.8601 9.29859 57.3295C9.61167 59.7971 9.80132 62.2777 9.98195 64.7694C10.1789 67.2577 10.3604 69.7662 10.8421 72.2571C11.3237 74.748 12.1451 77.2096 13.4736 79.4566C13.8056 80.0157 14.1509 80.5748 14.5311 81.105C14.8996 81.6435 15.2966 82.1677 15.7047 82.6846C16.535 83.7279 17.4418 84.7079 18.4175 85.6167C20.3957 87.4483 22.7069 89.0073 25.1964 90.2613C25.4588 90.3933 25.802 90.3125 25.9637 90.0807C26.1254 89.8489 26.0467 89.5646 25.7955 89.4287C25.2007 89.1083 24.6107 88.7837 24.0405 88.4336C23.7523 88.2616 23.4736 88.0822 23.1907 87.9055C22.9163 87.7197 22.6316 87.5434 22.3662 87.3503C21.2932 86.6035 20.2761 85.7794 19.3232 84.8843C17.4339 83.1211 15.8483 81.0956 14.5745 78.9496C13.9547 77.8782 13.4273 76.756 12.9979 75.5952C12.5778 74.4392 12.2471 73.2526 12.0088 72.0459C11.522 69.6308 11.3181 67.1502 11.101 64.6641C10.8838 62.1779 10.6378 59.6806 10.2774 57.1996C10.1011 55.9591 9.89895 54.7222 9.67102 53.4891C9.56135 52.8724 9.43793 52.2579 9.31536 51.6429C9.18634 51.0296 9.05274 50.4171 8.91455 49.8053C8.35146 47.3614 7.70222 44.9371 6.96683 42.5322C6.2181 40.1334 5.39584 37.7543 4.46778 35.4105C4.45124 35.3766 4.42265 35.35 4.38758 35.336C4.35251 35.322 4.31349 35.3216 4.27812 35.3348C4.26115 35.3391 4.2452 35.3467 4.23122 35.3573C4.21725 35.3678 4.20553 35.3811 4.19675 35.3962C4.18797 35.4114 4.18232 35.4281 4.18012 35.4455C4.17792 35.4629 4.17922 35.4805 4.18394 35.4974Z" fill="#fff" style="mix-blend-mode:soft-light"/><path d="M26.5774 68.2206C26.2247 69.2355 24.9501 69.5602 24.1454 68.848C19.7047 64.9199 8.15471 52.678 9.01095 32.2294C9.73387 14.9615 8.48499 5.52953 7.62144 1.28662C7.43996 0.389527 8.50907 -0.218998 9.18856 0.394258C16.6861 7.16072 39.3646 31.4458 26.5774 68.2206Z" fill="#4094C8"/><path d="M25.1242 68.2494C25.102 68.2648 25.0782 68.2779 25.0533 68.2885C24.951 68.3325 24.8355 68.334 24.7321 68.2928C24.6287 68.2516 24.5459 68.171 24.5019 68.0688C24.3983 67.8275 14.1324 43.6632 14.0516 19.6077C14.0496 19.5515 14.059 19.4955 14.0791 19.443C14.0992 19.3904 14.1297 19.3425 14.1687 19.302C14.2077 19.2615 14.2544 19.2292 14.3062 19.2071C14.3579 19.185 14.4135 19.1735 14.4698 19.1733C14.526 19.1732 14.5817 19.1843 14.6336 19.2061C14.6854 19.2279 14.7324 19.2598 14.7717 19.3001C14.8109 19.3404 14.8417 19.3882 14.8621 19.4406C14.8825 19.493 14.8922 19.5489 14.8906 19.6052C14.9689 43.4852 25.169 67.4977 25.2713 67.7376C25.3099 67.8268 25.3163 67.9265 25.2894 68.0199C25.2626 68.1132 25.2042 68.1943 25.1242 68.2494Z" fill="#fff" style="mix-blend-mode:soft-light"/><path d="M16.4345 20.9747C16.4345 19.0419 17.2023 17.1882 18.569 15.8215C19.9357 14.4548 21.7894 13.687 23.7222 13.687H85.6999C87.3464 13.6871 88.9299 14.3197 90.1233 15.454C91.3167 16.5883 92.0288 18.1378 92.1124 19.7822L96.6869 109.638C96.7192 110.272 96.6237 110.906 96.4061 111.502C96.1885 112.098 95.8531 112.645 95.42 113.109C94.9869 113.573 94.4649 113.945 93.885 114.204C93.3051 114.462 92.6792 114.601 92.0445 114.612L21.0103 115.903C20.4133 115.913 19.8202 115.805 19.2655 115.584C18.7108 115.363 18.2057 115.034 17.7797 114.616C17.3537 114.197 17.0153 113.698 16.7844 113.148C16.5534 112.597 16.4345 112.006 16.4345 111.409V20.9747Z" fill="#0E0E2C"/><path d="M31.3939 114.376H31.3917L23.4435 114.273C20.7858 114.239 18.6234 112.048 18.6234 109.39V97.3918C18.6223 97.3688 18.6258 97.3458 18.6338 97.3242C18.6418 97.3026 18.6541 97.2829 18.67 97.2662C18.6859 97.2495 18.705 97.2362 18.7261 97.2271C18.7473 97.2181 18.7701 97.2134 18.7931 97.2134C18.8161 97.2134 18.8389 97.2181 18.8601 97.2271C18.8812 97.2362 18.9003 97.2495 18.9162 97.2662C18.9321 97.2829 18.9444 97.3026 18.9524 97.3242C18.9604 97.3458 18.9639 97.3688 18.9628 97.3918V109.39C18.9628 111.864 20.9745 113.902 23.4478 113.934L31.3939 114.037C31.4374 114.039 31.4784 114.058 31.5084 114.089C31.5384 114.121 31.5552 114.163 31.5552 114.206C31.5552 114.25 31.5384 114.292 31.5084 114.323C31.4784 114.355 31.4374 114.374 31.3939 114.376Z" fill="#BFDBED"/><path d="M18.7933 93.8427C18.7485 93.8422 18.7056 93.8241 18.6738 93.7923C18.6421 93.7606 18.624 93.7177 18.6235 93.6728V91.7311C18.6257 91.6876 18.6445 91.6466 18.6761 91.6166C18.7076 91.5866 18.7496 91.5698 18.7931 91.5698C18.8367 91.5698 18.8786 91.5866 18.9102 91.6166C18.9418 91.6466 18.9606 91.6876 18.9628 91.7311V93.6746C18.9624 93.7193 18.9444 93.762 18.9127 93.7935C18.881 93.825 18.8381 93.8427 18.7933 93.8427Z" fill="#BFDBED"/><path d="M21.5118 15.0707C21.5098 14.7675 21.573 14.4674 21.6971 14.1908C21.8211 13.9141 22.0032 13.6674 22.2309 13.4672C22.4585 13.267 22.7266 13.118 23.0168 13.0303C23.3071 12.9427 23.6127 12.9184 23.9132 12.9591C32.3766 14.1061 61.4805 17.6566 85.5433 15.8095C85.8036 15.7891 86.0653 15.821 86.3131 15.9033C86.5608 15.9856 86.7896 16.1166 86.986 16.2886C87.1823 16.4606 87.3423 16.6702 87.4564 16.905C87.5706 17.1398 87.6366 17.395 87.6506 17.6557L92.4474 107.912C92.4792 108.506 92.2745 109.089 91.878 109.533C91.4814 109.977 90.9253 110.246 90.3311 110.281C80.2115 110.88 38.5329 113.195 23.6668 111.638C23.2298 111.592 22.8253 111.386 22.5306 111.06C22.2359 110.734 22.0717 110.311 22.0695 109.871L21.5118 15.0707Z" fill="#0071B6"/><path d="M22.5091 17.3312C22.5072 17.0395 22.568 16.7507 22.6873 16.4845C22.8067 16.2183 22.9818 15.9808 23.2009 15.7881C23.42 15.5955 23.6779 15.4521 23.9572 15.3678C24.2365 15.2834 24.5307 15.26 24.8198 15.2992C32.9646 16.4036 60.9728 19.8199 84.1296 18.0421C84.3801 18.0225 84.632 18.0531 84.8705 18.1323C85.109 18.2115 85.3292 18.3376 85.5182 18.5032C85.7073 18.6688 85.8613 18.8705 85.9711 19.0965C86.081 19.3225 86.1446 19.5681 86.1581 19.8191L90.7743 106.676C90.8048 107.248 90.6077 107.809 90.226 108.236C89.8444 108.663 89.3093 108.922 88.7376 108.955C78.9986 109.532 38.889 111.76 24.5824 110.261C24.1619 110.217 23.7726 110.019 23.4891 109.705C23.2055 109.391 23.0477 108.984 23.0458 108.561L22.5091 17.3312Z" fill="#BFDBED"/><path opacity=".6" d="M32.1082 24.9038C32.2433 25.6142 32.7073 26.1079 33.2358 26.1006L76.3097 25.5884C76.7969 25.5828 77.187 25.0242 77.1762 24.3473C77.1659 23.6889 76.7802 23.1621 76.3062 23.1591L33.2311 22.8877C32.469 22.883 31.9143 23.882 32.1082 24.9038Z" fill="#fff"/><path opacity=".6" d="M37.3468 31.4507C37.4027 31.9358 37.5941 32.2726 37.8126 32.2678L55.5958 31.9191C55.7971 31.9152 55.9579 31.532 55.9536 31.0714C55.9493 30.6216 55.7898 30.2616 55.5945 30.2595L37.8104 30.0733C37.4965 30.0702 37.2668 30.7527 37.3468 31.4507Z" fill="#fff"/><path opacity=".6" d="M37.0776 37.355C37.177 37.84 37.5188 38.1768 37.9085 38.172L69.6383 37.8233C69.9974 37.8194 70.2834 37.4362 70.2765 36.9752C70.2688 36.5258 69.985 36.1659 69.6358 36.1638L37.905 35.9775C37.3447 35.9745 36.9348 36.657 37.0776 37.355Z" fill="#fff"/><path opacity=".6" d="M36.8888 43.3923C37.0015 43.8778 37.3902 44.2141 37.8349 44.2094L73.9036 43.861C74.3117 43.8567 74.6381 43.474 74.6291 43.013C74.6205 42.5631 74.2971 42.2032 73.9006 42.201L37.8293 42.0161C37.1924 42.0135 36.7267 42.696 36.8888 43.3923Z" fill="#fff"/><path d="M33.0522 40.3046H33.0401L28.6204 40.2616C27.9891 40.2556 27.4679 39.8208 27.4081 39.251L27.0211 35.5426C27.0101 35.4339 27.0213 35.3242 27.054 35.22C27.0868 35.1158 27.1404 35.0194 27.2116 34.9366C27.2964 34.8388 27.3998 34.7588 27.5159 34.7015C27.632 34.6442 27.7584 34.6107 27.8876 34.6029C28.2601 34.5775 28.7843 34.5328 29.3395 34.4855C30.5084 34.3862 31.9628 34.2623 32.7799 34.252C33.3738 34.249 33.8774 34.6003 34.0172 35.1177C34.2477 35.9688 34.2275 37.5802 34.1836 39.297C34.1699 39.8556 33.6633 40.3046 33.0522 40.3046ZM27.9104 34.9426C27.8265 34.9474 27.7444 34.9688 27.6689 35.0058C27.5934 35.0427 27.5261 35.0943 27.4709 35.1577C27.4293 35.2057 27.3979 35.2617 27.3785 35.3223C27.3591 35.3828 27.3522 35.4466 27.3582 35.5099L27.7453 39.2183C27.7883 39.6165 28.1646 39.9201 28.6234 39.9249L33.0431 39.9679H33.0517C33.4818 39.9679 33.8349 39.6668 33.8443 39.2918C33.8873 37.6013 33.908 36.0169 33.6899 35.2097C33.5919 34.848 33.2169 34.596 32.7842 34.5947C31.9779 34.605 30.5299 34.728 29.3662 34.8274C28.8097 34.8747 28.2837 34.9194 27.9087 34.9452L27.9104 34.9426Z" fill="#fff"/><path opacity=".6" d="M28.3836 35.1804C29.3121 35.1167 31.3299 34.912 32.2872 34.9C32.6928 34.8948 33.0484 35.1399 33.1435 35.4917C33.328 36.1747 33.3034 37.5358 33.2725 38.7924C33.263 39.1687 32.9173 39.4693 32.4954 39.465L28.9633 39.431C28.529 39.4272 28.1686 39.13 28.1281 38.7451L27.8181 35.7803C27.7858 35.4754 28.0396 35.2036 28.3836 35.1804Z" fill="#fff"/><path d="M28.5728 35.9062C28.6507 35.8605 28.737 35.8307 28.8265 35.8188C28.9161 35.8068 29.0071 35.8129 29.0943 35.8366C29.1815 35.8603 29.263 35.9012 29.3342 35.9569C29.4053 36.0126 29.4646 36.0819 29.5086 36.1608L30.3804 37.7236C30.4001 37.7589 30.4292 37.788 30.4645 37.8076C30.4998 37.8273 30.5399 37.8368 30.5803 37.835C30.6206 37.8332 30.6597 37.8202 30.6931 37.7975C30.7266 37.7748 30.753 37.7433 30.7696 37.7064L32.9314 32.8928C32.9542 32.8419 32.9939 32.8005 33.0438 32.7755C33.0936 32.7505 33.1506 32.7436 33.205 32.756C33.2594 32.7683 33.3078 32.7991 33.3421 32.8431C33.3763 32.8871 33.3943 32.9416 33.3929 32.9973C33.371 34.4694 32.9805 37.2682 30.6276 39.6111C30.6276 39.6111 29.331 39.1071 28.2873 36.8158C28.2139 36.6557 28.2025 36.4741 28.2553 36.3061C28.308 36.1381 28.4212 35.9956 28.5728 35.9062Z" fill="#FF4800"/><path opacity=".6" d="M37.5838 52.2412C37.7279 52.7267 38.2237 53.063 38.788 53.0583L84.7767 52.7099C85.2971 52.7056 85.7133 52.3229 85.7017 51.8619C85.6906 51.4121 85.279 51.0521 84.7732 51.05L38.7828 50.8638C37.9713 50.8608 37.377 51.5432 37.5838 52.2412Z" fill="#fff"/><path opacity=".6" d="M37.2793 58.1459C37.3451 58.631 37.5705 58.9677 37.8272 58.963L58.7519 58.6142C58.9889 58.6103 59.1781 58.2272 59.173 57.7666C59.1678 57.3167 58.9807 56.9567 58.7502 56.9546L37.8251 56.7671C37.4578 56.7671 37.1851 57.4479 37.2793 58.1459Z" fill="#fff"/><path opacity=".6" d="M37.1004 64.1855C37.2131 64.6705 37.6018 65.0073 38.0444 65.0025L74.1135 64.6538C74.5212 64.6499 74.8476 64.2667 74.839 63.8057C74.8304 63.3564 74.507 62.9964 74.1105 62.9943L38.0409 62.8076C37.404 62.8046 36.9378 63.4875 37.1004 64.1855Z" fill="#fff"/><path d="M33.2638 61.0955H33.2518L28.8321 61.0525C28.2008 61.0465 27.6796 60.6121 27.6198 60.0423L27.2328 56.334C27.2217 56.2254 27.2329 56.1156 27.2656 56.0114C27.2984 55.9072 27.352 55.8108 27.4233 55.7281C27.5079 55.63 27.6114 55.55 27.7275 55.4926C27.8436 55.4353 27.9701 55.4019 28.0993 55.3943C28.4718 55.369 28.996 55.3242 29.5512 55.2769C30.7201 55.1772 32.1745 55.0533 32.9916 55.043C33.5855 55.0404 34.0891 55.3918 34.2289 55.9087C34.4594 56.7602 34.4392 58.3716 34.3953 60.0879C34.3815 60.6461 33.8749 61.0955 33.2638 61.0955ZM28.1208 55.7354C28.0369 55.74 27.9548 55.7614 27.8793 55.7984C27.8038 55.8353 27.7365 55.887 27.6813 55.9504C27.6396 55.9983 27.6081 56.0542 27.5888 56.1147C27.5694 56.1752 27.5626 56.239 27.5687 56.3022L27.9557 60.0105C27.9987 60.4087 28.3754 60.7128 28.8343 60.7171L33.2539 60.7601H33.2625C33.6926 60.7601 34.0457 60.459 34.0551 60.0836C34.0981 58.3931 34.1188 56.8088 33.9007 56.0016C33.8027 55.6399 33.4277 55.3883 32.995 55.387C32.1887 55.3969 30.7407 55.5203 29.577 55.6193C29.0205 55.6666 28.4946 55.7113 28.1195 55.7371L28.1208 55.7354Z" fill="#fff"/><path opacity=".6" d="M28.5986 55.9709C29.5271 55.9077 31.5449 55.7025 32.5022 55.6905C32.9077 55.6858 33.2634 55.9305 33.3584 56.2822C33.5429 56.9652 33.5184 58.3267 33.4874 59.5829C33.478 59.9592 33.1322 60.2598 32.7103 60.2559L29.1783 60.222C28.7439 60.2177 28.3831 59.9209 28.3427 59.5339L28.0322 56.5708C27.9965 56.2659 28.252 55.9928 28.5986 55.9709Z" fill="#fff"/><path d="M28.7843 56.6973C28.8623 56.6516 28.9485 56.622 29.038 56.6101C29.1276 56.5982 29.2186 56.6043 29.3057 56.628C29.3928 56.6517 29.4744 56.6926 29.5455 56.7482C29.6167 56.8038 29.6761 56.873 29.7201 56.9519L30.5918 58.5147C30.6117 58.5494 30.6408 58.5779 30.6758 58.5973C30.7108 58.6166 30.7505 58.6259 30.7905 58.6241C30.8304 58.6224 30.8692 58.6097 30.9024 58.5874C30.9356 58.5652 30.9621 58.5342 30.9789 58.4979L33.1408 53.6843C33.1635 53.6334 33.2032 53.592 33.253 53.567C33.3028 53.5421 33.3597 53.5352 33.4141 53.5474C33.4685 53.5597 33.5169 53.5904 33.5512 53.6343C33.5855 53.6782 33.6035 53.7327 33.6022 53.7884C33.5803 55.2609 33.1898 58.0597 30.837 60.4022C30.837 60.4022 29.5404 59.8986 28.4962 57.6068C28.4231 57.4464 28.4121 57.2646 28.4653 57.0966C28.5185 56.9286 28.6322 56.7863 28.7843 56.6973Z" fill="#FF4800"/><path opacity=".6" d="M37.5063 72.6866C37.6504 73.1721 38.1458 73.5084 38.7105 73.5037L84.6993 73.1554C85.2196 73.1511 85.6355 72.7683 85.6243 72.3073C85.6131 71.8575 85.2012 71.4975 84.6954 71.4954L38.7049 71.3096C37.8938 71.3061 37.2995 71.9908 37.5063 72.6866Z" fill="#fff"/><path opacity=".6" d="M37.2117 78.5918C37.3111 79.077 37.653 79.4137 38.0422 79.409L69.7725 79.0602C70.1316 79.0563 70.4175 78.6731 70.4107 78.2125C70.4029 77.7627 70.1187 77.4027 69.7699 77.4006L38.0387 77.2144C37.4788 77.2114 37.0707 77.8939 37.2117 78.5918Z" fill="#fff"/><path opacity=".6" d="M37.0071 84.6313C37.0651 85.1163 37.2651 85.4531 37.4918 85.4483L56.0052 85.0996C56.2146 85.0957 56.3823 84.7125 56.3776 84.2515C56.3733 83.8022 56.2056 83.4422 56.0039 83.4401L37.4896 83.2534C37.1628 83.2504 36.9237 83.9333 37.0071 84.6313Z" fill="#fff"/><path d="M33.1864 81.5408H33.1744L28.7547 81.4978C28.1234 81.4918 27.6022 81.0575 27.542 80.4876L27.1549 76.7793C27.1438 76.6707 27.155 76.5609 27.1878 76.4567C27.2205 76.3525 27.2742 76.2561 27.3454 76.1734C27.43 76.0753 27.5335 75.9953 27.6496 75.938C27.7657 75.8806 27.8922 75.8472 28.0215 75.8396C28.3939 75.8143 28.9181 75.7696 29.4733 75.7222C30.6422 75.6225 32.0967 75.4986 32.9138 75.4883C33.5077 75.4857 34.0117 75.8371 34.1515 76.354C34.382 77.2055 34.3618 78.8169 34.3179 80.5332C34.3041 81.0914 33.7975 81.5408 33.1864 81.5408ZM28.0434 76.1785C27.9595 76.1831 27.8773 76.2045 27.8018 76.2415C27.7263 76.2784 27.659 76.3301 27.6039 76.3936C27.5621 76.4414 27.5306 76.4973 27.5112 76.5578C27.4918 76.6183 27.485 76.6821 27.4912 76.7453L27.8783 80.4537C27.9213 80.8519 28.2976 81.1559 28.7569 81.1602L33.1765 81.2032H33.1851C33.6152 81.2032 33.9683 80.9022 33.9777 80.5268C34.0207 78.8362 34.0414 77.2519 33.8229 76.4447C33.7253 76.0831 33.3498 75.8315 32.9172 75.8302C32.1109 75.8401 30.6633 75.9635 29.4996 76.0624C28.9431 76.1097 28.4171 76.1544 28.0421 76.1803L28.0434 76.1785Z" fill="#fff"/><path opacity=".6" d="M28.5191 76.4162C29.4476 76.353 31.4654 76.1479 32.4223 76.1358C32.8279 76.1311 33.1835 76.3758 33.279 76.7276C33.4635 77.4105 33.439 78.7721 33.408 80.0283C33.3981 80.4046 33.0528 80.7052 32.6305 80.7014L29.0988 80.6674C28.6645 80.6631 28.3037 80.3663 28.2632 79.9793L27.9536 77.0179C27.92 76.7112 28.1746 76.4399 28.5191 76.4162Z" fill="#fff"/><path d="M28.707 77.1431C28.7849 77.0974 28.8712 77.0678 28.9607 77.0559C29.0502 77.044 29.1412 77.0501 29.2283 77.0738C29.3155 77.0975 29.397 77.1384 29.4682 77.194C29.5393 77.2496 29.5987 77.3188 29.6428 77.3977L30.5145 78.9605C30.5343 78.9953 30.5633 79.024 30.5983 79.0434C30.6334 79.0628 30.6731 79.0722 30.7131 79.0704C30.7532 79.0687 30.7919 79.056 30.8252 79.0336C30.8584 79.0112 30.8848 78.9801 30.9015 78.9437L33.0638 74.1301C33.0866 74.0792 33.1262 74.0378 33.176 74.0128C33.2259 73.9879 33.2828 73.981 33.3371 73.9932C33.3915 74.0055 33.4399 74.0362 33.4742 74.0801C33.5085 74.124 33.5266 74.1785 33.5253 74.2342C33.5033 75.7067 33.1124 78.5055 30.76 80.848C30.76 80.848 29.4634 80.3444 28.4193 78.0526C28.3461 77.8923 28.335 77.7105 28.3882 77.5425C28.4413 77.3745 28.5549 77.2322 28.707 77.1431Z" fill="#FF4800"/><path opacity=".6" d="M37.3777 94.4009C37.5213 94.886 38.0172 95.2223 38.5818 95.218L84.5702 94.8693C85.0905 94.8654 85.5068 94.4822 85.4952 94.0212C85.4845 93.5713 85.0725 93.2114 84.5667 93.2097L38.5758 93.0235C37.7647 93.02 37.1704 93.7025 37.3777 94.4009Z" fill="#fff"/><path opacity=".6" d="M37.0826 100.306C37.1819 100.791 37.5238 101.128 37.9134 101.123L69.6433 100.775C70.0023 100.771 70.2883 100.388 70.2815 99.9269C70.2741 99.4771 69.9899 99.1171 69.6407 99.1149L37.91 98.9287C37.3496 98.9257 36.9415 99.6082 37.0826 100.306Z" fill="#fff"/><path opacity=".6" d="M36.8875 106.345C36.9782 106.83 37.2904 107.167 37.6457 107.162L66.6017 106.813C66.929 106.809 67.1913 106.426 67.184 105.965C67.1771 105.516 66.9178 105.156 66.5991 105.153L37.6427 104.967C37.1313 104.964 36.7572 105.647 36.8875 106.345Z" fill="#fff"/><path d="M33.0574 103.256H33.0454L28.6257 103.213C27.9944 103.207 27.4732 102.772 27.4134 102.203L27.0263 98.4942C27.0154 98.3856 27.0267 98.2759 27.0594 98.1717C27.0922 98.0675 27.1457 97.9711 27.2168 97.8883C27.3016 97.7903 27.4051 97.7103 27.5213 97.653C27.6375 97.5957 27.764 97.5622 27.8933 97.5545C28.2653 97.5292 28.79 97.4845 29.3452 97.4371C30.5141 97.3374 31.9685 97.214 32.7856 97.2036C33.3795 97.2006 33.8831 97.552 34.0233 98.0693C34.2534 98.9204 34.2332 100.532 34.1893 102.248C34.1752 102.805 33.6685 103.256 33.0574 103.256ZM27.9144 97.8926C27.8305 97.8972 27.7483 97.9186 27.6729 97.9556C27.5974 97.9925 27.53 98.0442 27.4749 98.1076C27.4333 98.1556 27.4019 98.2115 27.3825 98.272C27.3632 98.3324 27.3562 98.3962 27.3622 98.4594L27.7492 102.168C27.7923 102.566 28.1686 102.87 28.6274 102.874L33.0471 102.917H33.0561C33.4841 102.917 33.8388 102.616 33.8483 102.241C33.8913 100.55 33.9124 98.9664 33.6939 98.1588C33.5959 97.7971 33.2209 97.5455 32.7882 97.5442C31.9819 97.5541 30.5339 97.6776 29.3706 97.7765C28.8115 97.8242 28.2881 97.8689 27.9127 97.8943L27.9144 97.8926Z" fill="#fff"/><path opacity=".6" d="M28.39 98.1306C29.3185 98.0674 31.3363 97.8623 32.2936 97.8507C32.6992 97.8455 33.0548 98.0906 33.1499 98.442C33.3348 99.1249 33.3103 100.486 33.2789 101.743C33.2694 102.119 32.9237 102.42 32.5018 102.416L28.9697 102.382C28.5354 102.377 28.175 102.081 28.1346 101.696L27.8245 98.7323C27.791 98.4257 28.046 98.1543 28.39 98.1306Z" fill="#fff"/><path d="M28.5784 98.8569C28.6563 98.8113 28.7426 98.7817 28.832 98.7698C28.9215 98.7579 29.0125 98.764 29.0996 98.7877C29.1867 98.8114 29.2682 98.8523 29.3393 98.9079C29.4104 98.9635 29.4698 99.0327 29.5138 99.1115L30.3855 100.676C30.4052 100.711 30.4343 100.74 30.4696 100.76C30.5049 100.779 30.5449 100.789 30.5853 100.787C30.6256 100.785 30.6647 100.773 30.6982 100.75C30.7316 100.727 30.7581 100.696 30.7747 100.659L32.9366 95.8452C32.9595 95.7945 32.9992 95.7533 33.049 95.7285C33.0988 95.7037 33.1556 95.6968 33.2099 95.709C33.2642 95.7213 33.3126 95.7518 33.3469 95.7956C33.3813 95.8394 33.3995 95.8937 33.3984 95.9493C33.3761 97.4218 32.9856 100.221 30.6328 102.564C30.6328 102.564 29.3366 102.06 28.2924 99.7682C28.2186 99.6079 28.207 99.4259 28.2599 99.2575C28.3127 99.0891 28.4263 98.9463 28.5784 98.8569Z" fill="#FF4800"/><path d="M58.5548 1.43577C56.3185 -0.121883 54.3695 -0.0909195 52.9994 0.313331C52.3933 0.493778 51.8686 0.878808 51.5146 1.4028C51.1606 1.9268 50.9993 2.55733 51.0581 3.18695L51.649 9.63775L58.6808 10.2618C58.6808 10.2618 62.9452 4.49001 58.5548 1.43577ZM55.4623 6.63942C55.1154 6.63942 54.7763 6.53655 54.4879 6.34383C54.1995 6.1511 53.9747 5.87718 53.842 5.55669C53.7093 5.23621 53.6746 4.88357 53.7423 4.54336C53.81 4.20315 53.977 3.89066 54.2224 3.64541C54.4677 3.40016 54.7802 3.23317 55.1204 3.16555C55.4606 3.09793 55.8133 3.13272 56.1337 3.26552C56.4542 3.39833 56.728 3.62318 56.9207 3.91164C57.1134 4.2001 57.2161 4.53921 57.2161 4.88609C57.2159 5.35114 57.0311 5.79711 56.7022 6.12591C56.3734 6.45471 55.9274 6.63942 55.4623 6.63942Z" fill="#0E0E2C"/><path d="M52.3513 6.92414C52.3091 6.9242 52.2683 6.90842 52.2371 6.87993C52.2059 6.85143 52.1865 6.81227 52.1828 6.77018L52.0886 5.74278C52.0864 5.69903 52.1013 5.65614 52.13 5.62306C52.1587 5.58999 52.1991 5.5693 52.2427 5.5653C52.2864 5.56131 52.3298 5.57432 52.3641 5.60162C52.3984 5.62892 52.4207 5.6684 52.4266 5.71182L52.5203 6.73922C52.5224 6.76138 52.5201 6.78374 52.5135 6.80502C52.5069 6.82629 52.4962 6.84606 52.482 6.86319C52.4678 6.88033 52.4504 6.89449 52.4307 6.90487C52.411 6.91526 52.3894 6.92166 52.3672 6.92371L52.3513 6.92414ZM52.1655 4.91106C52.1233 4.91102 52.0826 4.89521 52.0514 4.86673C52.0203 4.83825 52.0008 4.79915 51.997 4.7571L51.9256 3.97698C51.8706 3.3774 52.0247 2.77726 52.3617 2.27834C52.6988 1.77943 53.198 1.41246 53.7748 1.23969C54.6095 0.992247 55.4926 0.956042 56.3448 1.13433C56.3666 1.13879 56.3873 1.14751 56.4058 1.15998C56.4243 1.17246 56.4401 1.18844 56.4524 1.20703C56.4646 1.22562 56.4731 1.24645 56.4774 1.26832C56.4816 1.2902 56.4815 1.31269 56.477 1.33452C56.4726 1.35635 56.4638 1.37708 56.4514 1.39554C56.4389 1.414 56.4229 1.42982 56.4043 1.4421C56.3857 1.45438 56.3649 1.46288 56.343 1.46711C56.3212 1.47134 56.2987 1.47122 56.2768 1.46676C55.4783 1.29961 54.6508 1.33345 53.8685 1.56524C53.3669 1.71568 52.9328 2.03496 52.6397 2.46896C52.3467 2.90296 52.2127 3.42496 52.2606 3.94645L52.3324 4.72613C52.3359 4.77083 52.3218 4.81512 52.2931 4.84958C52.2645 4.88404 52.2235 4.90595 52.1789 4.91063L52.1655 4.91106Z" fill="#BFDBED"/><path d="M42.0515 13.805V10.5624C42.0514 10.2968 42.1047 10.0338 42.2084 9.78926C42.312 9.54468 42.4639 9.32348 42.6549 9.13886C42.8459 8.95424 43.0721 8.80998 43.3201 8.71469C43.568 8.61939 43.8327 8.57501 44.0981 8.58419L66.4571 9.35012C66.9359 9.3665 67.3914 9.56092 67.7346 9.89536C68.0777 10.2298 68.2837 10.6802 68.3123 11.1585L68.499 14.2781L42.0515 13.805Z" fill="#0E0E2C"/><path d="M50.3886 9.80535H49.427C49.404 9.80651 49.381 9.80298 49.3594 9.79498C49.3378 9.78697 49.318 9.77466 49.3014 9.7588C49.2847 9.74293 49.2714 9.72383 49.2623 9.70267C49.2532 9.68151 49.2485 9.65872 49.2485 9.63569C49.2485 9.61267 49.2532 9.58988 49.2623 9.56872C49.2714 9.54756 49.2847 9.52846 49.3014 9.51259C49.318 9.49672 49.3378 9.48441 49.3594 9.47641C49.381 9.46841 49.404 9.46488 49.427 9.46604H50.3886C50.4321 9.46823 50.4731 9.48706 50.5031 9.51864C50.5331 9.55021 50.5499 9.59212 50.5499 9.63569C50.5499 9.67927 50.5331 9.72118 50.5031 9.75275C50.4731 9.78433 50.4321 9.80316 50.3886 9.80535Z" fill="#BFDBED"/><path d="M43.2634 12.7875C43.2178 12.7875 43.174 12.7694 43.1418 12.7371C43.1095 12.7048 43.0914 12.6611 43.0914 12.6155V11.3055C43.0919 10.8182 43.2858 10.3509 43.6305 10.0063C43.9752 9.66174 44.4425 9.46796 44.9299 9.4675H48.4671C48.4901 9.46634 48.5131 9.46987 48.5347 9.47787C48.5563 9.48588 48.576 9.49819 48.5927 9.51406C48.6094 9.52992 48.6227 9.54902 48.6318 9.57018C48.6408 9.59134 48.6455 9.61413 48.6455 9.63716C48.6455 9.66018 48.6408 9.68297 48.6318 9.70413C48.6227 9.72529 48.6094 9.74439 48.5927 9.76026C48.576 9.77612 48.5563 9.78843 48.5347 9.79644C48.5131 9.80444 48.4901 9.80797 48.4671 9.80681H44.932C44.5346 9.80727 44.1536 9.9653 43.8726 10.2463C43.5916 10.5272 43.4334 10.9082 43.4328 11.3055V12.6176C43.4329 12.6399 43.4286 12.662 43.4201 12.6826C43.4116 12.7032 43.3991 12.7219 43.3834 12.7377C43.3676 12.7535 43.3489 12.766 43.3283 12.7746C43.3077 12.7831 43.2857 12.7875 43.2634 12.7875Z" fill="#BFDBED"/><path d="M32.9422 14.6249C32.9682 14.0843 33.2013 13.5745 33.5931 13.2011C33.9848 12.8277 34.5052 12.6193 35.0464 12.6191H74.1453C74.8263 12.6191 75.4854 12.8596 76.0064 13.2982C76.5273 13.7368 76.8766 14.3452 76.9927 15.0163L77.0258 15.2072C77.0875 15.5637 77.0706 15.9293 76.9762 16.2785C76.8818 16.6278 76.7122 16.9521 76.4792 17.2289C76.2463 17.5057 75.9556 17.7282 75.6276 17.8809C75.2997 18.0335 74.9423 18.1126 74.5805 18.1126H34.4667C34.2483 18.1124 34.0321 18.0679 33.8314 17.9817C33.6307 17.8955 33.4495 17.7695 33.299 17.6112C33.1484 17.4529 33.0315 17.2658 32.9554 17.061C32.8793 16.8562 32.8455 16.6381 32.8562 16.42L32.9422 14.6249Z" fill="#0071B6"/><path d="M96.6703 16.3767C85.9245 16.3767 75.4832 16.0069 65.7747 22.7092L67.5848 25.8486C73.4103 19.9522 86.6646 19.1419 96.0824 19.0469L96.6703 16.3767Z" fill="#0E0E2C"/><path d="M97.8155 22.1431H88.7844L77.1557 28.2068C76.3436 28.6566 75.6667 29.3156 75.1954 30.1155C74.7241 30.9153 74.4755 31.8267 74.4756 32.7551V112.949C74.4747 113.815 74.7433 114.66 75.2442 115.366C75.7451 116.072 76.4534 116.605 77.2709 116.891C88.0728 120.638 98.8745 120.62 109.676 116.836C110.447 116.566 111.114 116.063 111.587 115.397C112.059 114.731 112.313 113.935 112.313 113.119V32.7878C112.313 31.8507 112.061 30.9309 111.583 30.1249C111.105 29.319 110.418 28.6566 109.596 28.2073L97.8155 22.1431Z" fill="#FFA380"/><path d="M112.302 84.1278C98.956 88.3625 86.3395 88.393 74.4752 84.1278V50.0107C87.1979 53.2086 99.8068 53.2086 112.302 50.0107V84.1278Z" fill="#FF4800"/><path d="M111.877 92.4345C99.1254 96.3621 86.7192 96.4038 74.7206 92.4581C74.22 92.2934 73.8566 91.8621 73.8566 91.3353V88.3718C73.8566 88.0497 74.1577 87.7926 74.469 87.8816C86.8976 91.4566 99.3026 91.408 111.717 87.9482C112.19 87.8162 112.651 88.2123 112.651 88.7038V91.4273C112.652 91.8999 112.33 92.2951 111.877 92.4345Z" fill="#FF4800"/><path opacity=".75" d="M112.017 57.5039C99.2652 61.4317 86.8586 61.4734 74.8622 57.5276C74.3616 57.3629 73.9978 56.9315 73.9978 56.4047V53.4412C73.9978 53.1191 74.2988 52.8619 74.6102 52.9509C87.0388 56.526 99.4437 56.4774 111.858 53.0176C112.331 52.8856 112.792 53.2816 112.792 53.7732V56.4967C112.792 56.9694 112.468 57.365 112.017 57.5039Z" fill="#fff"/><path d="M43.0081 35.0585L65.1988 23.2798L67.848 26.4402L49.1639 43.104C48.7183 43.5258 47.9765 43.4837 47.38 42.9917C44.7356 40.8092 43.3538 38.6017 42.6494 36.3805C42.4748 35.8322 42.6184 35.3071 43.0081 35.0585Z" fill="#0E0E2C"/><path d="M89.18 16.29L85.1067 16.0658C85.0145 16.0608 84.9356 16.1314 84.9305 16.2237L84.7481 19.5374C84.7431 19.6296 84.8137 19.7085 84.906 19.7136L88.9792 19.9378C89.0715 19.9428 89.1504 19.8722 89.1554 19.7799L89.3378 16.4662C89.3429 16.374 89.2722 16.2951 89.18 16.29Z" fill="#FF4800"/><path d="M97.8158 15.1079H88.7838V22.1432H97.8158V15.1079Z" fill="#FF4800"/><path d="M90.3544 13.057C100.645 18.8365 110.441 24.0247 118.364 26.9645C118.851 27.1452 119.228 26.5315 118.837 26.1904C112.707 20.8238 104.511 15.5204 95.1185 10.2539L90.3544 13.057Z" fill="#FF4800"/><path d="M88.8166 9.90637C83.9862 12.288 86.5984 19.3108 91.6201 17.4426C101.415 11.9341 110.576 6.33133 118.782 0.584525C119.103 0.360037 118.891 -0.0833481 118.508 0.0116938C108.4 2.52106 98.5156 5.86773 88.8166 9.90637Z" fill="#FF4800"/><path d="M90.3523 24.7104C92.0325 24.7104 93.3945 23.3484 93.3945 21.6682C93.3945 19.988 92.0325 18.626 90.3523 18.626C88.6722 18.626 87.3101 19.988 87.3101 21.6682C87.3101 23.3484 88.6722 24.7104 90.3523 24.7104Z" fill="#FF4800"/><path d="M91.7928 23.1069C92.588 22.3117 92.5881 21.0223 91.7928 20.2271C90.9976 19.4319 89.7083 19.4319 88.9131 20.2271C88.1179 21.0223 88.1179 22.3117 88.9131 23.1069C89.7083 23.9021 90.9976 23.9021 91.7928 23.1069Z" fill="#fff"/><path d="M66.2309 22.5866C66.661 23.8161 67.3813 24.8302 68.3954 25.6215C68.4506 25.6643 68.4968 25.7177 68.5312 25.7786C68.5655 25.8394 68.5873 25.9066 68.5953 25.976C68.6034 26.0455 68.5974 26.1158 68.5778 26.1829C68.5583 26.25 68.5255 26.3125 68.4814 26.3668C68.0268 26.9198 67.4428 27.4419 66.7182 27.9253C66.5702 28.0236 66.3962 28.0753 66.2185 28.074C66.0409 28.0726 65.8677 28.0181 65.7213 27.9176C64.4195 27.0282 63.4717 25.9514 62.99 24.6285C62.9386 24.4856 62.9334 24.3301 62.9749 24.184C63.0165 24.0379 63.1029 23.9085 63.2218 23.814C64.0247 23.1766 64.8285 22.646 65.6331 22.3196C65.6898 22.2963 65.7505 22.2848 65.8118 22.2857C65.873 22.2866 65.9334 22.3 65.9893 22.325C66.0452 22.3499 66.0954 22.386 66.1369 22.431C66.1785 22.476 66.2105 22.5289 66.2309 22.5866Z" fill="#FF4800"/><path opacity=".74" d="M87.2429 25.4063L82.4559 28.0098L82.5883 28.2531L87.3753 25.6496L87.2429 25.4063Z" fill="#fff"/><path opacity=".74" d="M76.7896 37.3072H76.5126V33.5442C76.5123 32.8493 76.6995 32.1672 77.0546 31.5698C77.4096 30.9724 77.9194 30.482 78.53 30.1502L81.0841 28.7607L81.2162 29.0042L78.6621 30.3937C78.0953 30.7017 77.6223 31.157 77.2927 31.7115C76.9632 32.266 76.7893 32.8992 76.7896 33.5442V37.3072Z" fill="#fff"/><path opacity=".74" d="M76.7896 39.0825H76.5126V46.4472H76.7896V39.0825Z" fill="#fff"/><path d="M90.6051 14.9089C91.3115 14.8252 91.8162 14.1847 91.7325 13.4783C91.6488 12.7719 91.0082 12.2671 90.3019 12.3508C89.5955 12.4346 89.0907 13.0751 89.1744 13.7815C89.2582 14.4879 89.8987 14.9927 90.6051 14.9089Z" fill="#FFA380"/><path opacity=".74" d="M88.5103 10.9663L88.408 10.7083C98.6747 6.62751 105.431 4.28673 114.228 1.76318L114.305 2.02939C105.518 4.55251 98.7676 6.89113 88.5103 10.9663Z" fill="#fff"/><path opacity=".75" d="M79.5446 61.8926C87.7888 64.396 96.9881 64.602 107.412 61.8638C107.602 61.8134 107.801 61.8072 107.993 61.8458C108.186 61.8843 108.367 61.9666 108.523 62.0862C108.679 62.2058 108.805 62.3596 108.892 62.5358C108.979 62.7119 109.024 62.9056 109.024 63.102V80.7545C109.024 81.294 108.833 81.8161 108.485 82.228C108.136 82.6398 107.653 82.9147 107.121 83.0037C96.9751 84.6866 87.7201 84.4521 79.3558 82.3001C78.9899 82.2068 78.6655 81.9944 78.4337 81.6963C78.2019 81.3982 78.0759 81.0314 78.0756 80.6538V62.9871C78.0752 62.8091 78.1165 62.6334 78.1963 62.4742C78.276 62.3149 78.3919 62.1766 78.5347 62.0702C78.6775 61.9638 78.8432 61.8924 79.0186 61.8615C79.194 61.8307 79.3741 61.8413 79.5446 61.8926Z" fill="#fff"/><path d="M69.7676 115.813C69.7676 115.813 70.0175 117.228 70.1396 118.628C70.1507 118.757 70.1353 118.888 70.0944 119.012C70.0535 119.135 69.988 119.25 69.9017 119.347C69.8155 119.445 69.7104 119.524 69.5928 119.58C69.4751 119.636 69.3473 119.667 69.2172 119.672C67.3529 119.75 63.3656 119.901 61.9348 119.837C61.8849 119.835 61.8362 119.821 61.793 119.796C61.7497 119.771 61.7131 119.736 61.686 119.693C61.659 119.651 61.6425 119.603 61.6377 119.554C61.633 119.504 61.6402 119.454 61.6587 119.407C61.7253 119.24 61.8541 119.104 62.0182 119.029L68.6044 116.002L69.7676 115.813Z" fill="#0071B6"/><path d="M69.9725 114.982L69.7717 116.674C69.7717 116.674 68.6178 117.211 67.83 116.606L68.3077 114.721L69.9725 114.982Z" fill="#FF7640"/><path d="M69.8213 83.182C69.9074 83.64 70.1387 106.056 67.8297 116.092C67.7919 116.256 67.5532 116.578 67.6358 116.718C67.8358 117.062 69.313 116.965 70.1435 116.994C70.4015 117.003 70.5395 116.701 70.6122 116.444C71.2724 114.116 74.435 102.448 74.8475 91.3031C75.3085 78.8497 74.8475 90.8791 74.8475 90.8791L74.5769 83.1812L69.8213 83.182Z" fill="#0E0E2C"/><path d="M77.3444 116.551C77.3444 116.551 77.7422 117.265 78.1271 119.162C78.1437 119.243 78.1433 119.326 78.1258 119.406C78.1083 119.487 78.0742 119.563 78.0256 119.629C77.9769 119.696 77.9149 119.751 77.8435 119.792C77.7721 119.833 77.6929 119.859 77.611 119.867C76.9952 119.927 76.0477 120.005 75.2887 120C75.2061 120 75.1244 119.982 75.0491 119.948C74.9738 119.914 74.9065 119.865 74.8516 119.803C74.7968 119.741 74.7556 119.668 74.7308 119.589C74.706 119.511 74.6981 119.427 74.7077 119.345C74.7937 118.653 75.0517 117.517 75.8628 116.632L77.3444 116.551Z" fill="#0071B6"/><path d="M77.6936 114.375L77.2248 116.931C77.2248 116.931 76.7608 117.275 75.8439 117.026L76.0676 114.274L77.6936 114.375Z" fill="#FF7640"/><path d="M78.9604 83.898C80.8488 95.7941 78.5506 113.3 77.7757 116.726C77.7545 116.827 77.704 116.92 77.6304 116.992C77.5569 117.064 77.4636 117.113 77.3624 117.132C77.0162 117.192 76.4468 117.241 75.8852 117.071C75.7891 117.04 75.7051 116.98 75.6447 116.899C75.5843 116.818 75.5505 116.721 75.548 116.62C75.4439 113.849 75.631 96.8439 73.8708 90.123C73.7839 89.7863 73.5849 89.4893 73.3066 89.2809L69.8915 86.7466L69.6296 82.6504L78.9604 83.898Z" fill="#0E0E2C"/><path d="M66.9272 62.2498C72.5867 62.1564 78.8311 63.736 78.8311 63.736C80.5177 73.5791 79.1257 84.9321 79.1257 84.9321C74.7447 86.0812 69.8021 84.2298 69.8021 84.2298C69.074 80.1155 65.6766 68.5371 65.6766 68.5371C62.9114 68.1931 60.6334 67.3962 58.7579 66.3413C60.1887 64.6826 60.8652 62.5723 61.1563 61.3247C63.1569 61.9466 65.1816 62.2786 66.9272 62.2498Z" fill="#0E0E2C"/><path d="M50.2106 53.9147C50.7667 53.2434 51.4703 53.5608 51.4703 53.5608C52.3033 57.0791 56.6701 59.9312 61.1565 61.3255C60.8632 62.5726 60.1889 64.6834 58.7581 66.3421C51.3124 62.1559 50.2106 53.9147 50.2106 53.9147Z" fill="#FF7640"/><path d="M50.3455 54.0849C50.2875 54.2698 50.9609 54.5515 51.3579 53.7951C51.3716 53.4325 51.5918 51.8796 51.3755 51.5846C50.2217 50.0119 47.9854 48.04 47.9854 48.04C47.6074 48.4133 47.9187 48.7793 47.9187 48.7793L49.0038 49.9099C48.7767 50.3198 48.4997 50.666 48.3703 51.1623C48.2754 51.5406 48.3296 51.9409 48.5217 52.2804C48.7122 52.6244 48.9719 53.0696 49.2175 53.4183C49.6824 54.0802 50.3455 54.0849 50.3455 54.0849Z" fill="#FF7640"/><path d="M49.4782 50.644L50.4673 51.4822L50.7778 52.317L49.8962 53.2949C49.8962 53.2949 49.5999 51.6388 49.3802 51.2805C49.1604 50.9223 49.2731 50.749 49.4782 50.644Z" fill="#FF7640"/><path d="M76.6602 69.2166L78.831 63.7368C78.831 63.7368 84.1168 67.3282 84.9863 71.8821C83.9873 71.9557 82.1699 72.2154 80.3908 73.1138C79.9999 70.9635 76.6602 69.2166 76.6602 69.2166Z" fill="#0E0E2C"/><path d="M72.041 74.3727C72.041 74.3727 77.9757 77.7271 79.9785 74.8625C80.3939 74.2682 80.4945 73.6769 80.3909 73.1135C82.17 72.2151 83.9874 71.9554 84.9865 71.8818C85.2484 73.2546 85.1099 74.715 84.3031 76.1905C80.7956 82.6073 71.2552 75.8361 71.2552 75.8361L72.041 74.3727Z" fill="#FF7640"/><path d="M72.754 78.6159L69.5148 67.3054C69.4969 67.2427 69.4609 67.1867 69.4112 67.1445C69.3616 67.1022 69.3005 67.0756 69.2357 67.068C68.6491 66.9997 66.9483 66.8074 64.9851 66.6414C62.6198 66.441 59.8735 66.2793 58.2333 66.4169C58.1794 66.4213 58.1274 66.4387 58.0818 66.4678C58.0363 66.4968 57.9985 66.5365 57.9718 66.5835C57.9451 66.6305 57.9304 66.6834 57.9288 66.7374C57.9272 66.7914 57.9389 66.845 57.9628 66.8934C58.896 68.7814 62.7364 76.4617 64.6574 78.978C64.6889 79.0187 64.7294 79.0516 64.7757 79.074C64.8221 79.0964 64.873 79.1077 64.9245 79.107L72.4396 79.0369C72.4904 79.0363 72.5404 79.024 72.5857 79.001C72.6311 78.978 72.6704 78.9448 72.7008 78.9041C72.7313 78.8633 72.7519 78.8162 72.7611 78.7662C72.7703 78.7162 72.7679 78.6648 72.754 78.6159Z" fill="#FFA380"/><path d="M64.6491 65.6597L62.3006 65.2684C62.272 65.2636 62.2426 65.2664 62.2153 65.2763C62.1881 65.2863 62.1639 65.3031 62.145 65.3251C62.1261 65.3472 62.1133 65.3738 62.1077 65.4022C62.1021 65.4307 62.104 65.4601 62.1131 65.4877L62.3453 66.1921C62.3552 66.2221 62.3733 66.2487 62.3977 66.2689C62.422 66.2891 62.4516 66.3019 62.4829 66.306L64.7428 66.607C64.7699 66.6107 64.7974 66.6077 64.823 66.5983C64.8486 66.589 64.8716 66.5736 64.8899 66.5534C64.9083 66.5332 64.9215 66.5089 64.9284 66.4825C64.9352 66.4561 64.9356 66.4285 64.9295 66.4019L64.7854 65.7865C64.7777 65.7543 64.7607 65.7251 64.7364 65.7025C64.7121 65.68 64.6818 65.6651 64.6491 65.6597Z" fill="#0071B6"/><path d="M66.4077 67.6476L66.2142 66.64C66.2048 66.5908 66.1798 66.5459 66.1428 66.512C66.1058 66.4781 66.0589 66.4571 66.0091 66.4521L61.2654 65.9704C61.2284 65.9667 61.191 65.9718 61.1564 65.9854C61.1218 65.9991 61.091 66.0208 61.0665 66.0488C61.042 66.0768 61.0246 66.1103 61.0157 66.1464C61.0069 66.1825 61.0068 66.2203 61.0155 66.2564L61.3166 67.5121C61.3283 67.5611 61.3556 67.605 61.3944 67.6371C61.4331 67.6693 61.4813 67.6881 61.5316 67.6906L66.1669 67.9237C66.2021 67.9254 66.2373 67.9192 66.2698 67.9054C66.3022 67.8916 66.3312 67.8707 66.3544 67.8441C66.3775 67.8175 66.3944 67.786 66.4036 67.752C66.4129 67.7179 66.4143 67.6822 66.4077 67.6476Z" fill="#0071B6"/><path d="M71.9715 75.8827C71.9715 75.8827 72.4226 74.0275 72.2407 73.3691C72.0588 72.7107 71.7061 71.8639 70.5308 72.0527C69.3554 72.2415 67.9684 72.7361 67.9684 72.7361C67.9684 72.7361 68.0385 73.5936 68.9318 73.3166L68.3779 73.7467C68.3779 73.7467 68.457 74.4347 69.2118 74.0666L68.6957 74.6347C68.6957 74.6347 69.0195 75.1985 69.5747 74.8373C70.1299 74.476 70.397 76.1063 71.9715 75.8827Z" fill="#FF7640"/><path d="M72.6599 57.6562L74.4606 62.8638C74.4752 62.9055 74.4745 62.951 74.4588 62.9924C74.443 63.0337 74.4132 63.0681 74.3746 63.0895C73.8839 63.3609 72.1151 64.1453 69.9841 62.7945C69.8741 62.7256 69.7807 62.6333 69.7104 62.5242C69.6401 62.4151 69.5946 62.2918 69.5773 62.1632L68.9941 57.6562H72.6599Z" fill="#FF7640"/><path d="M68.7418 52.834C68.7418 52.834 66.7636 56.5561 67.0177 58.0596C67.2719 59.563 69.7219 59.4551 71.8618 58.2342L73.3571 54.2149L68.7418 52.834Z" fill="#FF7640"/><path d="M71.7671 56.2604C71.7466 56.2515 71.7284 56.2382 71.7136 56.2215C71.6988 56.2048 71.6879 56.185 71.6816 56.1636C71.6752 56.1423 71.6736 56.1197 71.6769 56.0977C71.6801 56.0756 71.6882 56.0545 71.7004 56.0359C71.8587 55.7938 72.1554 55.3001 72.2505 54.8679C72.2505 54.8679 72.6057 54.6404 71.3474 54.3385C70.6593 54.1742 69.4448 54.0374 68.9102 53.545C68.3116 52.9928 69.4147 51.9499 69.8787 51.67C70.4907 51.3006 71.236 51.0817 71.9262 51.2679C72.2595 51.3578 72.561 51.5358 72.8577 51.7121C73.363 52.0132 73.886 52.3284 74.2077 52.8204C74.4154 53.1386 74.5246 53.5085 74.6244 53.8774C74.7676 54.4047 74.8992 54.9448 74.8742 55.491C74.8076 56.9454 73.1028 58.2485 71.7323 58.4081C71.7063 58.4108 71.6801 58.407 71.6561 58.3969C71.632 58.3868 71.6109 58.3708 71.5947 58.3504C71.5785 58.33 71.5677 58.3058 71.5633 58.2801C71.559 58.2544 71.5611 58.228 71.5697 58.2034L72.1288 56.5747C72.1414 56.5382 72.1398 56.4983 72.1245 56.4629C72.1091 56.4275 72.081 56.3991 72.0458 56.3834L71.7671 56.2604Z" fill="#0E0E2C"/><path d="M71.5417 56.4911C71.5417 56.4911 72.9496 55.5252 73.0524 56.3384C73.1552 57.1516 71.7846 57.5167 71.106 57.2135L71.5417 56.4911Z" fill="#FF7640"/><path d="M68.4299 52.9946C71.0829 47.9832 77.9594 52.5357 74.759 56.7575C72.3782 55.1758 69.6912 52.8234 68.4299 52.9946Z" fill="#0E0E2C"/><path d="M68.6031 52.4552C63.2395 52.1821 67.657 54.1706 72.5394 55.2324C71.3237 53.9414 70.1079 52.9794 68.6031 52.4552Z" fill="#0E0E2C"/><path d="M73.3372 69.4312C73.7527 69.4647 77.2654 69.5774 77.2654 69.5774L77.1234 73.1137L75.3026 74.1415L73.3359 73.115L73.3372 69.4312Z" fill="#0E0E2C"/><path d="M73.058 69.4312L77.2571 69.5774L77.4287 70.9342L75.2436 71.5019L72.9204 70.4667L73.058 69.4312Z" fill="#0E0E2C"/><path d="M69.7 83.6885C72.0794 84.5435 75.4286 84.5439 79.2095 84.1616L79.1764 85.3065C75.177 85.7254 71.6992 85.7856 69.7731 84.7822L69.7 83.6885Z" fill="#0E0E2C"/><path d="M75.0352 83.8355L79.1362 83.5904C79.2306 83.5847 79.3234 83.6168 79.3941 83.6796C79.4648 83.7423 79.5077 83.8306 79.5134 83.925L79.6179 85.6744C79.6193 85.6979 79.6161 85.7215 79.6084 85.7439C79.6006 85.7662 79.5886 85.7867 79.5729 85.8044C79.5573 85.8221 79.5383 85.8365 79.517 85.8468C79.4958 85.8571 79.4728 85.8631 79.4492 85.8645L75.1717 86.1202C75.1481 86.1216 75.1245 86.1183 75.1022 86.1106C75.0799 86.1029 75.0593 86.0909 75.0417 86.0752C75.024 86.0595 75.0096 86.0405 74.9993 86.0193C74.989 85.9981 74.9829 85.975 74.9815 85.9514L74.8664 84.0256C74.865 84.0021 74.8683 83.9785 74.876 83.9561C74.8837 83.9338 74.8957 83.9133 74.9114 83.8956C74.9271 83.8779 74.9461 83.8635 74.9673 83.8532C74.9885 83.8429 75.0116 83.8369 75.0352 83.8355Z" fill="#0E0E2C"/><path d="M81.2644 71.3873C82.3949 71.2573 83.206 70.2355 83.0759 69.105C82.9459 67.9745 81.9241 67.1634 80.7936 67.2934C79.6631 67.4234 78.852 68.4453 78.982 69.5758C79.112 70.7063 80.1339 71.5173 81.2644 71.3873Z" fill="#fff"/><path d="M81.7963 70.6607C82.5386 70.1485 82.6994 69.6355 82.4139 69.1211C82.4569 69.3396 82.3614 69.475 82.1735 69.5568C82.2677 69.1478 82.2328 68.8313 82.075 68.6025L82.0419 68.6674C81.9758 68.5272 81.9353 68.3763 81.9223 68.2219C81.6935 68.3199 81.5636 68.5104 81.4677 68.7324C81.4222 68.3638 80.4786 68.2382 80.8876 67.6572C80.6029 67.7518 80.356 67.9785 80.1333 68.2924L80.1544 68.1333C79.9084 68.4421 79.9733 68.8261 80.1857 69.2458C79.9565 69.3701 79.8232 69.2686 79.7505 69.0231C79.6439 69.1951 79.652 69.3843 79.7583 69.5942L79.6508 69.5512C79.7548 69.9193 80.0322 70.1743 80.4008 70.3081C80.2537 70.4422 80.0817 70.3988 79.9514 70.2814C80.2047 70.9071 80.7951 71.0318 81.6548 70.7544L81.666 70.7476L81.6501 70.7549C81.3568 70.8706 80.5715 70.6001 80.4175 69.786C80.5276 69.9455 80.6124 69.8651 80.7913 69.9877C80.5139 69.2566 81.0033 69.0945 80.7655 68.7668C81.1499 69.0317 81.4222 69.2497 81.4914 69.6333C81.5344 69.2764 81.7524 69.3607 81.7688 69.134C82.0832 69.709 82.124 70.3691 81.7963 70.6607Z" fill="#FF4800"/><path d="M81.6749 67.3045L80.3099 71.4058L80.5176 71.4749L81.8826 67.3737L81.6749 67.3045Z" fill="#0071B6"/><path d="M81.904 71.4013C81.4961 71.5817 81.044 71.6371 80.6047 71.5605C80.1654 71.4839 79.7586 71.2788 79.4359 70.971C79.1132 70.6633 78.8889 70.2667 78.7916 69.8315C78.6942 69.3964 78.7281 68.9421 78.8889 68.5261C79.0497 68.1102 79.3303 67.7513 79.6951 67.4948C80.0598 67.2383 80.4925 67.0957 80.9383 67.0851C81.3841 67.0745 81.8231 67.1963 82.1997 67.4352C82.5762 67.6741 82.8735 68.0192 83.0539 68.4271C83.2953 68.974 83.3097 69.5944 83.0941 70.1521C82.8785 70.7097 82.4505 71.159 81.904 71.4013ZM80.1679 67.4754C79.7997 67.6383 79.488 67.9067 79.2724 68.2467C79.0567 68.5867 78.9467 68.983 78.9563 69.3855C78.9658 69.7881 79.0945 70.1787 79.3261 70.5081C79.5577 70.8375 79.8817 71.0908 80.2572 71.236C80.6328 71.3812 81.0429 71.4119 81.4359 71.324C81.8288 71.2361 82.1868 71.0337 82.4647 70.7423C82.7426 70.451 82.9279 70.0837 82.9971 69.6871C83.0663 69.2905 83.0163 68.8822 82.8535 68.5139C82.6346 68.0205 82.2289 67.634 81.7254 67.4393C81.222 67.2446 80.6618 67.2576 80.1679 67.4754Z" fill="#0071B6"/></g><defs><clipPath id="a"><path fill="#fff" d="M0 0H119V120H0z"/></clipPath></defs></svg>
