<svg width="32" height="32" viewBox="0 0 32 32" fill="none" xmlns="http://www.w3.org/2000/svg"><g clip-path="url(#a)" fill="#DBD9DC"><path d="M16 21.7C15.7146 21.7 15.4839 21.469 15.4839 21.1838V17.5708C15.4839 17.2856 15.7148 17.0547 16 17.0547C16.2852 17.0547 16.5161 17.2856 16.5161 17.5708V21.1838C16.5161 21.469 16.2854 21.7 16 21.7Z"/><path d="M9.0128 21.5407C8.85802 21.5407 8.70518 21.4716 8.60338 21.3395L5.88219 17.8109C5.70836 17.5851 5.75011 17.2609 5.97594 17.087C6.20177 16.9122 6.52574 16.9555 6.69981 17.1808L9.42101 20.7096C9.59483 20.9354 9.55309 21.2594 9.32726 21.4332C9.23351 21.506 9.12267 21.5407 9.0128 21.5407Z"/><path d="M12.6379 21.8099C12.4333 21.8099 12.2392 21.6874 12.1584 21.4852L10.6252 17.6527C10.5192 17.388 10.6484 17.0875 10.913 16.9818C11.1752 16.8763 11.4775 17.004 11.5839 17.2696L13.1171 21.1022C13.2231 21.3668 13.0939 21.6673 12.8293 21.7731C12.7668 21.7982 12.7018 21.8099 12.6379 21.8099Z"/><path d="M22.9873 21.541C22.8774 21.541 22.7666 21.5063 22.6728 21.4336C22.447 21.2598 22.4053 20.9358 22.5791 20.71L25.3003 17.1812C25.4748 16.9553 25.7983 16.9121 26.0242 17.0874C26.25 17.2612 26.2917 17.5854 26.1179 17.8113L23.3967 21.3398C23.2949 21.4722 23.1421 21.541 22.9873 21.541Z"/><path d="M19.3622 21.8098C19.2983 21.8098 19.2333 21.7981 19.1708 21.7729C18.9062 21.667 18.777 21.3667 18.883 21.102L20.4162 17.2692C20.5222 17.0036 20.8249 16.8757 21.0871 16.9814C21.3517 17.0874 21.4806 17.3877 21.3749 17.6523L19.8417 21.4851C19.7609 21.6872 19.5671 21.8098 19.3622 21.8098Z"/><path d="M2.06458 14.4736V17.0542C2.06458 17.6243 2.52673 18.0864 3.0968 18.0864H28.9032C29.4733 18.0864 29.9357 17.6243 29.9357 17.0542V14.4736H2.06458Z"/><path d="M10.3226 16.5381H29.9357V14.4736H2.06458V17.0542C2.06458 17.6243 2.52673 18.0864 3.0968 18.0864H9.29041V17.5703C9.29041 17.0002 9.75256 16.5381 10.3226 16.5381Z"/><path d="M31.4839 9.3125H0.516113C0.230957 9.3125 0 9.54346 0 9.82861V14.4739C0 15.0439 0.462158 15.5061 1.03223 15.5061H30.9678C31.5378 15.5061 32 15.0439 32 14.4739V9.82861C32 9.54346 31.769 9.3125 31.4839 9.3125Z"/><path d="M7.74194 12.4094V9.3125H0.516113C0.230957 9.3125 0 9.5437 0 9.82861V14.4739C0 15.0439 0.462158 15.5061 1.03223 15.5061H30.9678C31.5378 15.5061 32 15.0439 32 14.4739H9.8064C8.66626 14.4739 7.74194 13.5496 7.74194 12.4094Z"/><path d="M22.7097 22.7319H9.29028C8.72021 22.7319 8.25806 22.2698 8.25806 21.6997C8.25806 21.1294 8.72021 20.6675 9.29028 20.6675H22.7097C23.2798 20.6675 23.7419 21.1296 23.7419 21.6997C23.7419 22.2698 23.2798 22.7319 22.7097 22.7319Z"/><path d="M12.9431 20.6675H9.29028C8.72021 20.6675 8.25806 21.1294 8.25806 21.6997C8.25806 22.2698 8.72021 22.7319 9.29028 22.7319H22.7097C23.2798 22.7319 23.7419 22.2698 23.7419 21.6997H13.9753C13.4053 21.6997 12.9431 21.2375 12.9431 20.6675Z"/></g><defs><clipPath id="a"><path fill="#fff" d="M0 0H32V32H0z"/></clipPath></defs></svg>
