<svg width="32" height="32" viewBox="0 0 32 32" fill="none" xmlns="http://www.w3.org/2000/svg"><g clip-path="url(#a)" fill="#FF4800"><path d="M16 8.048V3.33344C16 2.22891 15.1046 1.3335 14.0001 1.3335H12.6668C12.4145 1.3335 12.1838 1.47593 12.0708 1.70149L9.4042 7.03465C9.35807 7.12746 9.33388 7.22965 9.33351 7.33333V8.048C7.03763 8.37937 5.33368 10.3469 5.33362 12.6666V29.9994C5.33362 31.1039 6.22903 31.9993 7.33356 31.9993H18C19.1045 31.9993 19.9999 31.1039 19.9999 29.9994V12.6666C19.9998 10.3469 18.2959 8.37937 16 8.048Z"/><path d="M5.89964 9.43455C5.53146 9.43455 5.23297 9.13606 5.23303 8.76788C5.23303 8.66419 5.25722 8.56195 5.30366 8.46926C6.17601 6.93418 7.45366 5.66853 8.99687 4.81067C9.34111 4.67999 9.72616 4.85311 9.85684 5.19735C9.98753 5.54159 9.81441 5.92664 9.47017 6.05733C8.24239 6.79456 7.21985 7.82897 6.49694 9.06525C6.38413 9.29168 6.15269 9.4348 5.89964 9.43455Z"/><path d="M12.733 10.2671C10.8001 10.2671 9.23303 9.20369 9.23303 7.89203V3.14214C9.23303 1.83049 10.8001 0.76709 12.733 0.76709C14.666 0.76709 16.233 1.83049 16.233 3.14214V7.89203C16.233 9.20369 14.666 10.2671 12.733 10.2671Z"/><path d="M18.0004 5.33432H15.3338C14.9656 5.33432 14.6671 5.03582 14.6671 4.66765C14.6671 4.29947 14.9656 4.00098 15.3338 4.00098H18.0004C18.3686 4.00098 18.6671 4.29947 18.6671 4.66765C18.6671 5.03582 18.3686 5.33432 18.0004 5.33432Z"/><path d="M29.077 0.1422C28.9159 0.0143283 28.7042 -0.030608 28.5051 0.0208906L17.8387 2.68751C17.5418 2.76157 17.3334 3.02818 17.3334 3.33418V6.00079C17.3334 6.30678 17.5418 6.5734 17.8387 6.64746L28.5051 9.31407C28.5578 9.32745 28.612 9.33414 28.6664 9.33407C29.0346 9.33407 29.333 9.03558 29.333 8.66741V0.667623C29.3331 0.462379 29.2387 0.268634 29.077 0.1422Z"/></g><defs><clipPath id="a"><path fill="#fff" d="M0 0H32V32H0z"/></clipPath></defs></svg>
