<svg width="49" height="49" viewBox="0 0 49 49" fill="none" xmlns="http://www.w3.org/2000/svg"><path d="M24.5 41.7266C34.014 41.7266 41.7266 34.014 41.7266 24.5C41.7266 14.986 34.014 7.27344 24.5 7.27344C14.986 7.27344 7.27344 14.986 7.27344 24.5C7.27344 34.014 14.986 41.7266 24.5 41.7266Z" fill="#0071B6"/><path d="M24.5 38.2722C32.1061 38.2722 38.2721 32.1062 38.2721 24.5001C38.2721 16.894 32.1061 10.728 24.5 10.728C16.8939 10.728 10.728 16.894 10.728 24.5001C10.728 32.1062 16.8939 38.2722 24.5 38.2722Z" fill="#fff"/><path d="M24.5 25.17C24.5923 25.1701 24.6835 25.1511 24.768 25.1141L32.9269 21.562C33.0898 21.4909 33.2178 21.358 33.2827 21.1926C33.3476 21.0271 33.3442 20.8427 33.2731 20.6798C33.202 20.5169 33.0692 20.3889 32.9037 20.3239C32.7383 20.259 32.5538 20.2625 32.3909 20.3335L24.6769 23.6923L18.006 16.2275C17.8876 16.095 17.7214 16.0149 17.544 16.005C17.3666 15.995 17.1926 16.0559 17.0601 16.1743C16.9276 16.2926 16.8475 16.4588 16.8375 16.6362C16.8276 16.8136 16.8885 16.9877 17.0068 17.1202L24.0024 24.9464C24.065 25.0165 24.1417 25.0726 24.2274 25.1111C24.3132 25.1496 24.406 25.1697 24.5 25.17Z" fill="#FF4800"/><path d="M25.1699 12.9927V10.728C25.1699 10.5504 25.0993 10.38 24.9737 10.2543C24.8481 10.1287 24.6777 10.0581 24.5 10.0581C24.3223 10.0581 24.1519 10.1287 24.0263 10.2543C23.9007 10.38 23.8301 10.5504 23.8301 10.728V12.9927C23.8301 13.1704 23.9007 13.3408 24.0263 13.4664C24.1519 13.5921 24.3223 13.6627 24.5 13.6627C24.6777 13.6627 24.8481 13.5921 24.9737 13.4664C25.0993 13.3408 25.1699 13.1704 25.1699 12.9927Z" fill="#FF4800"/><path d="M25.1699 38.272V36.0073C25.1699 35.8296 25.0993 35.6593 24.9737 35.5336C24.8481 35.408 24.6777 35.3374 24.5 35.3374C24.3223 35.3374 24.1519 35.408 24.0263 35.5336C23.9007 35.6593 23.8301 35.8296 23.8301 36.0073V38.272C23.8301 38.4497 23.9007 38.6201 24.0263 38.7457C24.1519 38.8714 24.3223 38.942 24.5 38.942C24.6777 38.942 24.8481 38.8714 24.9737 38.7457C25.0993 38.6201 25.1699 38.4497 25.1699 38.272Z" fill="#FF4800"/><path d="M38.272 25.1699C38.4497 25.1699 38.6201 25.0993 38.7457 24.9737C38.8714 24.8481 38.942 24.6777 38.942 24.5C38.942 24.3223 38.8714 24.1519 38.7457 24.0263C38.6201 23.9007 38.4497 23.8301 38.272 23.8301H36.0073C35.8296 23.8301 35.6593 23.9007 35.5336 24.0263C35.408 24.1519 35.3374 24.3223 35.3374 24.5C35.3374 24.6777 35.408 24.8481 35.5336 24.9737C35.6593 25.0993 35.8296 25.1699 36.0073 25.1699H38.272Z" fill="#FF4800"/><path d="M12.9927 25.1699C13.1704 25.1699 13.3408 25.0993 13.4664 24.9737C13.592 24.8481 13.6626 24.6777 13.6626 24.5C13.6626 24.3223 13.592 24.1519 13.4664 24.0263C13.3408 23.9007 13.1704 23.8301 12.9927 23.8301H10.728C10.5503 23.8301 10.3799 23.9007 10.2543 24.0263C10.1286 24.1519 10.058 24.3223 10.058 24.5C10.058 24.6777 10.1286 24.8481 10.2543 24.9737C10.3799 25.0993 10.5503 25.1699 10.728 25.1699H12.9927Z" fill="#FF4800"/></svg>
