<svg width="73" height="115" viewBox="0 0 73 115" fill="none" xmlns="http://www.w3.org/2000/svg"><path d="M14.3816 4.70996H14.3325C13.4959 4.70996 12.8178 5.3882 12.8178 6.22484V11.4962C12.8178 12.3328 13.4959 13.0111 14.3325 13.0111H14.3816C15.2182 13.0111 15.8963 12.3328 15.8963 11.4962V6.22484C15.8963 5.3882 15.2182 4.70996 14.3816 4.70996Z" fill="#55A0C7"/><path d="M28.4403 4.70996H28.3912C27.5546 4.70996 26.8765 5.3882 26.8765 6.22484V11.4962C26.8765 12.3328 27.5546 13.0111 28.3912 13.0111H28.4403C29.2769 13.0111 29.955 12.3328 29.955 11.4962V6.22484C29.955 5.3882 29.2769 4.70996 28.4403 4.70996Z" fill="#55A0C7"/><path d="M43.9242 4.51758H43.875C43.0385 4.51758 42.3603 5.19581 42.3603 6.03246V11.3038C42.3603 12.1405 43.0385 12.8187 43.875 12.8187H43.9242C44.7607 12.8187 45.4388 12.1405 45.4388 11.3038V6.03246C45.4388 5.19581 44.7607 4.51758 43.9242 4.51758Z" fill="#55A0C7"/><path d="M57.8565 4.51709H57.8073C56.9708 4.51709 56.2927 5.19532 56.2927 6.03197V11.3033C56.2927 12.14 56.9708 12.8182 57.8073 12.8182H57.8565C58.693 12.8182 59.3712 12.14 59.3712 11.3033V6.03197C59.3712 5.19532 58.693 4.51709 57.8565 4.51709Z" fill="#55A0C7"/><path d="M59.4098 1.29736H11.7033C10.5934 1.29736 9.69363 2.19722 9.69363 3.30726V4.10419C9.69363 5.21423 10.5934 6.11409 11.7033 6.11409H59.4098C60.5197 6.11409 61.4194 5.21423 61.4194 4.10419V3.30726C61.4194 2.19722 60.5197 1.29736 59.4098 1.29736Z" fill="#2589BD"/><path d="M70.4093 0.594238H1.67792C0.751234 0.594238 0 1.34556 0 2.27237V2.32854C0 3.25534 0.751234 4.00667 1.67792 4.00667H70.4093C71.336 4.00667 72.0872 3.25534 72.0872 2.32854V2.27237C72.0872 1.34556 71.336 0.594238 70.4093 0.594238Z" fill="#2589BD"/><path d="M13.311 20.3299L17.5707 31.4203C17.7183 31.804 17.9785 32.1341 18.3172 32.3671C18.6558 32.6002 19.0569 32.7254 19.468 32.7263H55.078C55.5447 32.7263 55.9971 32.5658 56.3595 32.2718C56.7219 31.9777 56.9721 31.568 57.0684 31.1114L59.4185 20.021C59.4815 19.7245 59.4775 19.4177 59.4067 19.1229C59.336 18.8282 59.2002 18.553 59.0095 18.3174C58.8187 18.0819 58.5777 17.8919 58.3041 17.7615C58.0305 17.631 57.7313 17.5634 57.4282 17.5635H15.2118C14.8814 17.5634 14.556 17.6438 14.2636 17.7976C13.9712 17.9515 13.7206 18.1742 13.5335 18.4465C13.3464 18.7188 13.2284 19.0326 13.1896 19.3607C13.1508 19.6888 13.1925 20.0215 13.311 20.3299V20.3299Z" fill="#55A0C7"/><path d="M19.2732 24.0894H24.9651C25.1548 24.0898 25.3377 24.1596 25.4794 24.2858C25.621 24.4119 25.7116 24.5856 25.7339 24.7739L26.3131 29.6521C26.3257 29.7606 26.3152 29.8705 26.2824 29.9746C26.2495 30.0788 26.195 30.1748 26.1224 30.2564C26.0497 30.3379 25.9607 30.4032 25.8611 30.4479C25.7615 30.4926 25.6535 30.5157 25.5443 30.5157H20.5299C20.3582 30.5157 20.1914 30.4586 20.0558 30.3535C19.9201 30.2483 19.8232 30.101 19.7804 29.9347L18.5237 25.0566C18.4943 24.9422 18.4914 24.8226 18.5153 24.707C18.5391 24.5913 18.5891 24.4826 18.6615 24.3893C18.7338 24.2959 18.8265 24.2204 18.9326 24.1684C19.0386 24.1164 19.1551 24.0894 19.2732 24.0894V24.0894Z" fill="#B5CEDB"/><path d="M29.4723 24.3403H34.0655C34.3397 24.3402 34.6032 24.4471 34.7998 24.6382C34.9965 24.8293 35.1109 25.0896 35.1186 25.3637L35.2643 29.4256C35.2693 29.567 35.2457 29.7079 35.195 29.84C35.1443 29.9721 35.0675 30.0926 34.9692 30.1943C34.8709 30.296 34.7531 30.3769 34.6229 30.4322C34.4927 30.4874 34.3527 30.5158 34.2112 30.5157H29.6706C29.3997 30.516 29.139 30.4118 28.9428 30.2248C28.7467 30.0378 28.6302 29.7824 28.6176 29.5116L28.4192 25.4497C28.4116 25.3068 28.4332 25.1637 28.4827 25.0294C28.5322 24.8951 28.6085 24.7722 28.7071 24.6684C28.8056 24.5646 28.9243 24.4819 29.0559 24.4255C29.1875 24.3691 29.3292 24.3401 29.4723 24.3403V24.3403Z" fill="#B5CEDB"/><path d="M54.1813 24.1934H48.4911C48.3015 24.1929 48.1183 24.2623 47.9766 24.3882C47.8348 24.5142 47.7443 24.6878 47.7223 24.8762L47.1501 29.7544C47.1372 29.863 47.1475 29.9731 47.1803 30.0774C47.213 30.1818 47.2675 30.278 47.3401 30.3598C47.4128 30.4416 47.5019 30.507 47.6017 30.5518C47.7014 30.5966 47.8095 30.6198 47.9189 30.6198H52.9246C53.0962 30.6197 53.263 30.5626 53.3987 30.4575C53.5344 30.3523 53.6312 30.205 53.674 30.0387L54.9325 25.1606C54.962 25.0461 54.9648 24.9263 54.9409 24.8105C54.9169 24.6947 54.8667 24.586 54.7942 24.4926C54.7217 24.3992 54.6287 24.3237 54.5225 24.2718C54.4162 24.2199 54.2995 24.1931 54.1813 24.1934V24.1934Z" fill="#B5CEDB"/><path d="M44.391 24.4438H39.7891C39.5152 24.4437 39.252 24.5503 39.0554 24.7411C38.8588 24.9318 38.7442 25.1917 38.736 25.4655L38.5991 29.5274C38.5939 29.6689 38.6173 29.81 38.6679 29.9423C38.7185 30.0746 38.7952 30.1953 38.8936 30.2972C38.9919 30.3991 39.1097 30.4802 39.2401 30.5355C39.3704 30.5908 39.5106 30.6193 39.6522 30.6192H44.1822C44.4535 30.6195 44.7144 30.5151 44.9106 30.3277C45.1067 30.1403 45.2231 29.8844 45.2353 29.6134L45.4441 25.5515C45.4515 25.4087 45.4297 25.2658 45.3801 25.1317C45.3305 24.9976 45.2541 24.875 45.1556 24.7713C45.0571 24.6677 44.9385 24.5852 44.807 24.5289C44.6756 24.4726 44.534 24.4437 44.391 24.4438Z" fill="#B5CEDB"/><path d="M60.5383 20.375H12.2158C11.9888 20.375 11.7643 20.3284 11.5562 20.2379C11.3481 20.1475 11.1608 20.0151 11.006 19.8491C10.8513 19.6832 10.7323 19.4871 10.6566 19.2731C10.5809 19.0592 10.55 18.832 10.5659 18.6056L11.0433 11.872C11.0722 11.4544 11.2583 11.0633 11.5642 10.7776C11.8701 10.4919 12.2729 10.3329 12.6914 10.3325H59.9135C60.3257 10.3329 60.723 10.4872 61.0275 10.7651C61.332 11.043 61.5218 11.4246 61.5598 11.8351L62.1829 18.5687C62.2039 18.7975 62.1769 19.0282 62.1039 19.2461C62.0308 19.464 61.9132 19.6642 61.7585 19.8341C61.6038 20.0041 61.4154 20.1399 61.2053 20.233C60.9953 20.3261 60.7681 20.3745 60.5383 20.375Z" fill="#0071B6"/><path d="M61.9722 16.9361C60.5927 17.0379 19.4715 16.7887 10.6835 16.9361L10.5659 18.6055C10.55 18.8319 10.5809 19.0591 10.6566 19.2731C10.7323 19.487 10.8513 19.6831 11.006 19.8491C11.1608 20.0151 11.3481 20.1474 11.5562 20.2379C11.7643 20.3283 11.9888 20.375 12.2158 20.3749H60.5383C60.7682 20.3746 60.9956 20.3265 61.2058 20.2335C61.4161 20.1405 61.6047 20.0047 61.7596 19.8347C61.9145 19.6648 62.0323 19.4644 62.1054 19.2465C62.1786 19.0285 62.2056 18.7976 62.1846 18.5686L61.9722 16.9361Z" fill="#84B6D0"/><path d="M14.9499 75.1125C15.2654 73.5311 16.1143 72.106 17.3545 71.0756C18.5947 70.0451 20.1511 69.4718 21.7634 69.4515C20.8573 69.0618 19.8795 68.8669 18.8933 68.8795C17.9071 68.8921 16.9346 69.1119 16.0389 69.5247C15.1431 69.9374 14.3441 70.5339 13.6937 71.2754C13.0433 72.0169 12.556 72.8869 12.2635 73.8289C11.971 74.7709 11.8797 75.7639 11.9957 76.7435C12.1116 77.723 12.4322 78.6673 12.9366 79.5149C13.4409 80.3626 14.1178 81.0947 14.9234 81.6639C15.7289 82.233 16.6451 82.6264 17.6124 82.8186C18.0931 82.9145 18.5826 82.9598 19.0727 82.9537C17.5914 82.3168 16.3737 81.1905 15.6232 79.7632C14.8727 78.3359 14.635 76.6941 14.9499 75.1125V75.1125Z" fill="#D0EFEF"/><path d="M19.2833 102.94C16.9142 102.469 14.7893 101.171 13.2869 99.2797C11.7845 97.3879 11.0021 95.0243 11.079 92.6096C11.1559 90.1949 12.0871 87.8859 13.7068 86.0935C15.3265 84.3012 17.5296 83.1419 19.924 82.822C18.4831 82.6308 17.018 82.7498 15.6269 83.171C14.2358 83.5922 12.9507 84.3059 11.8578 85.2642C10.7649 86.2225 9.88931 87.4034 9.28982 88.7276C8.69032 90.0519 8.38071 91.489 8.38172 92.9427C8.38273 94.3963 8.69433 95.833 9.29567 97.1564C9.897 98.4799 10.7742 99.6595 11.8684 100.616C12.9627 101.573 14.2487 102.285 15.6405 102.704C17.0322 103.123 18.4974 103.24 19.938 103.047C19.7291 103.017 19.5027 102.991 19.2833 102.94Z" fill="#D0EFEF"/><path d="M20.3071 49.8163C20.04 48.3492 20.0579 46.8444 20.3597 45.384C20.9226 41.6864 22.8976 38.3514 25.8691 36.0806C23.1591 36.9141 20.8098 38.6383 19.2018 40.9739C17.5938 43.3094 16.8212 46.1195 17.0093 48.9489C17.1974 51.7783 18.3351 54.4614 20.238 56.5635C22.141 58.6656 24.6978 60.0636 27.4944 60.531C23.6875 58.4527 20.9336 54.4996 20.3071 49.8163Z" fill="#D0EFEF"/><path d="M47.208 46.0206C47.4599 44.6448 47.4432 43.2333 47.1589 41.8639C46.6318 38.3951 44.7794 35.2663 41.9918 33.1362C44.5343 33.9171 46.7387 35.5339 48.2476 37.7245C49.7566 39.9151 50.4816 42.5511 50.3053 45.2053C50.129 47.8596 49.0616 50.3765 47.2761 52.3482C45.4907 54.3198 43.0918 55.6307 40.4683 56.0683C44.04 54.1234 46.6218 50.4143 47.208 46.0206Z" fill="#D0EFEF"/><path d="M39.5135 104.284C39.6299 103.642 39.6886 102.991 39.689 102.339C39.6898 101.595 39.6139 100.853 39.4626 100.125C38.9358 96.657 37.0833 93.5286 34.2955 91.3994C36.8389 92.1795 39.0443 93.796 40.5541 95.9867C42.0639 98.1775 42.7895 100.814 42.6134 103.469C42.4372 106.124 41.3696 108.641 39.5836 110.613C37.7976 112.585 35.398 113.896 32.7737 114.333C36.3419 112.383 38.9255 108.676 39.5135 104.284Z" fill="#D0EFEF"/><path d="M50.4199 95.6328C50.1178 94.1194 49.3054 92.7556 48.1186 91.7693C46.9318 90.783 45.4425 90.234 43.8996 90.214C44.7666 89.8411 45.7024 89.6545 46.6461 89.6666C47.5899 89.6786 48.5206 89.8889 49.3779 90.2838C50.2351 90.6787 50.9998 91.2495 51.6224 91.959C52.2449 92.6685 52.7113 93.501 52.9914 94.4024C53.2715 95.3039 53.3591 96.2541 53.2483 97.1915C53.1376 98.129 52.8311 99.0327 52.3487 99.844C51.8662 100.655 51.2187 101.356 50.448 101.901C49.6773 102.446 48.8007 102.823 47.875 103.007C47.4128 103.1 46.9422 103.143 46.4709 103.137C47.8891 102.528 49.0552 101.45 49.774 100.084C50.4929 98.7183 50.7209 97.1468 50.4199 95.6328V95.6328Z" fill="#D0EFEF"/><path d="M54.4234 91.2114C56.6899 90.7589 58.7225 89.5171 60.1595 87.7067C61.5965 85.8964 62.3448 83.6349 62.2713 81.3246C62.1978 79.0143 61.3073 76.8049 59.7581 75.0896C58.2089 73.3743 56.1015 72.2642 53.8109 71.9568C55.1895 71.7745 56.5911 71.8889 57.922 72.2924C59.2528 72.6958 60.4821 73.3789 61.5275 74.2961C62.573 75.2132 63.4104 76.3431 63.9838 77.6102C64.5572 78.8772 64.8533 80.2522 64.8523 81.643C64.8513 83.0338 64.5532 84.4083 63.978 85.6745C63.4027 86.9408 62.5636 88.0695 61.5169 88.9851C60.4701 89.9007 59.2398 90.582 57.9084 90.9835C56.577 91.385 55.1752 91.4974 53.7968 91.3132C54.0057 91.2851 54.2145 91.2535 54.4234 91.2114Z" fill="#D0EFEF"/><path d="M58.0302 57.151C58.3667 55.4903 58.3445 53.7769 57.9652 52.1254C57.5809 49.9959 56.7735 47.9651 55.5909 46.1531C54.4082 44.341 52.8743 42.7846 51.0798 41.5757C57.5124 43.3662 62.1898 48.7973 62.1898 55.2201C62.1898 62.3013 56.5049 68.1765 49.0491 69.2964C53.8073 66.9389 57.2474 62.461 58.0302 57.151Z" fill="#D0EFEF"/><path d="M35.1186 35.4717C34.6324 36.7742 34.1884 38.0802 33.8163 39.3914C33.4435 40.6863 33.1637 42.0062 32.9791 43.341C32.6193 45.974 32.7404 48.6071 33.5056 51.0172C33.8904 52.2188 34.4147 53.3711 35.0677 54.4507C35.7292 55.5354 36.4932 56.5541 37.3494 57.4927C38.2167 58.4491 39.1555 59.3381 40.1576 60.1521C41.1673 60.992 42.2258 61.7716 43.3274 62.4867L43.7381 62.7641L44.1664 63.0362L45.0316 63.5821C45.3563 63.8155 45.6898 64.0437 46.004 64.2842L46.4533 64.6616C46.6007 64.7915 46.7587 64.9056 46.8938 65.0496C48.0551 66.1371 49.0023 67.4327 49.6863 68.8692C50.3683 70.3214 50.7225 71.906 50.7236 73.5104C50.733 75.1093 50.3675 76.688 49.6564 78.12C49.6143 78.2078 49.574 78.2955 49.5283 78.3851L49.3809 78.6414L49.0807 79.1469C48.9737 79.3101 48.8543 79.4664 48.7403 79.6244C48.6262 79.7823 48.5191 79.9456 48.3892 80.0895L48.0066 80.5266L47.8153 80.7443L47.6082 80.9444L47.1905 81.3411C47.0553 81.4745 46.8956 81.5833 46.7499 81.7045C45.5787 82.6305 44.2539 83.3435 42.836 83.8109C41.4724 84.2606 40.0567 84.5331 38.6236 84.6219C37.2223 84.6941 35.8173 84.6282 34.4288 84.4253C35.1186 84.3112 35.8049 84.2638 36.4788 84.1128L36.9826 84.0215L37.2353 83.9759L37.4845 83.918L38.4744 83.6845C39.7614 83.348 41.0083 82.8736 42.1936 82.2697C43.3284 81.6932 44.364 80.9394 45.2616 80.0369C45.3669 79.9228 45.4862 79.8227 45.5792 79.6998L45.8741 79.3488L46.0215 79.1732L46.1514 78.9854L46.4129 78.6133C46.4966 78.4889 46.5734 78.3599 46.6429 78.2271C46.7166 78.0954 46.7973 77.9708 46.864 77.8374L47.0501 77.4319L47.1466 77.2318C47.1747 77.1633 47.1975 77.0931 47.2221 77.0229L47.3748 76.6086C47.4257 76.4717 47.452 76.326 47.4923 76.1856L47.5503 75.9732C47.5717 75.9033 47.587 75.8316 47.5959 75.759L47.6696 75.329C47.6953 75.1856 47.7123 75.0408 47.7205 74.8954C47.731 74.7515 47.7504 74.6075 47.7574 74.4618V73.8106L47.7381 73.5947C47.6575 72.4354 47.3365 71.3055 46.7956 70.277C46.2506 69.2354 45.5222 68.3007 44.6455 67.5176C44.4279 67.3175 44.1874 67.1367 43.9628 66.9436C43.7381 66.7505 43.4906 66.6118 43.2607 66.4416L42.3744 65.8921L41.9268 65.6148L41.4792 65.3181C39.0993 63.7278 36.8334 61.8671 34.9431 59.5974C33.9822 58.4592 33.1482 57.2196 32.456 55.9006C32.1116 55.2358 31.8097 54.5499 31.5522 53.8468C31.4837 53.6713 31.4275 53.4958 31.3766 53.3202L31.2099 52.7848C31.1028 52.425 31.0256 52.0581 30.9326 51.6965C30.8396 51.3349 30.7957 50.9628 30.7325 50.5959C30.6693 50.229 30.6447 49.8551 30.6132 49.4848C30.5816 49.1144 30.5658 48.7457 30.5675 48.3754V47.8224V47.5468L30.5851 47.2712C30.6732 45.8215 30.9276 44.3868 31.3433 42.9952C31.7486 41.6356 32.2773 40.3159 32.9229 39.0526C33.5616 37.8042 34.2956 36.607 35.1186 35.4717V35.4717Z" fill="#D0EFEF"/><path d="M35.1063 63.6323C35.7658 64.4723 36.3529 65.3667 36.8615 66.3057C37.3872 67.2612 37.8209 68.2646 38.1568 69.3022C38.5009 70.3707 38.7182 71.476 38.8044 72.5952C38.8202 72.7374 38.8255 72.8796 38.829 73.0218L38.8413 73.4518C38.8413 73.738 38.8237 74.0258 38.8167 74.3137C38.8097 74.6016 38.764 74.8895 38.736 75.1791C38.7079 75.4688 38.6464 75.7531 38.5903 76.0393C38.5341 76.3254 38.4639 76.608 38.3849 76.8888C38.3059 77.1697 38.2252 77.4523 38.1234 77.7244C37.9289 78.2746 37.6991 78.8117 37.4354 79.3323C36.9113 80.3635 36.275 81.3336 35.5381 82.2252C34.0796 83.9946 32.3332 85.434 30.5026 86.6592L30.1516 86.8874L29.8093 87.0981L29.1318 87.5158L28.6281 87.8669C28.4666 88.0073 28.2929 88.1355 28.1349 88.2794C27.5023 88.839 26.9739 89.5064 26.5746 90.2507C26.1815 90.982 25.9425 91.7861 25.8725 92.6134L25.855 92.7679V92.9224V93.2331C25.855 93.3366 25.8708 93.4402 25.8778 93.5438C25.8822 93.6479 25.8927 93.7516 25.9094 93.8545C25.9335 94.0622 25.9716 94.268 26.0235 94.4706C26.0498 94.5724 26.0674 94.6777 26.1007 94.7778L26.2043 95.078C26.7659 96.6929 28.1121 98.0744 29.8128 99.0117C30.6917 99.4912 31.6189 99.876 32.5789 100.16C33.5853 100.44 34.6059 100.665 35.6364 100.836C34.5796 101.035 33.5048 101.123 32.4297 101.097C31.3217 101.061 30.2232 100.878 29.1634 100.553C28.0518 100.214 27.0098 99.6791 26.0867 98.9731C25.8469 98.793 25.6194 98.5972 25.4057 98.3868L25.2407 98.2306L25.0862 98.0551L24.7826 97.7145C24.6773 97.6039 24.593 97.474 24.4983 97.3529C24.4035 97.2318 24.3122 97.1072 24.2262 96.979L23.984 96.5823L23.8664 96.3822C23.8296 96.3137 23.7962 96.2418 23.7611 96.1715C23.1859 95.0435 22.8852 93.7955 22.8835 92.5292C22.8761 91.2565 23.1493 89.9978 23.6839 88.8429C24.2154 87.7051 24.9561 86.6773 25.8673 85.8131C26.0902 85.5972 26.3341 85.4094 26.5693 85.2075C26.8045 85.0057 27.0818 84.8336 27.3416 84.6493L27.9963 84.2333L28.3192 84.0279L28.6281 83.819C29.4524 83.2846 30.2453 82.7032 31.0028 82.0777C31.7518 81.4746 32.4558 80.8175 33.109 80.1117C33.7478 79.4209 34.3218 78.6729 34.8237 77.8771C35.0679 77.4801 35.29 77.0699 35.489 76.6484C35.5978 76.4412 35.6768 76.2236 35.7733 76.0112C35.8698 75.7988 35.9312 75.5741 36.0137 75.3547C36.6175 73.587 36.7527 71.6333 36.5403 69.6445C36.4261 68.632 36.2432 67.6286 35.9927 66.641C35.7417 65.6475 35.4398 64.6452 35.1063 63.6323Z" fill="#D0EFEF"/></svg>
