<svg width="211" height="113" viewBox="0 0 211 113" fill="none" xmlns="http://www.w3.org/2000/svg"><path d="M209.805 65.7668C209.913 65.7433 210.025 65.7487 210.13 65.7825C210.235 65.8162 210.329 65.8771 210.403 65.9589C210.477 66.0408 210.528 66.1407 210.55 66.2485C210.573 66.3564 210.567 66.4684 210.533 66.5731C208.243 73.6157 193.237 114.063 152.758 106.798C152.758 106.798 155.782 77.6249 209.805 65.7668Z" fill="#55A0C7"/><path d="M204.557 70.9342C203.082 72.902 201.476 74.7403 199.82 76.5417C198.165 78.3432 196.429 80.0661 194.646 81.738C192.863 83.4098 191.021 85.0214 189.135 86.5729C187.249 88.1243 185.291 89.5991 183.299 91.0199C181.307 92.4407 179.251 93.7757 177.168 95.0567C176.117 95.6844 175.069 96.3182 173.995 96.9051C172.934 97.5175 171.843 98.0727 170.76 98.6453C166.394 100.876 161.864 102.773 157.211 104.319C157.087 104.357 156.953 104.345 156.838 104.285C156.723 104.225 156.636 104.123 156.595 104C156.554 103.877 156.563 103.743 156.619 103.627C156.676 103.51 156.776 103.42 156.897 103.376V103.376C161.52 101.89 166.023 100.057 170.368 97.89C171.446 97.3327 172.534 96.7928 173.592 96.1957C174.664 95.6231 175.709 95.0056 176.756 94.3932C178.836 93.1388 180.891 91.8416 182.879 90.4443C184.867 89.047 186.823 87.5997 188.723 86.0819C190.623 84.5642 192.464 82.973 194.255 81.3277C196.046 79.6823 197.783 77.9778 199.453 76.208C201.122 74.4381 202.739 72.6122 204.21 70.6892V70.6831C204.243 70.6386 204.293 70.6093 204.349 70.6016C204.404 70.5939 204.46 70.6086 204.504 70.6423C204.549 70.676 204.578 70.726 204.586 70.7813C204.594 70.8366 204.579 70.8927 204.545 70.9372L204.557 70.9342Z" fill="#85B7D1"/><path d="M182.473 1.01244C185.291 11.8428 199.195 75.5916 143.657 100.51C143.657 100.51 124.049 61.1022 180.933 0.607238C181.044 0.487181 181.186 0.399595 181.343 0.353855C181.5 0.308114 181.666 0.305941 181.825 0.347564C181.983 0.389188 182.127 0.473043 182.241 0.590158C182.355 0.707273 182.435 0.853242 182.473 1.01244Z" fill="#55A0C7"/><path d="M178.804 10.6962C178.321 14.2981 177.766 17.8858 177.182 21.4694C176.599 25.0529 175.97 28.6304 175.304 32.1996C173.977 39.3443 172.486 46.4512 170.79 53.5132C169.094 60.5752 167.188 67.5913 164.922 74.494C163.799 77.948 162.554 81.3594 161.188 84.7283C159.815 88.0904 158.312 91.4055 156.558 94.591C156.535 94.6347 156.503 94.6733 156.465 94.7046C156.427 94.7359 156.382 94.7592 156.335 94.7731C156.287 94.7871 156.237 94.7915 156.188 94.786C156.139 94.7804 156.091 94.7652 156.048 94.741C155.961 94.6878 155.897 94.6025 155.871 94.5032C155.845 94.404 155.859 94.2986 155.909 94.2093C157.658 91.0707 159.166 87.7893 160.547 84.4537C161.927 81.1182 163.179 77.7224 164.315 74.2858C166.607 67.4188 168.539 60.4262 170.271 53.3866C172.004 46.3471 173.52 39.2484 174.886 32.1221C175.567 28.5599 176.21 24.9896 176.816 21.4112C177.418 17.8388 177.99 14.2492 178.491 10.6584C178.493 10.6372 178.499 10.6167 178.51 10.598C178.52 10.5793 178.534 10.5629 178.551 10.5497C178.567 10.5365 178.587 10.5268 178.607 10.5212C178.628 10.5156 178.649 10.5142 178.671 10.5171C178.692 10.5199 178.712 10.527 178.73 10.5379C178.749 10.5488 178.765 10.5633 178.777 10.5805C178.79 10.5977 178.799 10.6172 178.804 10.638C178.809 10.6587 178.81 10.6803 178.806 10.7013L178.804 10.6962Z" fill="#85B7D1"/><path d="M153.973 105.266C153.973 105.266 152.953 92.6824 164.305 78.685C174.833 65.6949 200.89 35.477 205.992 19.6945C206.219 18.9953 207.232 19.0912 207.314 19.822C208.193 27.6557 208.851 47.4474 197.292 68.367C182.387 95.3443 153.973 105.266 153.973 105.266Z" fill="#85B7D1"/><path d="M202.848 34.1978C202.799 35.9411 202.534 37.6681 202.173 39.3777C202.13 39.592 202.09 39.8064 202.043 40.0197L201.889 40.6556L201.583 41.9273L201.22 43.1848C201.096 43.6032 200.989 44.0278 200.838 44.4381C199.752 47.7603 198.387 50.9843 196.755 54.0753C196.378 54.8653 195.92 55.6063 195.49 56.3698L194.837 57.5068C194.726 57.6946 194.626 57.8895 194.505 58.0722L194.152 58.6234L192.725 60.8311C192.498 61.2047 192.232 61.5517 191.98 61.9089L191.217 62.9745L190.453 64.0391L190.07 64.5708L189.662 65.0812L188.029 67.1337C187.754 67.4726 187.491 67.8227 187.212 68.1544L186.365 69.1495L184.672 71.1398L182.96 73.1148C182.386 73.7701 181.819 74.4315 181.235 75.0776C180.078 76.3799 178.911 77.6728 177.734 78.9561C176.562 80.2452 175.37 81.5149 174.185 82.7908L170.592 86.5805C168.195 89.1036 165.795 91.6206 163.482 94.213C162.894 94.853 162.34 95.5205 161.774 96.1789C161.488 96.5055 161.223 96.8494 160.952 97.1873C160.68 97.5251 160.406 97.8609 160.146 98.2079C159.635 98.9112 159.107 99.5971 158.652 100.334L158.295 100.878C158.237 100.97 158.174 101.058 158.121 101.152L157.962 101.435L157.327 102.568C157.315 102.59 157.295 102.607 157.272 102.614C157.248 102.622 157.222 102.619 157.2 102.608C157.178 102.596 157.161 102.576 157.154 102.552C157.147 102.528 157.149 102.503 157.161 102.48C157.939 100.914 158.849 99.4176 159.881 98.0059C160.136 97.6507 160.408 97.3087 160.67 96.9597C160.932 96.6106 161.194 96.2605 161.474 95.9268C162.028 95.2531 162.57 94.5682 163.145 93.913L163.996 92.9199C164.282 92.5912 164.576 92.2687 164.866 91.9441L165.737 90.9694L166.618 90.0059C167.791 88.7168 168.977 87.444 170.158 86.1651C172.522 83.6134 174.885 81.0618 177.219 78.4815C179.553 75.9013 181.854 73.2955 184.128 70.6663L185.816 68.679L186.66 67.6859C186.942 67.3552 187.205 67.0112 187.477 66.6754L189.11 64.6474L189.518 64.137L189.9 63.6114L190.663 62.5591C192.732 59.7778 194.563 56.826 196.236 53.7926C197.917 50.7604 199.337 47.5911 200.481 44.3187C200.639 43.9105 200.753 43.4951 200.89 43.0847L201.291 41.8457L201.639 40.5923L201.812 39.9646C201.866 39.7543 201.914 39.542 201.963 39.3307C202.058 38.9082 202.167 38.4866 202.252 38.061L202.497 36.7821C202.651 35.9265 202.762 35.0636 202.829 34.1968C202.829 34.1938 202.83 34.1909 202.832 34.1888C202.834 34.1867 202.837 34.1855 202.84 34.1855C202.842 34.1864 202.845 34.1881 202.846 34.1903C202.847 34.1925 202.848 34.1951 202.848 34.1978V34.1978Z" fill="#B5CEDB"/><path d="M33.4295 4.10473C30.4894 14.6819 16.5662 76.1639 80.7131 104.538C82.7031 105.418 85.0381 104.404 85.678 102.383C89.1642 91.3729 93.6903 55.9261 35.2767 3.77097C34.6542 3.21267 33.6234 3.40353 33.4295 4.10473Z" fill="#85B7D1"/><path d="M38.6965 14.9205C39.2843 18.7766 40.0426 22.5969 40.8702 26.4061C41.6979 30.2152 42.6378 33.9998 43.6583 37.7641C45.693 45.3076 48.1291 52.7371 50.9562 60.0207C52.3918 63.6591 53.9376 67.2556 55.5935 70.8102C57.2781 74.3485 59.0916 77.8287 61.034 81.2506C63.0169 84.6464 65.1366 87.9697 67.4359 91.1787C69.7688 94.3784 72.2906 97.436 74.9878 100.335C75.0617 100.413 75.1627 100.459 75.2699 100.465C75.3771 100.47 75.4822 100.434 75.5634 100.364C75.6031 100.33 75.6355 100.288 75.6586 100.242C75.6817 100.195 75.695 100.144 75.6978 100.092C75.7006 100.04 75.6927 99.9878 75.6747 99.9389C75.6567 99.89 75.6289 99.8452 75.593 99.8074V99.8074C72.9041 96.9455 70.3877 93.9262 68.0574 90.7653C65.7591 87.589 63.6354 84.2963 61.6453 80.9271C59.6907 77.5344 57.868 74.0764 56.1773 70.553C54.507 67.0215 52.9476 63.4441 51.4991 59.8207C48.6417 52.5674 46.1739 45.1665 44.1064 37.6498C43.0688 33.8971 42.1218 30.1206 41.2652 26.3203C40.4202 22.5275 39.6446 18.7133 39.0394 14.8746C39.0317 14.83 39.0066 14.7903 38.9697 14.7641C38.9328 14.7379 38.8871 14.7273 38.8424 14.7347C38.8206 14.7373 38.7995 14.7441 38.7804 14.7548C38.7612 14.7655 38.7443 14.7799 38.7308 14.7972C38.7172 14.8145 38.7072 14.8343 38.7013 14.8554C38.6954 14.8766 38.6938 14.8987 38.6965 14.9205Z" fill="#B5CEDB"/><path d="M67.3298 0.48871C61.7903 9.99623 32.6621 65.7461 87.8344 102.016C88.241 102.282 88.6962 102.466 89.1741 102.557C89.6519 102.647 90.1428 102.643 90.6188 102.543C91.0949 102.444 91.5465 102.251 91.948 101.977C92.3495 101.702 92.6929 101.351 92.9585 100.944C99.0532 91.4445 113.077 58.7362 69.2086 0.448904C68.7452 -0.1686 67.6972 -0.143084 67.3298 0.48871Z" fill="#55A0C7"/><path d="M69.7372 11.4302C69.5015 13.299 69.329 15.1689 69.178 17.0439C69.0269 18.9188 68.9126 20.7928 68.8218 22.6698C68.6395 26.4224 68.5674 30.1788 68.6055 33.939C68.684 41.4541 69.1861 48.9714 70.27 56.4171C71.3538 63.8629 73.0162 71.2393 75.5594 78.3462C76.8239 81.9077 78.3451 85.3728 80.111 88.7141C81.007 90.3798 81.9551 92.0211 82.993 93.6072C84.0309 95.1933 85.1423 96.7335 86.3261 98.2206C86.3789 98.2864 86.4553 98.329 86.5391 98.3391C86.6228 98.3492 86.7072 98.3261 86.7741 98.2747C86.8077 98.2501 86.836 98.2188 86.8571 98.1828C86.8782 98.1469 86.8918 98.107 86.8969 98.0656C86.9021 98.0242 86.8988 97.9822 86.8871 97.9422C86.8755 97.9022 86.8558 97.8649 86.8292 97.8328V97.8328C85.6542 96.3671 84.5493 94.8504 83.5145 93.2826C82.4807 91.7149 81.5336 90.093 80.6396 88.4447C78.8722 85.1332 77.3476 81.6978 76.0778 78.1655C73.5204 71.1107 71.8365 63.7639 70.7231 56.3508C69.6097 48.9377 69.078 41.4337 68.9688 33.9328C68.9177 30.1829 68.9742 26.4326 69.1382 22.682C69.2205 20.8081 69.3314 18.9369 69.4709 17.0683C69.6148 15.1985 69.777 13.3276 70.0056 11.469C70.0076 11.4515 70.0061 11.4337 70.0012 11.4168C69.9964 11.3999 69.9882 11.3841 69.9772 11.3704C69.9662 11.3566 69.9526 11.3452 69.9371 11.3367C69.9217 11.3282 69.9048 11.3229 69.8873 11.321C69.853 11.3165 69.8184 11.3253 69.7904 11.3456C69.7625 11.3659 69.7435 11.3962 69.7372 11.4302V11.4302Z" fill="#85B7D1"/><path d="M0.0201624 43.8953C-0.0138554 43.7688 -0.00463431 43.6345 0.0463617 43.5139C0.0973576 43.3932 0.187206 43.293 0.301641 43.2292C0.416075 43.1654 0.548538 43.1416 0.677998 43.1617C0.807458 43.1818 0.926494 43.2446 1.01621 43.3401C5.04325 47.6637 15.9559 58.6716 25.9173 62.3613C42.1327 68.371 58.5368 83.2503 56.8284 96.224C56.8264 96.224 17.3969 108.179 0.0201624 43.8953Z" fill="#55A0C7"/><path d="M4.94631 50.4911C5.02285 50.6014 5.12899 50.7392 5.22492 50.8667L5.52496 51.2515L6.13728 52.015L7.37009 53.5327C8.19945 54.5378 9.04037 55.5336 9.89286 56.5202C11.5938 58.4983 13.3287 60.445 15.0976 62.3605C18.6409 66.1747 22.2863 69.9042 26.1266 73.4215C28.0544 75.1719 29.9873 76.9173 31.9916 78.5779C33.9959 80.2385 36.0391 81.8512 38.1424 83.3832C42.3358 86.4615 46.7639 89.2296 51.4666 91.4771C51.4944 91.4925 51.5155 91.5177 51.5257 91.5479C51.5359 91.578 51.5345 91.6109 51.5217 91.64C51.5089 91.6692 51.4857 91.6925 51.4566 91.7054C51.4275 91.7183 51.3947 91.7199 51.3645 91.7098C48.9561 90.6774 46.6103 89.5047 44.3391 88.1977C42.0725 86.8841 39.8845 85.4419 37.7372 83.9415C33.4859 80.883 29.4317 77.5592 25.599 73.99C23.6763 72.215 21.8138 70.3768 19.9778 68.5141C18.1419 66.6514 16.3529 64.7458 14.6159 62.7922C12.879 60.8387 11.1645 58.8637 9.51322 56.8407C8.68795 55.8275 7.87322 54.8069 7.06903 53.7787C6.66898 53.2623 6.26893 52.7448 5.87806 52.2212L5.29534 51.4312L5.00857 51.0331C4.91468 50.8953 4.82181 50.7739 4.7218 50.6095C4.70538 50.5815 4.70034 50.5483 4.70773 50.5167C4.71511 50.4851 4.73435 50.4576 4.76147 50.4397C4.78859 50.4219 4.82151 50.4152 4.85344 50.421C4.88538 50.4267 4.91387 50.4445 4.93305 50.4707L4.94631 50.4911Z" fill="#85B7D1"/><path d="M94.2669 104.557C94.2669 104.557 86.7996 99.1013 69.9291 97.7867C54.2771 96.5619 16.7907 94.3164 3.04506 89.9082C2.43273 89.7132 1.80306 90.1378 2.22148 90.4634C6.70164 93.9531 19.092 102.176 40.5988 106.198C68.3319 111.39 94.2669 104.557 94.2669 104.557Z" fill="#85B7D1"/><path d="M14.669 93.8578C15.9678 94.4933 17.3033 95.0509 18.6685 95.5276C19.3543 95.7879 20.0788 96.0124 20.781 96.2553C21.5086 96.4738 22.223 96.7034 22.9557 96.9137C23.6885 97.1239 24.4202 97.3342 25.1713 97.5199C25.9224 97.7057 26.6705 97.8956 27.4257 98.0732L29.7107 98.5835C30.4802 98.7386 31.2588 98.8795 32.0314 99.0285C35.1379 99.595 38.2985 100.061 41.505 100.386C43.0991 100.579 44.7167 100.692 46.3291 100.818C47.9416 100.943 49.5826 101.035 51.2073 101.146C54.4689 101.34 57.7347 101.515 61.0045 101.673C64.2702 101.828 67.5482 101.966 70.8261 102.109C72.4661 102.178 74.1061 102.249 75.7472 102.335C76.5677 102.374 77.3885 102.418 78.2097 102.467C79.0261 102.509 79.8507 102.569 80.6713 102.626C83.937 102.869 87.2588 103.169 90.3521 103.906C90.4643 103.933 90.5174 104.008 90.4725 104.073C90.4383 104.107 90.3958 104.132 90.3491 104.145C90.3025 104.158 90.2532 104.159 90.2061 104.147H90.2C88.6457 103.861 87.0506 103.674 85.4423 103.525C83.8257 103.393 82.201 103.294 80.5682 103.23C77.3025 103.093 74.0235 103.025 70.7404 102.933L65.8112 102.795C64.1681 102.736 62.5251 102.682 60.882 102.613C57.5948 102.493 54.3128 102.313 51.0338 102.121C47.7548 101.929 44.4595 101.701 41.204 101.305C40.3875 101.203 39.5711 101.129 38.7659 101.009L36.3534 100.645C35.5451 100.534 34.7583 100.373 33.9633 100.237C33.1683 100.101 32.3712 99.9604 31.5977 99.7797C28.5347 99.1565 25.5119 98.3501 22.5455 97.3648C21.8209 97.129 21.1269 96.8606 20.4197 96.6095C19.738 96.3319 19.0338 96.0767 18.3786 95.7807C17.0438 95.2071 15.762 94.5876 14.6312 93.8802C14.621 93.8741 14.622 93.8639 14.6312 93.8578C14.6372 93.8553 14.6436 93.854 14.6501 93.854C14.6566 93.854 14.663 93.8553 14.669 93.8578V93.8578Z" fill="#B5CEDB"/><path d="M162.415 36.6078C162.942 37.2845 167.032 39.928 162.159 43.7463C161.918 44.1699 162.508 45.309 162.955 45.1824C169.933 40.7609 163.753 34.7154 163.032 35.2605C162.31 35.8055 161.803 35.8198 162.415 36.6078Z" fill="#B5CEDB"/><path d="M164.841 48.0709C164.912 48.9446 165.476 49.7846 166.246 49.5672C167.017 49.3498 177.011 41.3958 166.405 31.7454C166.34 31.6866 166.265 31.6413 166.183 31.6119C166.101 31.5825 166.014 31.5696 165.927 31.5741C165.84 31.5786 165.754 31.6002 165.676 31.6379C165.597 31.6755 165.527 31.7283 165.469 31.7933C165.102 32.2016 164.856 32.5517 164.894 33.0181C174.19 41.8357 164.771 47.1962 164.841 48.0709Z" fill="#B5CEDB"/><path d="M167.584 52.4975C167.438 53.1099 167.857 54.3929 168.886 54.103C185.324 40.0525 169.118 26.4245 168.428 26.8777C167.738 27.3309 167.678 28.2995 167.892 28.6975C182.406 40.8853 167.73 51.8851 167.584 52.4975Z" fill="#B5CEDB"/><path d="M95.167 9.84304C93.8709 9.92901 92.6538 10.4966 91.7547 11.4343C90.8557 12.3719 90.3397 13.6119 90.3082 14.9107C89.9 31.374 88.5733 88.1609 89.208 108.284C89.24 109.312 89.6625 110.289 90.3895 111.016C91.1164 111.743 92.0932 112.166 93.1208 112.198C103.664 112.543 133.992 113.417 151.236 112.694C152.966 112.623 154.604 111.895 155.816 110.658C157.028 109.422 157.723 107.77 157.76 106.039C158.118 88.758 158.908 40.1559 157.029 17.891C156.92 16.5987 156.362 15.3853 155.452 14.4614C154.542 13.5375 153.337 12.9612 152.047 12.8326C140.56 11.6843 110.062 8.87647 95.167 9.84304Z" fill="#09005D"/><path d="M94.5924 20.0259C94.0158 33.513 92.2023 78.3642 92.7769 94.95C92.8168 96.1191 93.2917 97.2312 94.1085 98.0685C94.9253 98.9058 96.0252 99.4079 97.1928 99.4767C107.162 100.061 132.733 101.347 147.355 100.176C148.628 100.073 149.821 99.5114 150.711 98.5958C151.601 97.6801 152.129 96.4725 152.197 95.197C152.938 81.4415 155.065 39.6727 154.513 23.2747C154.47 22.0104 153.966 20.8056 153.096 19.8871C152.227 18.9686 151.051 18.3997 149.791 18.2877C139.006 17.3191 111.306 15.0144 98.8797 15.6921C97.7543 15.7522 96.6917 16.2295 95.899 17.0307C95.1064 17.832 94.6405 18.8998 94.5924 20.0259V20.0259Z" fill="#FF7640"/><path opacity=".29" d="M98.7644 22.6938C98.2715 35.3746 96.7162 77.5629 97.2101 93.1638C97.2826 95.444 98.9185 97.2873 100.992 97.421C109.529 97.9701 131.426 99.1796 143.948 98.0783C146.202 97.8803 147.972 95.8767 148.093 93.3955C148.728 80.4575 150.55 41.1751 150.076 25.7487C150 23.2879 148.266 21.2782 146.034 21.0587C136.798 20.1473 113.077 17.9804 102.436 18.6173C100.439 18.7408 98.8501 20.5014 98.7644 22.6938Z" fill="#fff"/><path d="M121.262 12.7191C121.262 12.9623 121.355 13.1963 121.522 13.3728C121.689 13.5493 121.918 13.6548 122.16 13.6673C124.65 13.798 131.665 14.1675 134.8 14.3492C134.944 14.3576 135.088 14.3329 135.222 14.277C135.355 14.2211 135.474 14.1355 135.569 14.0266C135.664 13.9178 135.733 13.7887 135.77 13.6491C135.808 13.5095 135.813 13.3632 135.785 13.2213L135.766 13.1193C135.727 12.9174 135.624 12.7337 135.471 12.5957C135.319 12.4576 135.126 12.3727 134.921 12.3538C132.801 12.1598 126.408 11.6209 122.172 11.772C121.927 11.7817 121.696 11.8858 121.526 12.0624C121.357 12.239 121.262 12.4743 121.262 12.7191V12.7191Z" fill="#55A0C7"/><path d="M100.088 54.9619H144.596V95.0599C144.596 95.4605 144.437 95.8447 144.153 96.128C143.87 96.4113 143.486 96.5705 143.085 96.5705H101.615C101.209 96.5705 100.819 96.4092 100.532 96.122C100.245 95.8349 100.084 95.4455 100.084 95.0395V54.9619H100.088Z" fill="#2589BD"/><path d="M94.2485 56.4559L123.092 23.7802C123.285 23.5621 123.523 23.3892 123.79 23.274C124.057 23.1588 124.347 23.1041 124.638 23.1139C124.928 23.1237 125.214 23.1976 125.472 23.3304C125.731 23.4633 125.958 23.6517 126.135 23.8823L151.42 56.7223C151.59 56.9426 151.694 57.206 151.722 57.4828C151.75 57.7595 151.699 58.0385 151.576 58.288C151.454 58.5375 151.263 58.7476 151.027 58.8945C150.791 59.0413 150.518 59.119 150.24 59.1188H95.4496C95.1412 59.1188 94.8394 59.0298 94.5803 58.8624C94.3212 58.6951 94.116 58.4565 93.9892 58.1753C93.8623 57.8942 93.8193 57.5824 93.8653 57.2774C93.9113 56.9724 94.0444 56.6871 94.2485 56.4559Z" fill="#0071B6"/><path d="M135.922 88.8697C143.158 81.6328 143.158 69.8994 135.922 62.6625C128.686 55.4256 116.954 55.4256 109.718 62.6625C102.482 69.8994 102.482 81.6328 109.718 88.8697C116.954 96.1066 128.686 96.1066 135.922 88.8697Z" fill="#fff"/><path d="M135.922 88.8697C143.158 81.6328 143.158 69.8994 135.922 62.6625C128.686 55.4256 116.954 55.4256 109.718 62.6625C102.482 69.8994 102.482 81.6328 109.718 88.8697C116.954 96.1066 128.686 96.1066 135.922 88.8697Z" fill="#fff"/><path opacity=".19" d="M136.174 88.9415C143.41 81.7046 143.41 69.9712 136.174 62.7343C128.938 55.4974 117.206 55.4974 109.97 62.7343C102.734 69.9712 102.734 81.7046 109.97 88.9415C117.206 96.1784 128.938 96.1784 136.174 88.9415Z" fill="#FFD1BF"/><path d="M122.818 94.8906C112.274 94.8906 103.696 86.3109 103.696 75.7664C103.696 65.2219 112.275 56.6411 122.818 56.6411C133.362 56.6411 141.941 65.2208 141.941 75.7694C141.941 86.318 133.364 94.8906 122.818 94.8906ZM122.818 57.8292C112.929 57.8292 104.884 65.8751 104.884 75.7664C104.884 85.6577 112.93 93.7026 122.818 93.7026C132.706 93.7026 140.753 85.6566 140.753 75.7664C140.753 65.8761 132.709 57.8292 122.818 57.8292V57.8292Z" fill="#FF4800"/><path d="M124.545 89.0084C132.199 87.556 135.261 84.0633 134.803 79.0059C134.383 80.8839 133.148 81.6188 131.382 81.6076C133.554 78.7068 134.383 76.0847 133.933 73.726L133.444 74.122C133.461 72.6655 133.616 71.3152 134.057 70.1843C131.907 70.1618 130.215 71.2049 128.682 72.6339C129.611 69.5606 122.592 65.2677 127.859 62.1047C125.283 61.8587 122.54 62.7834 119.684 64.4859L120.408 63.3029C117.383 64.8839 116.556 68.145 116.768 72.2001C114.523 72.3818 113.823 71.1131 114.107 68.9197C112.672 69.8893 112.066 71.4305 112.168 73.4575L111.468 72.7482C111.003 76.0143 112.305 79.0008 114.748 81.3453C113.115 81.8923 111.912 80.9472 111.291 79.5642C111.106 85.3942 115.333 88.4389 123.09 89.2544L123.203 89.2371H123.053C120.332 89.1258 115.076 84.247 116.702 77.2769C117.015 78.9232 117.967 78.5823 118.948 80.1776C119.313 73.4341 123.744 73.8638 123.009 70.4415C125.121 73.8791 126.51 76.5542 125.714 79.8245C127.31 77.1564 128.728 78.5823 129.651 76.8502C130.149 82.4986 128.165 87.8561 124.545 89.0084Z" fill="#FF4800"/><path d="M107.423 16.5152C111.919 16.5152 115.563 12.8699 115.563 8.37331C115.563 3.87668 111.919 0.231445 107.423 0.231445C102.927 0.231445 99.2818 3.87668 99.2818 8.37331C99.2818 12.8699 102.927 16.5152 107.423 16.5152Z" fill="#2589BD"/><path d="M115.548 7.9375H99.2818C99.2818 7.9375 98.6317 12.456 105.899 24.8377C106.057 25.1003 106.28 25.3176 106.547 25.4686C106.813 25.6197 107.114 25.6994 107.42 25.7C107.727 25.7006 108.028 25.6221 108.295 25.4721C108.562 25.3221 108.786 25.1057 108.945 24.8438C116.209 12.4611 115.548 7.9375 115.548 7.9375Z" fill="#2589BD"/><path d="M107.419 25.9608V26.0068C107.069 26.0043 106.726 25.9112 106.424 25.7366C106.121 25.562 105.869 25.3118 105.692 25.0106C101.445 17.7751 99.889 13.2005 99.3318 10.6396C99.1753 10.0656 99.0816 9.47626 99.0522 8.88201C99.018 8.58747 99.0156 8.2901 99.045 7.99505L99.0665 7.8644C99.2228 5.75392 100.17 3.78028 101.719 2.33826C103.268 0.896251 105.304 0.0921886 107.42 0.0869141C111.862 0.0869141 115.535 3.53881 115.783 7.94605C115.797 8.09534 115.801 8.24532 115.796 8.39515V8.42475C115.796 9.22159 115.683 10.0144 115.46 10.7794C114.884 13.3372 113.317 17.8669 109.143 24.98C108.968 25.2813 108.716 25.5309 108.413 25.7032C108.11 25.8755 107.767 25.9644 107.419 25.9608V25.9608ZM99.5043 8.30329C99.5043 8.42475 99.5043 8.59928 99.5267 8.86159C99.5536 9.42283 99.6422 9.97939 99.791 10.5212V10.5304C100.34 13.0555 101.88 17.573 106.099 24.7605C106.234 24.9891 106.427 25.1784 106.658 25.31C106.889 25.4415 107.15 25.5107 107.415 25.5107V25.5107C107.681 25.5039 107.941 25.4313 108.171 25.2992C108.402 25.1672 108.596 24.98 108.736 24.7544C112.885 17.6863 114.433 13.1953 115.001 10.6692V10.6549C115.197 9.9286 115.289 9.17796 115.273 8.42577L115.225 8.39311C115.229 8.26029 115.243 8.12797 115.266 7.99709L115.289 7.9828C115.173 5.97284 114.291 4.0837 112.826 2.70362C111.36 1.32355 109.421 0.557367 107.408 0.562546C103.224 0.562546 99.7625 3.86747 99.5237 8.06547L99.5165 8.30635L99.5043 8.30329Z" fill="#55A0C7"/><path opacity=".8" d="M109.956 12.3152C112.151 10.9293 112.807 8.02599 111.422 5.83039C110.036 3.63479 107.133 2.97836 104.938 4.36421C102.742 5.75007 102.086 8.65342 103.472 10.849C104.857 13.0446 107.76 13.7011 109.956 12.3152Z" fill="#fff"/><path d="M107.449 13.3109C106.467 13.3117 105.507 13.0212 104.69 12.4761C103.873 11.9311 103.236 11.1559 102.86 10.2488C102.484 9.34167 102.385 8.34328 102.576 7.37996C102.767 6.41664 103.24 5.53167 103.934 4.837C104.628 4.14233 105.513 3.66918 106.476 3.4774C107.439 3.28563 108.437 3.38385 109.344 3.75964C110.252 4.13543 111.027 4.7719 111.573 5.58854C112.118 6.40517 112.409 7.36528 112.409 8.34738C112.407 9.66276 111.884 10.9238 110.955 11.8542C110.025 12.7846 108.764 13.3085 107.449 13.3109V13.3109ZM107.449 3.9085C106.571 3.9083 105.713 4.16846 104.983 4.65609C104.253 5.14372 103.684 5.83691 103.348 6.64799C103.012 7.45907 102.924 8.35161 103.095 9.21274C103.266 10.0739 103.689 10.8649 104.309 11.4858C104.93 12.1067 105.721 12.5295 106.582 12.7009C107.443 12.8723 108.335 12.7844 109.146 12.4485C109.957 12.1125 110.651 11.5436 111.138 10.8136C111.626 10.0836 111.886 9.22536 111.886 8.34738C111.884 7.1716 111.415 6.0448 110.584 5.21377C109.752 4.38274 108.625 3.91522 107.449 3.9136V3.9085Z" fill="#55A0C7"/><path d="M102.989 3.4526C102.978 3.45259 102.967 3.45012 102.957 3.44536C102.947 3.4406 102.938 3.43367 102.93 3.42505C102.923 3.41722 102.918 3.40813 102.915 3.39829C102.912 3.38845 102.91 3.37806 102.911 3.36772C102.912 3.35738 102.915 3.34729 102.919 3.33803C102.924 3.32878 102.931 3.32054 102.938 3.31379C104.261 2.17895 105.946 1.55512 107.689 1.55518C107.71 1.55518 107.73 1.56346 107.745 1.57819C107.759 1.59293 107.768 1.61292 107.768 1.63377C107.768 1.65461 107.759 1.6746 107.745 1.68934C107.73 1.70408 107.71 1.71236 107.689 1.71236C105.984 1.71242 104.335 2.32286 103.041 3.43321C103.027 3.44579 103.009 3.45269 102.989 3.4526V3.4526Z" fill="#55A0C7"/><path d="M100.469 8.93055C100.458 8.93055 100.448 8.92849 100.438 8.92448C100.429 8.92046 100.42 8.91458 100.413 8.90718C100.405 8.89977 100.4 8.89098 100.396 8.88133C100.392 8.87168 100.39 8.86135 100.39 8.85094C100.391 7.49319 100.772 6.16277 101.489 5.01017C101.5 4.99244 101.518 4.97984 101.538 4.97515C101.559 4.97046 101.58 4.97406 101.598 4.98516C101.616 4.99626 101.628 5.01395 101.633 5.03433C101.638 5.05472 101.634 5.07613 101.623 5.09386C100.924 6.22227 100.554 7.52356 100.555 8.85094C100.555 8.86203 100.553 8.873 100.549 8.88315C100.544 8.89331 100.538 8.90243 100.53 8.90992C100.521 8.91741 100.512 8.92312 100.501 8.92668C100.491 8.93023 100.48 8.93155 100.469 8.93055V8.93055Z" fill="#55A0C7"/><path d="M41.7663 88.8707C41.6214 100.027 44.0329 107.67 54.7486 109L55.016 107.414C45.8985 106.428 43.4369 99.5948 43.1777 88.2705L41.7663 88.8707Z" fill="#FF4800"/><path d="M43.7382 91.4845C45.115 90.9141 45.7688 89.3355 45.1985 87.9585C44.6282 86.5816 43.0498 85.9277 41.673 86.498C40.2962 87.0684 39.6424 88.647 40.2127 90.024C40.783 91.401 42.3614 92.0548 43.7382 91.4845Z" fill="#FF4800"/><path d="M73.5786 99.9751H54.4904C53.8451 99.9751 53.3219 100.498 53.3219 101.144V110.544C53.3219 111.19 53.8451 111.713 54.4904 111.713H73.5786C74.2239 111.713 74.7471 111.19 74.7471 110.544V101.144C74.7471 100.498 74.2239 99.9751 73.5786 99.9751Z" fill="#FF4800"/><path d="M76.0801 100.888C82.6876 94.2795 82.6876 83.5653 76.0801 76.9569C69.4726 70.3486 58.7598 70.3486 52.1523 76.957C45.5448 83.5653 45.5448 94.2795 52.1523 100.888C58.7598 107.496 69.4726 107.496 76.0801 100.888Z" fill="#FF4800"/><path d="M78.4893 102.43C78.45 102.43 78.4115 102.418 78.3789 102.396C78.3463 102.374 78.321 102.343 78.3062 102.307C78.2914 102.27 78.2878 102.23 78.2959 102.192C78.304 102.153 78.3234 102.118 78.3516 102.09C81.8253 98.6997 83.8182 94.0734 83.896 89.2195C83.9738 84.3657 82.1302 79.6778 78.7669 76.1776C78.7334 76.1393 78.7159 76.0896 78.718 76.0388C78.7202 75.988 78.7418 75.9399 78.7784 75.9046C78.815 75.8693 78.8638 75.8494 78.9147 75.8491C78.9656 75.8488 79.0146 75.8682 79.0516 75.9031C82.4877 79.4784 84.3714 84.2671 84.2922 89.2256C84.2131 94.1841 82.1775 98.9102 78.6291 102.374C78.5918 102.41 78.5415 102.431 78.4893 102.43V102.43Z" fill="#B5CEDB"/><path d="M44.7238 85.4133C44.7105 85.4143 44.6972 85.4143 44.684 85.4133C44.6585 85.4082 44.6342 85.3981 44.6126 85.3835C44.591 85.369 44.5725 85.3503 44.5582 85.3286C44.5439 85.3068 44.534 85.2825 44.5291 85.2569C44.5243 85.2313 44.5245 85.205 44.5299 85.1796C45.4131 80.8483 47.7934 76.9665 51.2532 74.2156C51.2943 74.1905 51.3431 74.1812 51.3905 74.1895C51.4379 74.1977 51.4806 74.223 51.5108 74.2605C51.5409 74.298 51.5564 74.3453 51.5542 74.3933C51.5521 74.4414 51.5325 74.4871 51.4991 74.5218C48.1127 77.2152 45.7827 81.0152 44.9177 85.2551C44.9075 85.2992 44.8829 85.3387 44.8478 85.3674C44.8127 85.396 44.7691 85.4122 44.7238 85.4133V85.4133Z" fill="#B5CEDB"/><path d="M51.2634 103.586C51.2181 103.586 51.1741 103.571 51.1389 103.542C47.8431 100.875 45.5421 97.1754 44.6074 93.0397C44.5999 93.0137 44.5978 92.9865 44.6012 92.9596C44.6046 92.9328 44.6135 92.907 44.6273 92.8837C44.6411 92.8604 44.6595 92.8402 44.6814 92.8243C44.7033 92.8084 44.7282 92.7972 44.7546 92.7913C44.7811 92.7855 44.8084 92.7851 44.835 92.7902C44.8615 92.7953 44.8868 92.8058 44.9091 92.821C44.9315 92.8363 44.9505 92.8559 44.9649 92.8788C44.9794 92.9017 44.989 92.9273 44.9932 92.954C45.9085 97.0023 48.1609 100.624 51.3869 103.235C51.4275 103.268 51.4534 103.316 51.4589 103.368C51.4645 103.42 51.4492 103.472 51.4165 103.513C51.3981 103.536 51.3749 103.554 51.3483 103.567C51.3218 103.58 51.2928 103.586 51.2634 103.586V103.586Z" fill="#B5CEDB"/><path d="M76.9371 101.719C76.8976 101.719 76.8591 101.707 76.8264 101.685C76.7937 101.663 76.7684 101.632 76.7537 101.595C76.739 101.558 76.7356 101.518 76.7439 101.48C76.7522 101.441 76.7719 101.406 76.8004 101.378C78.5925 99.6649 79.995 97.5857 80.9126 95.282C81.8302 92.9784 82.2415 90.5042 82.1184 88.0276C81.9954 85.5509 81.3409 83.1298 80.1995 80.9284C79.0581 78.7271 77.4564 76.7972 75.5033 75.2697C75.465 75.2364 75.4409 75.1897 75.4361 75.1392C75.4313 75.0886 75.4461 75.0382 75.4774 74.9982C75.5087 74.9583 75.5541 74.9319 75.6043 74.9245C75.6545 74.9171 75.7057 74.9292 75.7472 74.9584C77.7452 76.5207 79.3836 78.4947 80.5513 80.7464C81.7189 82.9981 82.3884 85.4747 82.5143 88.008C82.6401 90.5414 82.2194 93.0722 81.2807 95.4285C80.3419 97.7848 78.9072 99.9116 77.0739 101.664C77.0371 101.7 76.9881 101.719 76.9371 101.719V101.719Z" fill="#B5CEDB"/><path d="M52.483 102.666C52.4376 102.665 52.3938 102.649 52.3585 102.621C50.1433 100.826 48.3952 98.5219 47.263 95.905C46.1309 93.2882 45.6484 90.4364 45.8567 87.5927C46.0651 84.7491 46.958 81.998 48.4594 79.5741C49.9608 77.1503 52.0261 75.1256 54.4792 73.6728C54.5015 73.6594 54.5263 73.6505 54.5521 73.6467C54.578 73.6429 54.6043 73.6442 54.6296 73.6505C54.6549 73.6569 54.6787 73.6681 54.6996 73.6837C54.7206 73.6992 54.7382 73.7188 54.7516 73.7411C54.765 73.7635 54.7739 73.7883 54.7777 73.8141C54.7815 73.8399 54.7802 73.8663 54.7739 73.8916C54.7675 73.9169 54.7563 73.9407 54.7407 73.9616C54.7252 73.9826 54.7056 74.0003 54.6833 74.0137C52.2854 75.434 50.2665 77.4132 48.7986 79.7826C47.3308 82.1519 46.4577 84.8411 46.2536 87.6209C46.0495 90.4007 46.5205 93.1886 47.6265 95.747C48.7325 98.3053 50.4407 100.558 52.6054 102.314C52.6374 102.339 52.6606 102.375 52.6717 102.414C52.6829 102.454 52.6814 102.496 52.6676 102.534C52.6538 102.573 52.6284 102.606 52.5947 102.63C52.5611 102.654 52.521 102.666 52.4799 102.666H52.483Z" fill="#B5CEDB"/><path d="M48.1763 102.664C48.1489 102.665 48.1217 102.659 48.0966 102.648C48.0714 102.637 48.0489 102.62 48.0304 102.6C46.0645 100.455 44.5872 97.9086 43.7002 95.1371C43.6911 95.112 43.6871 95.0854 43.6885 95.0588C43.6899 95.0322 43.6966 95.0062 43.7083 94.9822C43.72 94.9583 43.7364 94.9369 43.7565 94.9195C43.7766 94.902 43.8001 94.8888 43.8254 94.8806C43.8508 94.8725 43.8775 94.8695 43.904 94.8719C43.9306 94.8743 43.9564 94.882 43.9798 94.8946C44.0033 94.9072 44.024 94.9245 44.0407 94.9452C44.0573 94.966 44.0696 94.99 44.0768 95.0156C44.9469 97.7332 46.3957 100.23 48.3233 102.334C48.3586 102.373 48.377 102.424 48.3746 102.476C48.3721 102.529 48.3489 102.578 48.31 102.613C48.2735 102.647 48.2257 102.665 48.1763 102.664V102.664Z" fill="#B5CEDB"/><path d="M81.8949 100.867C81.8584 100.867 81.8226 100.857 81.7914 100.838C81.7602 100.819 81.7349 100.792 81.7183 100.76C81.7016 100.727 81.6944 100.691 81.6973 100.654C81.7002 100.618 81.7131 100.583 81.7347 100.554C84.0866 97.2836 85.3918 93.3773 85.478 89.3502C85.5641 85.323 84.4273 81.3644 82.2174 77.9968C82.202 77.9751 82.1911 77.9506 82.1854 77.9246C82.1797 77.8986 82.1793 77.8717 82.1842 77.8455C82.1891 77.8194 82.1992 77.7945 82.214 77.7724C82.2287 77.7502 82.2478 77.7313 82.27 77.7166C82.2923 77.702 82.3172 77.692 82.3434 77.6873C82.3696 77.6825 82.3964 77.6831 82.4224 77.6889C82.4483 77.6948 82.4728 77.7058 82.4944 77.7214C82.516 77.7369 82.5343 77.7567 82.5481 77.7794C84.803 81.2146 85.9631 85.2531 85.8751 89.3615C85.7871 93.4699 84.4551 97.4549 82.0551 100.79C82.0363 100.815 82.012 100.835 81.9842 100.848C81.9564 100.861 81.9258 100.868 81.8949 100.867V100.867Z" fill="#B5CEDB"/><path d="M43.2165 85.69C43.2053 85.691 43.194 85.691 43.1828 85.69C43.1319 85.6796 43.0868 85.6502 43.0569 85.6077C43.0269 85.5652 43.0143 85.5128 43.0216 85.4614C43.6979 81.5237 45.5274 77.8752 48.2784 74.9781C48.3149 74.9424 48.3639 74.9223 48.4149 74.9219C48.466 74.9215 48.5153 74.9408 48.5524 74.9758C48.5896 75.0109 48.6117 75.0589 48.6143 75.11C48.6169 75.161 48.5996 75.211 48.5662 75.2496C45.8732 78.091 44.0826 81.667 43.4206 85.5257C43.4127 85.5733 43.3875 85.6164 43.3498 85.6467C43.3122 85.677 43.2648 85.6924 43.2165 85.69V85.69Z" fill="#B5CEDB"/><path d="M64.1161 104.131C72.504 104.131 79.3038 97.33 79.3038 88.9411C79.3038 80.5521 72.504 73.7515 64.1161 73.7515C55.7282 73.7515 48.9285 80.5521 48.9285 88.9411C48.9285 97.33 55.7282 104.131 64.1161 104.131Z" fill="#FF7640"/><path d="M64.0345 96.8469C68.3722 96.8469 71.8886 93.33 71.8886 88.9918C71.8886 84.6536 68.3722 81.1367 64.0345 81.1367C59.6968 81.1367 56.1804 84.6536 56.1804 88.9918C56.1804 93.33 59.6968 96.8469 64.0345 96.8469Z" fill="#FF7640"/><path d="M69.0136 93.9294C71.7632 91.1794 71.7632 86.721 69.0136 83.971C66.2641 81.2211 61.8061 81.2211 59.0566 83.971C56.307 86.721 56.307 91.1794 59.0566 93.9294C61.8061 96.6793 66.2641 96.6793 69.0136 93.9294Z" fill="#FF4800"/><path d="M65.0592 91.1991C66.3163 90.6784 66.9132 89.2371 66.3925 87.9799C65.8718 86.7227 64.4307 86.1257 63.1737 86.6465C61.9167 87.1672 61.3197 88.6085 61.8404 89.8657C62.3611 91.1229 63.8022 91.7199 65.0592 91.1991Z" fill="#FF7640"/><path d="M65.7354 89.1902C65.8803 88.2971 65.2739 87.4557 64.381 87.3107C63.4881 87.1657 62.6467 87.7722 62.5018 88.6652C62.3568 89.5583 62.9632 90.3997 63.8561 90.5447C64.749 90.6897 65.5904 90.0832 65.7354 89.1902Z" fill="#FF4800"/></svg>
