<svg width="95" height="91" viewBox="0 0 95 91" fill="none" xmlns="http://www.w3.org/2000/svg"><path d="M48.9134 9.56689H48.8573C47.9364 9.56689 47.1898 10.3135 47.1898 11.2345V19.1424C47.1898 20.0634 47.9364 20.81 48.8573 20.81H48.9134C49.8343 20.81 50.5809 20.0634 50.5809 19.1424V11.2345C50.5809 10.3135 49.8343 9.56689 48.9134 9.56689Z" fill="#84B6D0"/><path d="M48.9134 24.5576H48.8573C47.9364 24.5576 47.1898 25.3042 47.1898 26.2252V34.1331C47.1898 35.0541 47.9364 35.8007 48.8573 35.8007H48.9134C49.8343 35.8007 50.5809 35.0541 50.5809 34.1331V26.2252C50.5809 25.3042 49.8343 24.5576 48.9134 24.5576Z" fill="#2589BD"/><path d="M62.8862 8.23486L62.5913 20.8103L55.0811 26.2818H41.505L33.9948 20.8103L33.6982 8.23486H32.1361V22.5832L41.505 28.9447H55.0811L64.45 22.5832V8.23486H62.8862Z" fill="#2589BD"/><path d="M72.2797 34.4229H25.4947C24.3848 34.4229 23.4851 35.3227 23.4851 36.4327V37.1437C23.4851 38.2537 24.3848 39.1536 25.4947 39.1536H72.2797C73.3896 39.1536 74.2893 38.2537 74.2893 37.1437V36.4327C74.2893 35.3227 73.3896 34.4229 72.2797 34.4229Z" fill="#2589BD"/><path d="M64.4061 5.52441H32.3818C31.2719 5.52441 30.3721 6.42427 30.3721 7.53431V11.6015C30.3721 12.7115 31.2719 13.6114 32.3818 13.6114H64.4061C65.516 13.6114 66.4157 12.7115 66.4157 11.6015V7.53431C66.4157 6.42427 65.516 5.52441 64.4061 5.52441Z" fill="#2589BD"/><path d="M71.4758 1.28662H24.6908C23.5809 1.28662 22.6811 2.18648 22.6811 3.29651V4.00744C22.6811 5.11747 23.5809 6.01733 24.6908 6.01733H71.4758C72.5857 6.01733 73.4855 5.11747 73.4855 4.00744V3.29651C73.4855 2.18648 72.5857 1.28662 71.4758 1.28662Z" fill="#84B6D0"/><path d="M79.0668 0H16.8786C15.887 0 15.0831 0.803979 15.0831 1.79574V1.85542C15.0831 2.84718 15.887 3.65116 16.8786 3.65116H79.0668C80.0584 3.65116 80.8623 2.84718 80.8623 1.85542V1.79574C80.8623 0.803979 80.0584 0 79.0668 0Z" fill="#2589BD"/><path d="M30.3721 10.9359V12.4262C30.3731 12.7399 30.498 13.0404 30.7196 13.2624C30.9412 13.4843 31.2415 13.6097 31.5551 13.6111H65.2328C65.5465 13.6101 65.8471 13.485 66.0688 13.2629C66.2905 13.0408 66.4153 12.74 66.4157 12.4262V10.5532C54.4193 10.8797 42.6055 11.1307 30.3721 10.9359Z" fill="#2589BD"/><path d="M34.9355 28.6182C19.7957 31.1178 7.56759 35.6203 0.469798 44.1883C-0.727208 45.3591 0.934901 47.0109 1.97394 45.97C10.8848 36.0785 21.0822 32.3062 34.9355 28.6182Z" fill="#D0EFEF"/><path d="M60.1955 30.1519C75.1002 32.6094 87.1387 37.0452 94.1241 45.4797C95.3018 46.633 93.6678 48.2584 92.6445 47.2351C83.8724 37.4963 73.8329 33.7819 60.1955 30.1519Z" fill="#D0EFEF"/><path d="M60.6746 27.6611C74.6877 27.7085 86.3682 29.9887 94.0136 36.6767C95.2632 37.5544 94.0136 39.2887 92.9184 38.504C83.4441 30.891 73.6995 28.9689 60.6746 27.6611Z" fill="#D0EFEF"/><path d="M37.986 27.0431C23.0533 24.7383 10.1898 25.2877 0.796319 31.356C-0.699062 32.1161 0.315403 34.233 1.62298 33.5502C13.135 26.7587 23.8694 26.29 37.986 27.0431Z" fill="#D0EFEF"/><path d="M28.3273 41.5757C16.3503 47.8792 7.36752 55.0481 3.80986 64.1918C3.13413 65.5048 4.98229 66.4246 5.56499 65.2661C10.2723 54.5092 17.7579 48.5146 28.3273 41.5757Z" fill="#D0EFEF"/><path d="M76.211 38.8589C76.4462 41.6447 77.5204 45.696 77.6555 47.2846C77.8047 50.339 83.1492 49.2735 81.5749 46.5246C80.0549 45.0992 77.7117 41.4779 76.211 38.8589Z" fill="#D0EFEF"/><path d="M85.8785 49.0728C86.7052 51.7444 87.5336 54.4284 88.0058 55.9538C88.8061 58.9046 93.7977 56.7209 91.6705 54.374C89.8838 53.3032 87.9075 51.3108 85.8785 49.0728Z" fill="#D0EFEF"/><path d="M42.2806 41.4058C43.0477 44.095 43.8164 46.7982 44.2535 48.3324C45.1942 51.2428 39.8181 52.1381 40.3184 49.0082C41.2363 47.137 41.805 44.3881 42.2806 41.4058Z" fill="#D0EFEF"/><path d="M46.4141 53.2266C47.181 55.9158 48.1095 57.6571 48.5465 59.1948C49.4855 62.1052 44.1113 63.0005 44.6115 59.8706C45.5277 57.9959 45.9384 56.2072 46.4141 53.2266Z" fill="#D0EFEF"/><path d="M60.1955 43.4312C59.4303 46.1204 58.7037 52.8733 58.2649 54.4074C57.3259 57.3178 62.7001 58.2131 62.1999 55.0833C61.2854 53.212 60.6729 46.4135 60.1955 43.4312Z" fill="#D0EFEF"/><path d="M53.0573 61.8311C53.8226 64.522 54.5492 65.828 54.988 67.3639C55.927 70.2726 50.5527 71.1678 51.0529 68.038C51.9691 66.1738 52.5817 64.8134 53.0573 61.8311Z" fill="#D0EFEF"/><path d="M70.0647 82.1475C70.8317 84.8384 71.5565 86.1444 71.9953 87.6804C72.9343 90.589 67.5602 91.4843 68.0604 88.3544C68.9748 86.485 69.5873 85.1316 70.0647 82.1475Z" fill="#D0EFEF"/></svg>
