<svg width="77" height="22" viewBox="0 0 77 22" fill="none" xmlns="http://www.w3.org/2000/svg"><path d="M8.35425 5.73693H0.92825V10.599H6.81335V11.4951H0.92825V17.4439H0V4.85986H8.35425V5.73693Z" fill="#2589BD"/><path d="M12.3269 16.5668H19.6786V17.4439H11.3986V4.85986H12.3269V16.5668Z" fill="#2589BD"/><path d="M22.5797 17.4439V4.85986H30.9525V5.73693H23.5079V10.599H29.393V11.4951H23.5079V16.5668H31.2495V17.4439H22.5797Z" fill="#2589BD"/><path d="M43.6752 4.85986V12.8488C43.6752 14.4123 43.2606 15.6008 42.4313 16.4143C41.6145 17.2278 40.4572 17.6346 38.9597 17.6346C37.4621 17.6346 36.2987 17.2278 35.4694 16.4143C34.6402 15.6008 34.2256 14.4123 34.2256 12.8488V4.85986H35.1538V12.6582C35.1538 14.0055 35.4756 15.0288 36.1192 15.7279C36.7628 16.4143 37.7096 16.7575 38.9597 16.7575C40.1973 16.7575 41.138 16.4143 41.7815 15.7279C42.4251 15.0288 42.7469 14.0055 42.7469 12.6582V4.85986H43.6752Z" fill="#2589BD"/><path d="M55.9192 17.4439H54.8424L51.1109 11.7811L47.3236 17.4439H46.2283L50.6096 10.9803L46.5996 4.85986H47.7135L51.1851 10.1795L54.7125 4.85986H55.7707L51.6864 10.9612L55.9192 17.4439Z" fill="#2589BD"/><path d="M66.0439 17.2479C66.76 16.4364 67.3428 15.513 67.7583 14.4889C68.2365 13.2968 68.4848 12.0404 68.4848 10.7392C68.4848 9.43806 68.2365 8.17885 67.7583 6.98961C67.3428 5.96545 66.7704 5.03084 66.0439 4.23055C65.908 4.07385 65.908 3.8304 66.0439 3.6737L67.0527 2.56C67.199 2.39211 67.4473 2.39211 67.5936 2.56C68.5083 3.58416 69.2453 4.75102 69.7758 6.055C70.3795 7.54645 70.68 9.11626 70.68 10.7504C70.68 12.3762 70.3795 13.9544 69.7758 15.4459C69.2453 16.747 68.5188 17.9167 67.5936 18.9409C67.4473 19.1088 67.199 19.1088 67.0527 18.9409L66.0439 17.8272C65.9106 17.6593 65.9002 17.4046 66.0439 17.2479Z" fill="#00A1DF"/><path d="M70.8185 19.1496C71.7733 18.1006 72.5503 16.9069 73.1044 15.583C73.742 14.0421 74.073 12.4179 74.073 10.7359C74.073 9.05392 73.742 7.42617 73.1044 5.88885C72.5503 4.56494 71.7872 3.35679 70.8185 2.32226C70.6374 2.1197 70.6374 1.805 70.8185 1.60243L72.1636 0.162775C72.3587 -0.0542584 72.6897 -0.0542584 72.8848 0.162775C74.1044 1.48668 75.087 2.99507 75.7944 4.6807C76.5993 6.60868 77 8.63794 77 10.7504C77 12.852 76.5993 14.8921 75.7944 16.8201C75.087 18.5021 74.1183 20.0141 72.8848 21.338C72.6897 21.5551 72.3587 21.5551 72.1636 21.338L70.8185 19.8984C70.6408 19.6813 70.6269 19.3522 70.8185 19.1496Z" fill="#00A1DF"/><path d="M63.6454 10.7416C63.6454 9.63215 63.2344 8.59972 62.4859 7.77696C62.3443 7.62833 62.3552 7.39743 62.4968 7.25942L63.5474 6.2031C63.6999 6.04385 63.9693 6.04386 64.1218 6.21372C65.2895 7.45847 65.94 9.05357 65.94 10.7522C65.94 12.4508 65.3004 14.0459 64.1218 15.2906C63.9693 15.4499 63.7107 15.4605 63.5474 15.3012L62.4968 14.2449C62.3552 14.0963 62.3443 13.876 62.4859 13.7274C63.2453 12.8834 63.6454 11.8483 63.6454 10.7416Z" fill="#0071B6"/></svg>
