<svg width="49" height="49" viewBox="0 0 49 49" fill="none" xmlns="http://www.w3.org/2000/svg"><path d="M43.7696 18.7847L44.1736 19.3564L43.7696 18.7847C41.839 20.1493 39.4427 20.3658 37.3885 19.5718C36.4941 19.2261 35.3816 19.2026 34.49 19.8328L17.6468 31.7373C16.7348 32.3819 16.3878 33.4717 16.4462 34.4569C16.5899 36.8821 15.5151 39.3213 13.3878 40.8249C10.1123 43.14 5.58014 42.3614 3.26505 39.0859C0.949951 35.8104 1.72853 31.2783 5.00404 28.9632C7.13137 27.4596 9.78943 27.2605 12.0277 28.2054C12.9369 28.5892 14.08 28.6257 14.992 27.9811L31.8351 16.0765C32.7268 15.4463 33.0758 14.3898 33.0484 13.4312C32.9855 11.2299 33.9894 9.04321 35.92 7.67869L35.5159 7.10705L35.92 7.67868C37.3858 6.64257 39.119 6.26896 40.7683 6.49609C41.1491 6.54853 41.3005 6.76602 41.3283 7.0266C41.3603 7.3272 41.2183 7.73019 40.8261 8.00741L39.88 8.67609C39.0924 9.23277 38.6615 10.1673 38.7497 11.1278L38.8553 12.2776C38.9435 13.2384 39.5377 14.0791 40.414 14.4829L41.4626 14.9662C42.3386 15.3698 43.3634 15.2755 44.151 14.7188L45.0971 14.0502C45.4893 13.7729 45.9166 13.7736 46.1892 13.9041C46.4256 14.0172 46.5801 14.2325 46.5024 14.609C46.1661 16.2396 45.2355 17.7487 43.7696 18.7847ZM6.17454 37.0295L6.74617 36.6255L6.17455 37.0295C7.3542 38.6984 9.66327 39.0943 11.3314 37.9154L10.9274 37.3438L11.3314 37.9154C13.0003 36.7359 13.3969 34.4274 12.2173 32.7585C11.0377 31.0898 8.72936 30.6931 7.06044 31.8727C5.3923 33.0517 4.99491 35.3605 6.17454 37.0295Z" stroke="#0071B6" stroke-width="1.4"/></svg>
