<svg width="6" height="6" viewBox="0 0 6 6" fill="none" xmlns="http://www.w3.org/2000/svg"><path transform="rotate(-44.762 1.06 .318) skewX(.002)" fill="#000" d="M0 0H.993V7.258H0z"/><path transform="rotate(-134.754 1.622 2.79) skewX(-.002)" fill="#000" d="M0 0H.993V7.258H0z"/><path d="M0 5.24249C0 5.44478 0.0788335 5.63499 0.221888 5.77812C0.364942 5.92128 0.555236 6 0.757531 6C0.959989 6 1.15017 5.92125 1.2929 5.77812L2.99997 4.07112L4.70664 5.77782C4.84964 5.92095 5.03982 5.9997 5.24228 5.9997C5.44474 5.9997 5.63511 5.92092 5.77776 5.77782C5.92076 5.63469 5.99967 5.44448 5.99967 5.24219C5.99967 5.0399 5.92076 4.84969 5.77776 4.70656L4.07118 2.99995L5.77811 1.29306C5.92109 1.15001 6 0.9598 6 0.75751C6 0.555221 5.92109 0.364932 5.77811 0.221882C5.63511 0.0788314 5.44493 0 5.24247 0C5.04015 0 4.84996 0.0788314 4.70699 0.221909L3.00014 1.92893L1.29309 0.221909C1.1502 0.0788314 0.959989 0 0.757694 0C0.555236 0 0.364942 0.0788314 0.222051 0.221909C0.0789968 0.364959 0.000136061 0.555248 0.000136061 0.757538C0.000136061 0.959827 0.0789696 1.15001 0.222051 1.29308L1.92912 2.99997L0.221888 4.70686C0.0788335 4.84999 0 5.0402 0 5.24249ZM0.45866 4.94379L2.28405 3.11829C2.31551 3.08694 2.33306 3.04444 2.33306 3.00008C2.33306 2.9557 2.31548 2.91306 2.28405 2.88177L0.45866 1.05643C0.378684 0.976535 0.334791 0.87041 0.334791 0.75751C0.334791 0.644529 0.37882 0.538296 0.45866 0.458485C0.538637 0.378674 0.644546 0.334618 0.757694 0.334618C0.870597 0.334618 0.976888 0.378674 1.05648 0.458485L2.88185 2.28374C2.9446 2.34649 3.05573 2.34649 3.11845 2.28374L4.94357 0.458485C5.10323 0.298672 5.3818 0.298999 5.54148 0.458485C5.6214 0.538459 5.66535 0.644501 5.66535 0.75751C5.66535 0.87041 5.6214 0.976725 5.54148 1.05643L3.71628 2.8816C3.65091 2.94702 3.65091 3.05276 3.71628 3.11826L5.54118 4.94295C5.62107 5.02287 5.66486 5.12907 5.66486 5.24197C5.66486 5.35487 5.62107 5.46111 5.54101 5.54097C5.38182 5.70062 5.10306 5.70078 4.94327 5.54097L3.11845 3.71628C3.05301 3.65079 2.94729 3.65079 2.88185 3.71628L1.05632 5.54162C0.897238 5.70125 0.618477 5.70141 0.458687 5.54162C0.378711 5.4617 0.334818 5.3555 0.334818 5.2426C0.334818 5.12975 0.378684 5.02355 0.45866 4.94379Z" fill="#000"/></svg>
