<svg width="23" height="22" viewBox="0 0 23 22" fill="none" xmlns="http://www.w3.org/2000/svg"><rect y=".5" width="23" height="21" rx="3" fill="#FFB600"/><path d="M10.201 5.75C10.7783 4.75 12.2217 4.75 12.799 5.75L17.5622 14C18.1395 15 17.4178 16.25 16.2631 16.25H6.73686C5.58216 16.25 4.86047 15 5.43782 14L10.201 5.75Z" fill="#fff" stroke="#fff"/><path d="M12.2789 6.58V10.012L12.1349 12.004H11.4149L11.2709 10.012V6.58H12.2789ZM11.7749 13.06C12.0069 13.06 12.1949 13.132 12.3389 13.276C12.4829 13.42 12.5549 13.608 12.5549 13.84C12.5549 14.072 12.4829 14.26 12.3389 14.404C12.1949 14.548 12.0069 14.62 11.7749 14.62C11.5429 14.62 11.3549 14.548 11.2109 14.404C11.0669 14.26 10.9949 14.072 10.9949 13.84C10.9949 13.608 11.0669 13.42 11.2109 13.276C11.3549 13.132 11.5429 13.06 11.7749 13.06Z" fill="#FFB600"/></svg>
