<svg width="83" height="83" viewBox="0 0 83 83" fill="none" xmlns="http://www.w3.org/2000/svg">
<rect x="0.222656" y="0.618164" width="82" height="82" rx="41" fill="#0E0E2C"/>
<g clip-path="url(#clip0)">
<path d="M41.2226 55.9676C40.6907 55.9676 40.2607 55.5372 40.2607 55.0058V48.2724C40.2607 47.741 40.6912 47.3105 41.2226 47.3105C41.754 47.3105 42.1844 47.741 42.1844 48.2724V55.0058C42.1844 55.5372 41.7545 55.9676 41.2226 55.9676Z" fill="#DBD9DC"/>
<path d="M28.2013 55.6713C27.9128 55.6713 27.628 55.5425 27.4382 55.2964L22.3669 48.7204C22.043 48.2995 22.1208 47.6953 22.5416 47.3713C22.9625 47.0456 23.5663 47.1261 23.8907 47.5461L28.962 54.1225C29.286 54.5433 29.2082 55.1471 28.7873 55.4711C28.6126 55.6067 28.406 55.6713 28.2013 55.6713Z" fill="#DBD9DC"/>
<path d="M34.9567 56.1732C34.5754 56.1732 34.2137 55.9448 34.0631 55.5681L31.2058 48.4257C31.0083 47.9324 31.249 47.3724 31.7422 47.1753C32.2308 46.9788 32.7941 47.2167 32.9925 47.7118L35.8498 54.8542C36.0473 55.3474 35.8066 55.9075 35.3134 56.1045C35.1969 56.1514 35.0759 56.1732 34.9567 56.1732Z" fill="#DBD9DC"/>
<path d="M54.2439 55.6719C54.0391 55.6719 53.8326 55.6073 53.6579 55.4717C53.237 55.1478 53.1592 54.544 53.4831 54.1231L58.5544 47.5467C58.8798 47.1259 59.4826 47.0453 59.9035 47.372C60.3244 47.696 60.4022 48.3002 60.0782 48.721L55.0069 55.297C54.8172 55.5436 54.5323 55.6719 54.2439 55.6719Z" fill="#DBD9DC"/>
<path d="M47.4885 56.1729C47.3693 56.1729 47.2483 56.151 47.1318 56.1042C46.6386 55.9067 46.3979 55.3471 46.5954 54.8539L49.4527 47.711C49.6502 47.216 50.2144 46.9775 50.703 47.1746C51.1963 47.372 51.4365 47.9317 51.2395 48.4249L48.3821 55.5677C48.2315 55.9445 47.8703 56.1729 47.4885 56.1729Z" fill="#DBD9DC"/>
<path d="M15.252 42.501V47.3102C15.252 48.3726 16.1132 49.2339 17.1756 49.2339H65.2694C66.3318 49.2339 67.1935 48.3726 67.1935 47.3102V42.501H15.252Z" fill="#DBD9DC"/>
<path d="M30.642 46.3484H67.1935V42.501H15.252V47.3102C15.252 48.3726 16.1132 49.2339 17.1756 49.2339H28.7183V48.2721C28.7183 47.2097 29.5796 46.3484 30.642 46.3484Z" fill="#DBD9DC"/>
<path d="M70.0788 32.8828H12.3661C11.8347 32.8828 11.4043 33.3132 11.4043 33.8447V42.5017C11.4043 43.5641 12.2656 44.4254 13.328 44.4254H69.117C70.1794 44.4254 71.0407 43.5641 71.0407 42.5017V33.8447C71.0407 33.3132 70.6102 32.8828 70.0788 32.8828Z" fill="#DBD9DC"/>
<path d="M25.8325 38.6544V32.8828H12.3661C11.8347 32.8828 11.4043 33.3137 11.4043 33.8447V42.5017C11.4043 43.5641 12.2656 44.4254 13.328 44.4254H69.117C70.1794 44.4254 71.0407 43.5641 71.0407 42.5017H29.6799C27.5551 42.5017 25.8325 40.7792 25.8325 38.6544Z" fill="#DBD9DC"/>
<path d="M53.7266 57.8913H28.7176C27.6552 57.8913 26.7939 57.03 26.7939 55.9676C26.7939 54.9048 27.6552 54.0439 28.7176 54.0439H53.7266C54.789 54.0439 55.6503 54.9052 55.6503 55.9676C55.6503 57.03 54.789 57.8913 53.7266 57.8913Z" fill="#DBD9DC"/>
<path d="M35.5252 54.0439H28.7176C27.6552 54.0439 26.7939 54.9048 26.7939 55.9676C26.7939 57.03 27.6552 57.8913 28.7176 57.8913H53.7266C54.789 57.8913 55.6503 57.03 55.6503 55.9676H37.4489C36.3865 55.9676 35.5252 55.1063 35.5252 54.0439Z" fill="#DBD9DC"/>
</g>
<defs>
<clipPath id="clip0">
<rect width="59.6364" height="59.6364" fill="white" transform="translate(11.4043 15.5273)"/>
</clipPath>
</defs>
</svg>
