<svg width="26" height="26" viewBox="0 0 26 26" fill="none" xmlns="http://www.w3.org/2000/svg"><rect x="1" y="1" width="24" height="24" rx="12" fill="#0E0E2C" stroke="#FFB600" stroke-width="2"/><g clip-path="url(#a)" fill="#DBD9DC"><path d="M13 16.8497C12.8573 16.8497 12.7419 16.7343 12.7419 16.5917V14.7852C12.7419 14.6426 12.8574 14.5271 13 14.5271C13.1426 14.5271 13.2581 14.6426 13.2581 14.7852V16.5917C13.2581 16.7343 13.1427 16.8497 13 16.8497Z"/><path d="M9.5064 16.7703C9.42901 16.7703 9.35259 16.7358 9.30169 16.6697L7.94109 14.9055C7.85418 14.7925 7.87505 14.6304 7.98797 14.5435C8.10088 14.4561 8.26287 14.4777 8.34991 14.5904L9.7105 16.3548C9.79742 16.4677 9.77654 16.6297 9.66363 16.7166C9.61675 16.753 9.56133 16.7703 9.5064 16.7703Z"/><path d="M11.3188 16.905C11.2165 16.905 11.1195 16.8437 11.0791 16.7426L10.3125 14.8263C10.2595 14.694 10.3241 14.5438 10.4564 14.4909C10.5875 14.4382 10.7386 14.502 10.7918 14.6348L11.5584 16.5511C11.6114 16.6834 11.5468 16.8337 11.4145 16.8865C11.3833 16.8991 11.3508 16.905 11.3188 16.905Z"/><path d="M16.4936 16.7705C16.4387 16.7705 16.3832 16.7532 16.3364 16.7168C16.2234 16.6299 16.2026 16.4679 16.2895 16.355L17.6501 14.5906C17.7374 14.4777 17.8991 14.4561 18.012 14.5437C18.1249 14.6306 18.1458 14.7927 18.0589 14.9056L16.6983 16.6699C16.6474 16.7361 16.571 16.7705 16.4936 16.7705Z"/><path d="M14.681 16.9049C14.649 16.9049 14.6165 16.899 14.5853 16.8865C14.453 16.8335 14.3884 16.6833 14.4414 16.551L15.208 14.6346C15.261 14.5018 15.4123 14.4378 15.5434 14.4907C15.6757 14.5437 15.7402 14.6938 15.6873 14.8262L14.9207 16.7425C14.8803 16.8436 14.7834 16.9049 14.681 16.9049Z"/><path d="M6.03223 13.2368V14.5271C6.03223 14.8121 6.26331 15.0432 6.54834 15.0432H19.4515C19.7366 15.0432 19.9678 14.8121 19.9678 14.5271V13.2368H6.03223Z"/><path d="M10.1613 14.269H19.9678V13.2368H6.03223V14.5271C6.03223 14.8121 6.26331 15.0432 6.54834 15.0432H9.64514V14.7852C9.64514 14.5001 9.87622 14.269 10.1613 14.269Z"/><path d="M20.7419 10.6562H5.25806C5.11548 10.6562 5 10.7717 5 10.9143V13.2369C5 13.522 5.23108 13.7531 5.51611 13.7531H20.4839C20.7689 13.7531 21 13.522 21 13.2369V10.9143C21 10.7717 20.8845 10.6562 20.7419 10.6562Z"/><path d="M8.87097 12.2047V10.6562H5.25806C5.11548 10.6562 5 10.7719 5 10.9143V13.2369C5 13.522 5.23108 13.7531 5.51611 13.7531H20.4839C20.7689 13.7531 21 13.522 21 13.2369H9.9032C9.33313 13.2369 8.87097 12.7748 8.87097 12.2047Z"/><path d="M16.3547 17.366H9.64502C9.35999 17.366 9.12891 17.1349 9.12891 16.8499C9.12891 16.5647 9.35999 16.3337 9.64502 16.3337H16.3547C16.6398 16.3337 16.8709 16.5648 16.8709 16.8499C16.8709 17.1349 16.6398 17.366 16.3547 17.366Z"/><path d="M11.4714 16.3337H9.64502C9.35999 16.3337 9.12891 16.5647 9.12891 16.8499C9.12891 17.1349 9.35999 17.366 9.64502 17.366H16.3547C16.6398 17.366 16.8709 17.1349 16.8709 16.8499H11.9875C11.7025 16.8499 11.4714 16.6188 11.4714 16.3337Z"/></g><defs><clipPath id="a"><path fill="#fff" transform="translate(5 6)" d="M0 0H16V16H0z"/></clipPath></defs></svg>
