<svg width="91" height="39" viewBox="0 0 91 39" fill="none" xmlns="http://www.w3.org/2000/svg">
<path d="M45.4997 35.708C44.6881 35.708 44.032 35.0512 44.032 34.2403V23.9657C44.032 23.1548 44.6888 22.498 45.4997 22.498C46.3106 22.498 46.9674 23.1548 46.9674 23.9657V34.2403C46.9674 35.0512 46.3113 35.708 45.4997 35.708Z" fill="#0071B6"/>
<path d="M25.6301 35.256C25.19 35.256 24.7554 35.0595 24.4658 34.6839L16.7275 24.6495C16.2331 24.0073 16.3519 23.0853 16.9941 22.591C17.6363 22.0939 18.5576 22.2168 19.0526 22.8576L26.791 32.8927C27.2853 33.5349 27.1666 34.4562 26.5244 34.9505C26.2578 35.1574 25.9426 35.256 25.6301 35.256Z" fill="#0071B6"/>
<path d="M35.9388 36.0206C35.357 36.0206 34.8051 35.6721 34.5753 35.0973L30.2152 24.1985C29.9139 23.4459 30.2812 22.5913 31.0338 22.2907C31.7794 21.9907 32.6389 22.3539 32.9416 23.1092L37.3017 34.0079C37.603 34.7605 37.2357 35.6152 36.4831 35.9158C36.3054 35.9873 36.1207 36.0206 35.9388 36.0206Z" fill="#0071B6"/>
<path d="M65.37 35.2565C65.0575 35.2565 64.7423 35.1579 64.4757 34.951C63.8335 34.4567 63.7148 33.5354 64.2091 32.8932L71.9475 22.8581C72.4439 22.2159 73.3638 22.093 74.006 22.5915C74.6482 23.0859 74.767 24.0079 74.2726 24.6501L66.5343 34.6844C66.2448 35.0607 65.8101 35.2565 65.37 35.2565Z" fill="#0071B6"/>
<path d="M55.0612 36.0207C54.8793 36.0207 54.6946 35.9873 54.5169 35.9158C53.7643 35.6145 53.397 34.7606 53.6984 34.008L58.0584 23.1085C58.3597 22.3532 59.2206 21.9894 59.9663 22.29C60.7189 22.5913 61.0854 23.4453 60.7848 24.1979L56.4248 35.0973C56.195 35.6721 55.6437 36.0207 55.0612 36.0207Z" fill="#0071B6"/>
<path d="M5.87109 15.1597V22.4982C5.87109 24.1193 7.18536 25.4335 8.80649 25.4335H82.1934C83.8146 25.4335 85.1295 24.1193 85.1295 22.4982V15.1597H5.87109Z" fill="#0071B6"/>
<path d="M29.3549 21.0305H85.1295V15.1597H5.87109V22.4982C5.87109 24.1193 7.18536 25.4335 8.80649 25.4335H26.4195V23.9659C26.4195 22.3447 27.7338 21.0305 29.3549 21.0305Z" fill="#0071B6"/>
<path d="M89.5323 0.481934H1.4677C0.656784 0.481934 0 1.13872 0 1.94963V15.1596C0 16.7807 1.31426 18.095 2.93539 18.095H88.0646C89.6857 18.095 91 16.7807 91 15.1596V1.94963C91 1.13872 90.3432 0.481934 89.5323 0.481934Z" fill="#0071B6"/>
<path d="M22.0162 9.28881V0.481934H1.4677C0.656784 0.481934 0 1.13941 0 1.94963V15.1596C0 16.7807 1.31426 18.095 2.93539 18.095H88.0646C89.6857 18.095 91 16.7807 91 15.1596H27.8869C24.6447 15.1596 22.0162 12.5311 22.0162 9.28881Z" fill="#0071B6"/>
<path d="M64.5808 38.6442H26.4193C24.7981 38.6442 23.4839 37.33 23.4839 35.7088C23.4839 34.087 24.7981 32.7734 26.4193 32.7734H64.5808C66.2019 32.7734 67.5162 34.0877 67.5162 35.7088C67.5162 37.33 66.2019 38.6442 64.5808 38.6442Z" fill="#0071B6"/>
<path d="M36.807 32.7734H26.4193C24.7981 32.7734 23.4839 34.087 23.4839 35.7088C23.4839 37.33 24.7981 38.6442 26.4193 38.6442H64.5808C66.2019 38.6442 67.5162 37.33 67.5162 35.7088H39.7424C38.1213 35.7088 36.807 34.3946 36.807 32.7734Z" fill="#0071B6"/>
</svg>
