<svg width="83" height="83" viewBox="0 0 83 83" fill="none" xmlns="http://www.w3.org/2000/svg">
<rect x="0.818359" y="0.618164" width="82" height="82" rx="41" fill="#0E0E2C"/>
<g clip-path="url(#clip0)">
<path d="M41.8183 28.6514V20.9634C41.8183 19.1623 40.3582 17.7021 38.557 17.7021H36.3829C35.9715 17.7021 35.5953 17.9344 35.411 18.3022L31.0626 26.9989C30.9874 27.1503 30.948 27.3169 30.9474 27.486V28.6514C27.2035 29.1917 24.4249 32.4001 24.4248 36.1828V64.4471C24.4248 66.2483 25.8849 67.7084 27.6861 67.7084H45.0796C46.8807 67.7084 48.3409 66.2483 48.3409 64.4471V36.1828C48.3408 32.4001 45.5622 29.1917 41.8183 28.6514Z" fill="#FF4800"/>
<path d="M25.3478 30.9119C24.7474 30.9119 24.2606 30.4252 24.2607 29.8248C24.2607 29.6557 24.3002 29.489 24.3759 29.3378C25.7984 26.8346 27.8819 24.7707 30.3984 23.3719C30.9597 23.1587 31.5876 23.4411 31.8007 24.0024C32.0138 24.5637 31.7315 25.1916 31.1702 25.4047C29.168 26.6069 27.5006 28.2937 26.3218 30.3097C26.1378 30.6789 25.7604 30.9123 25.3478 30.9119Z" fill="#FF4800"/>
<path d="M36.4916 32.2698C33.3396 32.2698 30.7842 30.5357 30.7842 28.3968V20.6513C30.7842 18.5124 33.3396 16.7783 36.4916 16.7783C39.6435 16.7783 42.199 18.5124 42.199 20.6513V28.3968C42.199 30.5357 39.6435 32.2698 36.4916 32.2698Z" fill="#FF4800"/>
<path d="M45.0801 24.225H40.7317C40.1313 24.225 39.6445 23.7383 39.6445 23.1379C39.6445 22.5375 40.1313 22.0508 40.7317 22.0508H45.0801C45.6804 22.0508 46.1672 22.5375 46.1672 23.1379C46.1672 23.7383 45.6804 24.225 45.0801 24.225Z" fill="#FF4800"/>
<path d="M63.1424 15.7592C62.8797 15.5507 62.5344 15.4774 62.2097 15.5614L44.8162 19.9098C44.3321 20.0306 43.9923 20.4653 43.9922 20.9643V25.3127C43.9923 25.8117 44.3321 26.2465 44.8162 26.3672L62.2097 30.7156C62.2957 30.7374 62.384 30.7484 62.4727 30.7482C63.0731 30.7482 63.5598 30.2615 63.5598 29.6611V16.616C63.5599 16.2813 63.4059 15.9654 63.1424 15.7592Z" fill="#FF4800"/>
</g>
<defs>
<clipPath id="clip0">
<rect width="52.1818" height="52.1818" fill="white" transform="translate(15.7275 15.5273)"/>
</clipPath>
</defs>
</svg>
