<svg width="26" height="26" viewBox="0 0 26 26" fill="none" xmlns="http://www.w3.org/2000/svg"><rect x="1" y="1" width="24" height="24" rx="12" fill="#0E0E2C" stroke="#31D0AA" stroke-width="2"/><g clip-path="url(#a)"><path d="M13 9.52109V7.45847C13 6.97524 12.6083 6.5835 12.1251 6.5835H11.5418C11.4314 6.5835 11.3305 6.64581 11.281 6.74449L10.1144 9.07775C10.0942 9.11836 10.0836 9.16306 10.0834 9.20842V9.52109C9.079 9.66606 8.33352 10.5268 8.3335 11.5417V19.1248C8.3335 19.6081 8.72524 19.9998 9.20847 19.9998H13.875C14.3583 19.9998 14.75 19.6081 14.75 19.1248V11.5417C14.75 10.5268 14.0045 9.66606 13 9.52109Z" fill="#FF4800"/><path d="M8.58119 10.1277C8.42011 10.1277 8.28952 9.99712 8.28955 9.83604C8.28955 9.79068 8.30013 9.74594 8.32045 9.70539C8.7021 9.03379 9.26108 8.48007 9.93623 8.10476C10.0868 8.04759 10.2553 8.12333 10.3125 8.27393C10.3696 8.42454 10.2939 8.593 10.1433 8.65017C9.60614 8.97271 9.15878 9.42526 8.84251 9.96614C8.79315 10.0652 8.6919 10.1278 8.58119 10.1277Z" fill="red"/><path d="M11.5708 10.4919C10.7251 10.4919 10.0396 10.0267 10.0396 9.45286V7.37478C10.0396 6.80093 10.7251 6.33569 11.5708 6.33569C12.4165 6.33569 13.1021 6.80093 13.1021 7.37478V9.45286C13.1021 10.0267 12.4165 10.4919 11.5708 10.4919Z" fill="red"/><path d="M13.8751 8.33358H12.7084C12.5473 8.33358 12.4167 8.20299 12.4167 8.04191C12.4167 7.88083 12.5473 7.75024 12.7084 7.75024H13.8751C14.0361 7.75024 14.1667 7.88083 14.1667 8.04191C14.1667 8.20299 14.0361 8.33358 13.8751 8.33358Z" fill="red"/><path d="M18.7211 6.06221C18.6506 6.00627 18.558 5.98661 18.4709 6.00914L13.8043 7.17578C13.6744 7.20818 13.5833 7.32483 13.5833 7.4587V8.62535C13.5833 8.75922 13.6744 8.87586 13.8043 8.90826L18.4709 10.0749C18.4939 10.0808 18.5177 10.0837 18.5414 10.0837C18.7025 10.0837 18.8331 9.95307 18.8331 9.79199V6.29209C18.8331 6.20229 18.7918 6.11753 18.7211 6.06221Z" fill="red"/></g><defs><clipPath id="a"><path fill="#fff" transform="translate(6 6)" d="M0 0H14V14H0z"/></clipPath></defs></svg>
