<svg width="22" height="22" viewBox="0 0 22 22" fill="none" xmlns="http://www.w3.org/2000/svg">
<rect width="22" height="22" rx="11" fill="#0E0E2C"/>
<g clip-path="url(#clip0)">
<path d="M11 7.52109V5.45847C11 4.97524 10.6083 4.5835 10.1251 4.5835H9.54176C9.43138 4.5835 9.33045 4.64581 9.28102 4.74449L8.11437 7.07775C8.09419 7.11836 8.08361 7.16306 8.08345 7.20842V7.52109C7.079 7.66606 6.33352 8.52685 6.3335 9.54171V17.1248C6.3335 17.6081 6.72524 17.9998 7.20847 17.9998H11.875C12.3583 17.9998 12.75 17.6081 12.75 17.1248V9.54171C12.75 8.52685 12.0045 7.66606 11 7.52109Z" fill="#FF4800"/>
<path d="M6.58107 8.12746C6.41999 8.12746 6.2894 7.99687 6.28943 7.83579C6.28943 7.79043 6.30001 7.7457 6.32033 7.70515C6.70198 7.03355 7.26095 6.47983 7.93611 6.10452C8.08671 6.04734 8.25517 6.12308 8.31235 6.27369C8.36952 6.42429 8.29378 6.59275 8.14318 6.64993C7.60602 6.97247 7.15866 7.42502 6.84239 7.96589C6.79303 8.06496 6.69178 8.12757 6.58107 8.12746Z" fill="#FF0000"/>
<path d="M9.57068 8.4917C8.72502 8.4917 8.03943 8.02646 8.03943 7.45261V5.37454C8.03943 4.80069 8.72502 4.33545 9.57068 4.33545C10.4163 4.33545 11.1019 4.80069 11.1019 5.37454V7.45261C11.1019 8.02646 10.4163 8.4917 9.57068 8.4917Z" fill="#FF0000"/>
<path d="M11.8752 6.33382H10.7085C10.5475 6.33382 10.4169 6.20323 10.4169 6.04216C10.4169 5.88108 10.5475 5.75049 10.7085 5.75049H11.8752C12.0363 5.75049 12.1668 5.88108 12.1668 6.04216C12.1668 6.20323 12.0363 6.33382 11.8752 6.33382Z" fill="#FF0000"/>
<path d="M16.7212 4.06221C16.6507 4.00627 16.5581 3.98661 16.471 4.00914L11.8044 5.17578C11.6746 5.20818 11.5834 5.32483 11.5834 5.4587V6.62535C11.5834 6.75922 11.6746 6.87586 11.8044 6.90826L16.471 8.07491C16.4941 8.08076 16.5178 8.08368 16.5416 8.08366C16.7026 8.08366 16.8332 7.95307 16.8332 7.79199V4.29209C16.8333 4.20229 16.7919 4.11753 16.7212 4.06221Z" fill="#FF0000"/>
</g>
<defs>
<clipPath id="clip0">
<rect width="14" height="14" fill="white" transform="translate(4 4)"/>
</clipPath>
</defs>
</svg>
