<svg width="52" height="122" viewBox="0 0 52 122" fill="none" xmlns="http://www.w3.org/2000/svg">
<path d="M25.8832 31.7663H31.4157C32.1795 31.7663 32.7988 31.147 32.7988 30.3832C32.7988 29.6193 32.1795 29 31.4157 29H25.8832C25.1193 29 24.5 29.6193 24.5 30.3832C24.5 31.147 25.1193 31.7663 25.8832 31.7663Z" fill="#FF4800"/>
<path d="M1.03116 20.295C1.36544 20.0297 1.80475 19.9365 2.21786 20.0433L24.3476 25.5758C24.9636 25.7295 25.3959 26.2826 25.396 26.9175V32.45C25.3959 33.0848 24.9636 33.638 24.3476 33.7916L2.21786 39.3241C2.10843 39.3518 1.99601 39.3657 1.8832 39.3656C1.11933 39.3656 0.500046 38.7463 0.500046 37.9824V21.3851C0.499916 20.9593 0.695845 20.5573 1.03116 20.295Z" fill="#FF4800"/>
<path d="M20.5 45C20.5 39.4772 24.9772 35 30.5 35H41.5C47.0228 35 51.5 39.4772 51.5 45V118C51.5 120.209 49.7091 122 47.5 122H23.5C21.8431 122 20.5 120.657 20.5 119V45Z" fill="#FF4800"/>
<rect x="28.5" y="18" width="15" height="26" rx="7" fill="#FF4800"/>
</svg>
