<svg width="24" height="24" viewBox="0 0 24 24" fill="none" xmlns="http://www.w3.org/2000/svg">
<circle cx="12" cy="12" r="12" fill="#0E0E2C"/>
<path d="M17.7394 12.3438C16.7765 11.2459 17.1433 10.1475 17.1433 10.1475C16.0911 10.5702 15.7439 11.5928 15.6328 12.0964C15.6785 11.5938 15.6283 10.4273 14.6671 8.52283C13.3377 5.88786 14.9881 4 14.9881 4C7.83396 5.53709 8.70575 11.0265 8.70575 11.0265C8.20128 10.8946 7.92614 9.35771 7.92614 9.35771C5.08303 12.9148 6.04595 15.8572 6.04595 15.8572C7.60989 20.1983 11.7191 19.9986 11.7191 19.9986C18.5506 19.6503 18.7025 13.4417 17.7394 12.3438Z" fill="#FF4800"/>
</svg>
